<?xml version="1.0" encoding="utf-8"?>
<!-- Generator: Adobe Illustrator 23.0.1, SVG Export Plug-In . SVG Version: 6.00 Build 0)  -->
<svg version="1.1" id="图层_1" xmlns="http://www.w3.org/2000/svg" xmlns:xlink="http://www.w3.org/1999/xlink" x="0px" y="0px"
	 viewBox="0 0 263.01 78.981" enable-background="new 0 0 263.01 78.981" xml:space="preserve">
<g>
	<path fill="#040000" stroke="#040000" stroke-width="0.3" stroke-miterlimit="10" d="M8.097,0.191l0.656,0.164
		c0.107,0.11,0.382,0.221,0.82,0.328c0.436,0.221,1.256,0.492,2.461,0.82v0.492L11.05,3.308v7.383h0.984l2.133-2.625h0.492
		l3.117,2.625v1.313H11.05v5.414l0.82,0.164c0.546,0.11,1.256,0.385,2.133,0.82c0.656,0.438,1.148,0.877,1.477,1.313
		c0.218,0.438,0.436,0.877,0.656,1.313c0.107,0.438,0.218,0.713,0.328,0.82c0,0.11-0.057,0.221-0.164,0.328
		c-0.11,0.221-0.221,0.603-0.328,1.148l-0.492,0.328c-0.328,0.221-0.549,0.274-0.656,0.164c-0.221,0.11-0.549-0.054-0.984-0.492
		l-0.328-0.82c-0.221-0.546-0.603-1.256-1.148-2.133c-0.221-0.328-0.492-0.71-0.82-1.148c-0.328-0.436-0.492-0.764-0.492-0.984
		v21.164H7.604l0.328-21L6.62,20.37c-0.438,0.767-1.095,1.805-1.969,3.117c-0.438,0.549-0.713,0.931-0.82,1.148
		c-0.767,1.205-1.805,2.682-3.117,4.43H0.222l0.328-0.82c0.107-0.218,0.492-0.928,1.148-2.133c0.218-0.436,0.436-0.82,0.656-1.148
		c0.107-0.218,0.271-0.492,0.492-0.82c0.546-0.984,1.092-2.24,1.641-3.773c0.546-1.42,0.928-2.461,1.148-3.117
		c0.107-0.328,0.271-0.71,0.492-1.148c0.218-0.984,0.656-2.351,1.313-4.102H5.307c-1.423,0-2.189,0-2.297,0
		c-0.221,0-0.438,0-0.656,0l-1.313-1.313h6.891V8.722c0-0.218,0-0.71,0-1.477C7.932,6.043,7.986,3.693,8.097,0.191z M32.214,1.995
		h0.328l3.609,2.953v0.492l-1.313,0.164c-0.984,0.221-1.805,0.603-2.461,1.148c-0.877,0.549-2.354,1.915-4.43,4.102
		c-1.313,1.313-2.461,2.407-3.445,3.281c-0.877,0.877-1.423,1.423-1.641,1.641c-0.221,0.221-0.385,0.385-0.492,0.492
		c-0.984,0.767-1.477,1.259-1.477,1.477h14.766v-0.492l1.313-1.805h0.492l2.953,2.625v0.492l-1.641,0.82l-0.328,3.938
		c-0.11,1.313-0.221,2.518-0.328,3.609c-0.11,1.095-0.164,2.025-0.164,2.789c-0.11,0.549-0.164,1.205-0.164,1.969
		c-0.11,0.984-0.164,1.641-0.164,1.969c-0.221,0.877-0.438,1.584-0.656,2.133c-0.328,0.546-0.713,1.148-1.148,1.805
		c-0.221,0.107-0.438,0.328-0.656,0.656c-0.328,0.328-0.549,0.6-0.656,0.82c-0.438,0.436-1.041,0.82-1.805,1.148
		c-0.656,0.328-1.148,0.492-1.477,0.492l-0.164-0.984c-0.221-0.656-0.438-1.148-0.656-1.477c-0.438-0.549-0.877-0.931-1.313-1.148
		c-0.328-0.221-0.82-0.438-1.477-0.656c-0.767-0.221-1.423-0.438-1.969-0.656v-0.328l1.969,0.164c0.328,0,0.82,0,1.477,0
		c0.546,0.107,1.038,0.218,1.477,0.328c0.218,0,0.436,0.054,0.656,0.164c0.218,0,0.436,0.054,0.656,0.164
		c0.107,0,0.436-0.164,0.984-0.492c0.107-0.221,0.271-0.385,0.492-0.492c0.107-0.11,0.271-0.221,0.492-0.328
		c0.218-0.218,0.436-0.656,0.656-1.313c0.107-0.764,0.271-2.022,0.492-3.773c0-0.436,0.054-1.313,0.164-2.625
		c0.107-2.732,0.271-5.521,0.492-8.367h-3.117l-0.492,1.313c-0.221,0.438-0.385,0.931-0.492,1.477
		c-0.11,0.549-0.221,0.984-0.328,1.313c-0.11,0.11-0.164,0.274-0.164,0.492c-0.221,0.549-0.603,1.313-1.148,2.297
		c-0.328,0.438-0.603,0.82-0.82,1.148c-0.438,0.767-0.767,1.313-0.984,1.641c-0.549,0.877-1.205,1.751-1.969,2.625
		c-0.767,0.877-1.477,1.641-2.133,2.297c-0.767,0.549-0.931,0.656-0.492,0.328c-0.438,0.328-1.041,0.713-1.805,1.148
		c-0.984,0.436-1.861,0.928-2.625,1.477c-0.438,0.107-0.931,0.328-1.477,0.656c-0.549,0.218-0.877,0.382-0.984,0.492
		c-0.328,0-0.713,0.107-1.148,0.328c-0.549,0.107-1.423,0.436-2.625,0.984v-0.492l0.656-0.492c0.436-0.328,1.038-0.656,1.805-0.984
		c0.656-0.549,1.366-0.984,2.133-1.313c0.218-0.221,0.546-0.438,0.984-0.656c0.436-0.218,0.82-0.436,1.148-0.656
		c0.218-0.218,0.6-0.546,1.148-0.984c0.436-0.328,0.82-0.656,1.148-0.984c0.218-0.218,0.546-0.6,0.984-1.148
		c0.436-0.546,0.82-0.984,1.148-1.313c0.218-0.218,0.546-0.656,0.984-1.313c0.328-0.546,0.656-0.984,0.984-1.313
		c0.546-0.764,1.092-1.694,1.641-2.789c0.328-0.984,0.656-1.858,0.984-2.625c0.218-0.546,0.492-1.53,0.82-2.953h-3.938l-0.82,1.805
		c-0.221,0.328-0.492,0.82-0.82,1.477c-0.438,0.877-0.767,1.477-0.984,1.805c-0.221,0.438-0.492,0.931-0.82,1.477
		c-0.438,0.656-0.713,1.148-0.82,1.477c-0.656,0.877-1.313,1.641-1.969,2.297c-0.877,0.877-1.697,1.533-2.461,1.969
		c-0.438,0.328-1.095,0.767-1.969,1.312c-0.328,0.221-0.549,0.328-0.656,0.328c-0.221,0.11-0.492,0.274-0.82,0.492
		c-0.328,0.11-0.603,0.164-0.82,0.164l2.133-2.297c1.42-1.42,2.404-2.515,2.953-3.281c0.218-0.218,0.6-0.764,1.148-1.641
		c0.218-0.328,0.436-0.656,0.656-0.984c0.218-0.328,0.546-0.928,0.984-1.805c0.218-0.436,0.436-0.764,0.656-0.984
		c0.328-0.984,0.764-2.187,1.313-3.609h-2.461l-1.805,1.477h-0.328l-1.805-3.117v-0.492l0.984-0.328
		c0.764-0.218,1.584-0.764,2.461-1.641c0.764-0.656,1.694-1.53,2.789-2.625c0.984-0.984,2.022-1.912,3.117-2.789
		c0.874-0.764,2.133-2.076,3.773-3.938h-5.25c-3.609,0-5.471,0-5.578,0c-0.11,0-0.274,0-0.492,0l-1.313-1.313h13.617l0.164-0.164
		C30.245,3.746,30.901,3.09,32.214,1.995z"/>
	<path fill="#040000" stroke="#040000" stroke-width="0.3" stroke-miterlimit="10" d="M57.185,4.948l0.492,0.328v0.164
		c0.546,0.221,1.366,0.656,2.461,1.313h15.094l1.313-1.805h0.328l2.625,1.805v0.82l-1.313,0.984l0.492,8.695H75.56v-0.984h-8.859
		l-1.148,1.805l-1.313,1.805h16.57l2.625-3.117h0.492l0.656,0.656c0.107,0.328,0.764,0.984,1.969,1.969
		c0.328,0.221,0.6,0.385,0.82,0.492v1.313H74.248l0.656,0.656c0.436,0.438,1.038,0.877,1.805,1.313
		c0.218,0.221,0.546,0.438,0.984,0.656c0.436,0.328,0.82,0.549,1.148,0.656c0.656,0.549,1.148,0.877,1.477,0.984
		c0.328,0.11,0.546,0.164,0.656,0.164c0.218,0.11,0.546,0.221,0.984,0.328c0.436,0.221,0.984,0.328,1.641,0.328
		c0.218,0.11,0.546,0.164,0.984,0.164c1.092,0.11,2.187,0.274,3.281,0.492v0.328l-1.148,0.656c-0.656,0.438-0.767,0.549-0.328,0.328
		c-0.438,0.221-0.82,0.549-1.148,0.984c-0.328,0.549-0.438,0.713-0.328,0.492c-0.11,0.221-0.274,0.438-0.492,0.656l-1.313-0.656
		c-0.877-0.328-2.189-1.148-3.938-2.461l-0.984,0.984l0.492,7.547l-0.984,0.656c-0.549,0.436-0.984,0.71-1.313,0.82
		c-0.221,0.107-0.328,0.218-0.328,0.328c-0.656,0.328-1.095,0.492-1.313,0.492l-0.492-0.984c-0.328-0.656-0.656-1.148-0.984-1.477
		c-0.438-0.438-1.259-0.874-2.461-1.313v-0.492l0.984,0.328c0.764,0.221,1.42,0.274,1.969,0.164c0.546,0.11,1.148-0.054,1.805-0.492
		v-7.055h-6.563v0.656c0-0.328,0,3.502,0,11.484h-3.445l0.164-5.25c0-1.42,0.054-2.679,0.164-3.773
		c0.107-1.641,0.164-2.679,0.164-3.117h-5.906v9.023h-3.281l0.164-2.133c0-0.656,0-1.477,0-2.461
		c0.107-0.656,0.164-2.297,0.164-4.922l-0.492,0.328c-0.328,0.221-0.984,0.603-1.969,1.148c-1.095,0.549-2.189,1.041-3.281,1.477
		c-0.549,0.221-1.313,0.549-2.297,0.984c-0.877,0.328-1.533,0.549-1.969,0.656v-0.492l0.82-0.492l0.492-0.164
		c0.328-0.107,0.984-0.492,1.969-1.148c0.984-0.436,1.969-1.092,2.953-1.969c0.328-0.218,0.82-0.546,1.477-0.984
		c0.546-0.436,1.038-0.82,1.477-1.148c0.218-0.218,0.71-0.656,1.477-1.313c0.546-0.436,1.256-1.092,2.133-1.969h-5.086
		c-3.502,0-5.307,0-5.414,0c-0.11,0-0.274,0-0.492,0l-1.313-1.313h13.125l0.328-0.492c0.218-0.218,0.6-0.656,1.148-1.313
		c0.218-0.436,0.6-1.038,1.148-1.805h-3.281v0.984h-3.281l0.164-2.789c0-0.764,0-1.805,0-3.117
		C57.129,10.473,57.185,8.34,57.185,4.948z M52.92,0.191h0.328l1.313,2.133h27.234V1.995l1.313-1.805h0.328l3.609,3.117v0.328
		l-1.148,0.328c-0.877,0.11-1.697,0.385-2.461,0.82c-0.221,0.11-0.438,0.221-0.656,0.328c-0.877,0.549-1.641,1.095-2.297,1.641
		H79.99l1.477-3.117H55.053v0.492c0,0.221-0.11,0.549-0.328,0.984c0,0.221-0.057,0.492-0.164,0.82l-0.328,1.313l-0.656,0.328
		c-0.549,0.328-0.931,0.549-1.148,0.656c-0.11,0.11-0.221,0.221-0.328,0.328h-0.328c-0.11,0-0.274,0-0.492,0
		c-0.11-0.107-0.164-0.218-0.164-0.328c-0.438-0.107-0.877-0.436-1.313-0.984V6.917c-0.11-0.107-0.057-0.328,0.164-0.656
		c0.107-0.328,0.436-0.656,0.984-0.984c0.328-0.436,0.656-0.874,0.984-1.313c0.218-0.436,0.436-0.984,0.656-1.641
		C52.809,1.778,52.92,1.068,52.92,0.191z M72.443,21.191H63.42l-1.148,0.984c-0.767,0.877-1.533,1.587-2.297,2.133
		c-0.221,0.221-0.492,0.492-0.82,0.82c-0.438,0.221-0.713,0.385-0.82,0.492l0.328,0.164c-0.549,0.221,1.912,0.274,7.383,0.164
		v-4.266l0.656,0.164c0.107,0.11,0.382,0.221,0.82,0.328c0.436,0.221,1.256,0.492,2.461,0.82v0.328l-0.984,1.313v1.313h5.742
		l0.82-0.82h0.164c-0.11,0,0.492,0.274,1.805,0.82l-0.492-0.328c-0.11,0-0.328-0.107-0.656-0.328
		c-0.438-0.436-0.82-0.874-1.148-1.313C74.355,23.544,73.428,22.613,72.443,21.191z M75.56,10.691V7.573H60.139v3.117H75.56z
		 M75.56,15.12v-3.117H60.139v3.117H75.56z"/>
</g>
<g>
	<path fill="#040000" stroke="#040000" stroke-width="0.1" stroke-miterlimit="10" d="M13.934,63.52h0.133l0.266,0.266
		c0.176,0.266,0.575,0.598,1.195,0.996v0.531H9.286v5.313h2.523l1.063-1.262h0.133l0.266,0.266c0.176,0.266,0.575,0.598,1.195,0.996
		v0.531h-5.18v5.91h4.25l1.063-1.129h0.199l0.266,0.266c0,0.133,0.375,0.422,1.129,0.863v0.531H8.556c-5.091,0-7.66,0-7.703,0
		c-0.044,0-0.111,0-0.199,0l-0.531-0.531h3.188v-8.566L3.641,68.7c0.043,0.045,0.176,0.111,0.398,0.199
		c0.176,0.09,0.465,0.199,0.863,0.332v0.133l-0.398,0.531v7.172h3.387V65.313H5.036c-1.904,0-2.878,0-2.922,0
		c-0.089,0-0.177,0-0.266,0l-0.531-0.531h11.555L13.934,63.52z"/>
	<path fill="#040000" stroke="#040000" stroke-width="0.1" stroke-miterlimit="10" d="M24.441,69.231h0.199l1.195,1.063v0.465H22.98
		v4.582l0.863-0.199c0.221-0.088,0.863-0.221,1.926-0.398c0.442-0.088,0.996-0.221,1.66-0.398v0.199l-1.527,0.531
		c-0.266,0.09-0.598,0.223-0.996,0.398c-0.841,0.266-1.439,0.443-1.793,0.531c-0.355,0.133-0.886,0.355-1.594,0.664
		c-0.576,0.133-1.019,0.266-1.328,0.398c-1.063,0.443-1.129,0.465-0.199,0.066c-0.93,0.398-1.461,0.619-1.594,0.664l-0.863-1.129
		v-0.199l0.797-0.066c0.221,0,0.73-0.109,1.527-0.332c0.708-0.176,1.35-0.332,1.926-0.465v-4.848h-1.461c-0.93,0-1.417,0-1.461,0
		c-0.044,0-0.089,0.023-0.133,0.066c-0.044,0-0.089,0-0.133,0l-0.531-0.531h5.512L24.441,69.231z M25.835,62.657h0.066
		c0.133,0.045,0.774,0.223,1.926,0.531v0.199l-0.531,0.664v0.797c-0.044,0.621,0,1.195,0.133,1.727h3.387l1.063-1.262h0.199
		l0.266,0.266c0.043,0.133,0.309,0.398,0.797,0.797c0.133,0.09,0.243,0.156,0.332,0.199v0.465h-5.977l0.066,0.797
		c0,0.576,0.066,1.129,0.199,1.66s0.266,1.02,0.398,1.461c0,0.133,0.043,0.332,0.133,0.598c0.043,0.266,0.11,0.488,0.199,0.664
		c0.043,0.133,0.088,0.311,0.133,0.531c0.043,0.223,0.11,0.377,0.199,0.465c0.133,0.311,0.309,0.621,0.531,0.93
		c0.088,0.133,0.221,0.311,0.398,0.531c0.133,0.266,0.266,0.443,0.398,0.531c0.043,0.09,0.133,0.223,0.266,0.398
		c0.266,0.266,0.487,0.443,0.664,0.531c0.309,0.266,0.686,0.531,1.129,0.797h0.199l0.133-0.398c0-0.043,0.043-0.176,0.133-0.398
		c0.133-0.266,0.243-0.486,0.332-0.664c0.043-0.133,0.155-0.375,0.332-0.73c0.088-0.176,0.199-0.42,0.332-0.73h0.133l-0.066,0.398
		c-0.089,0.355-0.156,0.709-0.199,1.063c-0.089,0.443-0.111,0.754-0.066,0.93c-0.044,0.133-0.023,0.332,0.066,0.598v0.133
		c0.043,0.178,0.133,0.42,0.266,0.73c0.133,0.221,0.199,0.443,0.199,0.664l-0.199,0.066c-0.133,0.045-0.244,0.066-0.332,0.066
		c-0.177,0-0.421-0.066-0.73-0.199c-0.355-0.133-0.687-0.266-0.996-0.398c-0.266-0.221-0.531-0.398-0.797-0.531
		c-0.133-0.133-0.332-0.311-0.598-0.531c-0.089-0.088-0.156-0.133-0.199-0.133c-0.31-0.133-0.531-0.332-0.664-0.598
		c-0.133-0.088-0.31-0.266-0.531-0.531c-0.089-0.088-0.133-0.176-0.133-0.266c-0.222-0.266-0.421-0.574-0.598-0.93
		c-0.089-0.133-0.199-0.375-0.332-0.73c-0.089-0.221-0.156-0.398-0.199-0.531c-0.133-0.266-0.244-0.531-0.332-0.797
		c-0.089-0.309-0.156-0.553-0.199-0.73c-0.222-0.531-0.376-1.063-0.465-1.594c-0.133-0.486-0.222-0.973-0.266-1.461
		c-0.044-0.176-0.089-0.465-0.133-0.863c0-0.309,0-0.574,0-0.797h-3.852c-2.613,0-3.941,0-3.984,0c-0.044,0-0.066,0.023-0.066,0.066
		c-0.044,0-0.089,0-0.133,0l-0.531-0.531h8.5l-0.133-1.262C26.057,64.782,25.968,63.897,25.835,62.657z M28.691,63.387l0.797,0.066
		c0.487,0.09,0.84,0.156,1.063,0.199c0.133,0.09,0.266,0.178,0.398,0.266c0.088,0.09,0.176,0.199,0.266,0.332
		c0.043,0.133,0.088,0.311,0.133,0.531c-0.044,0.223-0.089,0.398-0.133,0.531c-0.044,0.09-0.133,0.223-0.266,0.398
		c-0.089,0.045-0.133,0.09-0.133,0.133h-0.199l-0.266-0.332c-0.222-0.221-0.376-0.441-0.465-0.664
		c-0.133-0.176-0.266-0.398-0.398-0.664C29.31,63.919,29.045,63.653,28.691,63.387z"/>
	<path fill="#040000" stroke="#040000" stroke-width="0.1" stroke-miterlimit="10" d="M43.647,62.989l0.863,0.398l0.93,0.332v0.199
		l-0.398,0.531v2.457h3.719l1.063-1.262h0.199l0.266,0.266c0.043,0.133,0.309,0.398,0.797,0.797c0.133,0.09,0.243,0.156,0.332,0.199
		v0.531h-6.375v0.066c0,0.09,0,0.398,0,0.93c-0.044,0.531-0.023,0.996,0.066,1.395c0,0.045,0,0.111,0,0.199
		c0.043,0.311,0.133,0.688,0.266,1.129c0.088,0.488,0.243,0.953,0.465,1.395c0,0.09,0.022,0.199,0.066,0.332
		c0.176,0.398,0.332,0.688,0.465,0.863l0.199-0.398c0.133-0.266,0.309-0.619,0.531-1.063c0.133-0.398,0.309-0.84,0.531-1.328
		c0.133-0.531,0.332-1.172,0.598-1.926h0.066c-0.133-0.043,0.375,0.199,1.527,0.73v0.133l-0.332,0.266
		c-0.266,0.178-0.465,0.488-0.598,0.93c-0.222,0.443-0.398,0.82-0.531,1.129c-0.089,0.09-0.177,0.223-0.266,0.398
		c-0.177,0.355-0.31,0.598-0.398,0.73c-0.266,0.398-0.531,0.863-0.797,1.395l0.133,0.199c0,0.133,0.088,0.289,0.266,0.465
		c0.088,0.09,0.155,0.156,0.199,0.199c0.043,0.045,0.11,0.111,0.199,0.199c0.088,0.09,0.332,0.244,0.73,0.465
		c0.309,0.266,0.598,0.422,0.863,0.465c0.221,0.133,0.398,0.199,0.531,0.199l0.266-0.199c0.088-0.088,0.288-0.375,0.598-0.863
		c-0.222,0.398-0.177,0.332,0.133-0.199c0.133-0.266,0.266-0.508,0.398-0.73c0.088-0.176,0.155-0.309,0.199-0.398h0.199
		l-0.199,0.598c-0.089,0.223-0.177,0.488-0.266,0.797v0.199c-0.089,0.223-0.111,0.422-0.066,0.598
		c-0.044,0.088-0.023,0.287,0.066,0.598c0.043,0.266,0.133,0.51,0.266,0.73c0.133,0.088,0.199,0.244,0.199,0.465l-0.199,0.066
		c-0.133,0.045-0.244,0.066-0.332,0.066c-0.177,0-0.355-0.021-0.531-0.066c-0.133-0.045-0.332-0.133-0.598-0.266
		c-0.133-0.045-0.222-0.066-0.266-0.066c-0.398-0.221-0.753-0.443-1.063-0.664c-0.089-0.088-0.156-0.133-0.199-0.133
		c-0.266-0.178-0.531-0.377-0.797-0.598c-0.355-0.133-0.621-0.332-0.797-0.598c-0.177-0.088-0.376-0.266-0.598-0.531
		c-0.044-0.088-0.066-0.154-0.066-0.199l-0.199,0.199c-0.177,0.178-0.398,0.355-0.664,0.531c-0.31,0.266-0.664,0.465-1.063,0.598
		c-0.177,0.088-0.443,0.221-0.797,0.398c-0.177,0.088-0.289,0.178-0.332,0.266c-0.177,0.045-0.465,0.154-0.863,0.332
		s-0.753,0.332-1.063,0.465v-0.332l0.797-0.398c0.487-0.266,0.93-0.51,1.328-0.73c0.088-0.088,0.266-0.199,0.531-0.332
		c0.176-0.088,0.354-0.199,0.531-0.332c0.309-0.309,0.598-0.598,0.863-0.863c0.133-0.221,0.288-0.42,0.465-0.598l-0.332-0.664
		c-0.222-0.398-0.421-0.84-0.598-1.328c-0.222-0.441-0.376-0.906-0.465-1.395c-0.133-0.441-0.222-0.818-0.266-1.129
		c0-0.088,0-0.154,0-0.199c-0.044-0.133-0.089-0.375-0.133-0.73c0-0.309,0-0.574,0-0.797c-0.089-0.574-0.111-0.93-0.066-1.063
		h-5.047v2.855h2.523l0.531-0.73h0.199l1.063,0.73v0.332l-0.398,0.332v0.996c0,0.664-0.066,1.219-0.199,1.66
		c-0.044,0.178-0.089,0.422-0.133,0.73c-0.044,0.355-0.066,0.598-0.066,0.73c-0.089,0.488-0.177,0.842-0.266,1.063
		c-0.177,0.223-0.355,0.422-0.531,0.598c-0.266,0.088-0.465,0.199-0.598,0.332c-0.222,0.133-0.376,0.199-0.465,0.199l-0.133-0.398
		c-0.089-0.133-0.177-0.266-0.266-0.398c-0.133-0.133-0.31-0.242-0.531-0.332c-0.089,0-0.177-0.043-0.266-0.133
		c-0.133-0.043-0.266-0.133-0.398-0.266v-0.133l0.598,0.066c0.398,0.09,0.708,0.111,0.93,0.066c0.133,0.045,0.266,0.023,0.398-0.066
		c0.088-0.043,0.176-0.109,0.266-0.199c0.043-0.043,0.11-0.176,0.199-0.398c0-0.088,0.022-0.287,0.066-0.598
		c0-0.266,0.022-0.486,0.066-0.664c0.088-0.664,0.133-1.727,0.133-3.188h-2.723v1.063c-0.044,0.754-0.089,1.352-0.133,1.793
		c-0.089,0.178-0.156,0.398-0.199,0.664c-0.044,0.311-0.089,0.531-0.133,0.664c-0.133,0.398-0.266,0.754-0.398,1.063
		c-0.133,0.266-0.266,0.555-0.398,0.863c-0.222,0.178-0.443,0.443-0.664,0.797c-0.089,0.088-0.199,0.221-0.332,0.398
		c-0.177,0.133-0.289,0.266-0.332,0.398c-0.089,0-0.177,0.045-0.266,0.133c-0.177,0.133-0.332,0.266-0.465,0.398v-0.199l0.465-0.598
		c0.266-0.443,0.508-0.818,0.73-1.129c0.043-0.133,0.11-0.287,0.199-0.465c0.043-0.221,0.11-0.398,0.199-0.531
		c0.043-0.176,0.11-0.465,0.199-0.863c-0.044,0.223-0.023,0.156,0.066-0.199c0.043-0.309,0.11-0.752,0.199-1.328
		c0-0.176,0-0.508,0-0.996c0.043-0.398,0.066-1.217,0.066-2.457c0-1.195-0.023-2.014-0.066-2.457c0-0.574-0.023-1.105-0.066-1.594
		h0.133l1.195,0.863h5.047v-1.262C43.846,65.114,43.78,64.229,43.647,62.989z M46.104,63.387h0.066c0.043,0,0.176,0.023,0.398,0.066
		c0,0.045,0.066,0.09,0.199,0.133c0.176,0.045,0.332,0.09,0.465,0.133c0.309,0.133,0.708,0.377,1.195,0.73l0.066,0.266
		c0.088,0.178,0.133,0.377,0.133,0.598l-0.199,0.266c-0.133,0.178-0.266,0.289-0.398,0.332l-0.066,0.066
		c-0.133,0.09-0.266,0.111-0.398,0.066l-0.199-0.465c-0.133-0.309-0.289-0.641-0.465-0.996c-0.089-0.043-0.133-0.109-0.133-0.199
		C46.546,64.03,46.325,63.698,46.104,63.387z"/>
	<path fill="#040000" stroke="#040000" stroke-width="0.1" stroke-miterlimit="10" d="M61.259,62.657h0.066
		c0.043,0,0.664,0.289,1.859,0.863v0.199l-0.531,0.332l-0.199,0.996c-0.177,0.797-0.398,1.883-0.664,3.254h4.98v-0.133l0.531-0.73
		h0.133l1.461,1.395v0.199l-0.73,0.332l-0.133,0.73c-0.044,0.178-0.089,0.488-0.133,0.93c-0.044,0.576-0.089,1.041-0.133,1.395
		c-0.044,0.355-0.089,0.664-0.133,0.93c-0.044,0.443-0.111,0.975-0.199,1.594c-0.044,0.223-0.089,0.422-0.133,0.598
		c-0.044,0.266-0.111,0.598-0.199,0.996c-0.133,0.354-0.289,0.643-0.465,0.863c-0.177,0.221-0.421,0.443-0.73,0.664
		c-0.133,0.045-0.289,0.111-0.465,0.199c-0.177,0.045-0.31,0.111-0.398,0.199c-0.266,0.133-0.465,0.199-0.598,0.199l-0.133-0.332
		c-0.089-0.266-0.177-0.443-0.266-0.531c-0.133-0.133-0.266-0.266-0.398-0.398c-0.133-0.088-0.488-0.199-1.063-0.332
		c-0.133-0.045-0.289-0.088-0.465-0.133v-0.199l0.863,0.066c0.088,0,0.266,0,0.531,0c0.354,0.088,0.598,0.133,0.73,0.133
		c0.221-0.045,0.442-0.088,0.664-0.133c0.133-0.045,0.266-0.066,0.398-0.066c0.043,0,0.11-0.043,0.199-0.133
		c0.043-0.088,0.088-0.154,0.133-0.199c0.088-0.176,0.176-0.398,0.266-0.664c0-0.043,0.043-0.242,0.133-0.598
		c0.043-0.309,0.088-0.553,0.133-0.73c0.088-0.619,0.176-1.238,0.266-1.859c0.043-0.354,0.155-1.594,0.332-3.719h-5.113v0.066
		c-0.089,0.09-0.222,0.51-0.398,1.262c-0.089,0.178-0.156,0.355-0.199,0.531c-0.133,0.443-0.31,0.953-0.531,1.527
		c-0.266,0.621-0.531,1.152-0.797,1.594c-0.31,0.488-0.664,0.953-1.063,1.395c-0.443,0.488-0.82,0.887-1.129,1.195
		c-0.398,0.223-0.797,0.465-1.195,0.73c-0.398,0.311-0.797,0.576-1.195,0.797c-0.266,0.178-0.953,0.486-2.059,0.93v-0.199
		l0.863-0.531c0.575-0.354,1.084-0.686,1.527-0.996c0.398-0.266,0.797-0.553,1.195-0.863c0.309-0.309,0.62-0.686,0.93-1.129
		c0.266-0.398,0.531-0.773,0.797-1.129c0.266-0.354,0.531-0.863,0.797-1.527c0.043-0.176,0.133-0.441,0.266-0.797
		c0.221-0.441,0.375-0.773,0.465-0.996c0-0.088,0.022-0.242,0.066-0.465c0.133-0.531,0.266-0.996,0.398-1.395h-2.922
		c-1.992,0-3.011,0-3.055,0c-0.089,0-0.177,0-0.266,0l-0.531-0.531h6.906l0.066-0.398c0-0.088,0.022-0.287,0.066-0.598
		c0.088-0.354,0.155-0.664,0.199-0.93c0.043-0.441,0.155-1.504,0.332-3.188C61.148,63.366,61.169,63.188,61.259,62.657z
		 M55.747,63.919h0.066c0.043,0,0.199,0.045,0.465,0.133c0.043,0.045,0.155,0.133,0.332,0.266c0.221,0.133,0.42,0.223,0.598,0.266
		c0.309,0.266,0.598,0.488,0.863,0.664c0.176,0.178,0.354,0.355,0.531,0.531c0.088,0.178,0.176,0.355,0.266,0.531
		c0.043,0.133,0.066,0.266,0.066,0.398l-0.266,0.398c-0.222,0.223-0.376,0.355-0.465,0.398l-0.066,0.066
		c-0.133,0.09-0.266,0.111-0.398,0.066l-0.266-0.664c-0.222-0.398-0.398-0.773-0.531-1.129c-0.044,0-0.089-0.043-0.133-0.133
		C56.499,65.18,56.145,64.583,55.747,63.919z M61.458,70.958h0.066c0.043,0,0.221,0.09,0.531,0.266
		c0.043,0.045,0.11,0.111,0.199,0.199c0.133,0.09,0.354,0.244,0.664,0.465c0.266,0.223,0.508,0.422,0.73,0.598
		c0,0.045,0.022,0.111,0.066,0.199c0.133,0.133,0.221,0.244,0.266,0.332c0,0.045,0,0.09,0,0.133
		c0.088,0.178,0.133,0.332,0.133,0.465l-0.199,0.266c-0.133,0.223-0.266,0.355-0.398,0.398c-0.133,0.09-0.222,0.111-0.266,0.066
		c-0.089,0.045-0.222-0.021-0.398-0.199l-0.199-0.531c-0.044,0-0.066-0.021-0.066-0.066C62.365,73.016,61.989,72.153,61.458,70.958z
		"/>
	<path fill="#040000" stroke="#040000" stroke-width="0.1" stroke-miterlimit="10" d="M75.152,66.376h0.199l-0.465,1.395
		c-0.355,0.93-0.621,1.793-0.797,2.59c-0.177,0.398-0.332,0.93-0.465,1.594c-0.044,0.178-0.066,0.289-0.066,0.332
		c-0.133,0.531-0.222,1.195-0.266,1.992c-0.089,0.754-0.111,1.395-0.066,1.926c0,0.443-0.133,0.975-0.398,1.594h-0.266
		c-0.133,0-0.289-0.045-0.465-0.133c-0.089-0.045-0.199-0.066-0.332-0.066l-0.332-0.531v-0.066
		c-0.044-0.088-0.023-0.178,0.066-0.266c0.043-0.043,0.11-0.199,0.199-0.465v-0.199c0.088-0.221,0.176-0.42,0.266-0.598
		c0.133-0.266,0.199-0.465,0.199-0.598s-0.066-0.309-0.199-0.531c-0.133-0.221-0.266-0.398-0.398-0.531
		c-0.177-0.133-0.465-0.375-0.863-0.73V72.95l0.332,0.066c0.221,0.09,0.398,0.111,0.531,0.066c0.133,0.045,0.266,0.023,0.398-0.066
		c0.088-0.043,0.243-0.199,0.465-0.465c0.133-0.221,0.42-0.84,0.863-1.859C73.735,69.497,74.355,68.059,75.152,66.376z
		 M70.703,66.708h0.066c0.043,0,0.288,0.133,0.73,0.398c0.398,0.223,0.708,0.398,0.93,0.531c0.088,0.09,0.354,0.377,0.797,0.863
		v0.332l-0.199,0.266c-0.089,0.09-0.199,0.223-0.332,0.398c-0.044,0.09-0.111,0.178-0.199,0.266h-0.332l-0.133-0.266
		c-0.044,0-0.066-0.043-0.066-0.133c-0.044-0.088-0.111-0.287-0.199-0.598c-0.133-0.309-0.266-0.598-0.398-0.863
		c-0.089-0.133-0.222-0.332-0.398-0.598C70.836,67.085,70.746,66.885,70.703,66.708z M71.766,63.188h0.066
		c0.043,0,0.199,0.066,0.465,0.199c0.088,0.045,0.266,0.133,0.531,0.266c0.043,0.045,0.11,0.066,0.199,0.066
		c0,0.045,0.043,0.09,0.133,0.133c0.133,0.045,0.309,0.156,0.531,0.332c0.221,0.133,0.398,0.266,0.531,0.398
		c0.088,0.133,0.176,0.266,0.266,0.398c0.043,0.09,0.088,0.199,0.133,0.332c0,0.133-0.066,0.289-0.199,0.465
		c-0.044,0.045-0.111,0.111-0.199,0.199c-0.089,0.133-0.199,0.266-0.332,0.398h-0.332l-0.199-0.266
		c-0.133-0.176-0.222-0.375-0.266-0.598c-0.089-0.266-0.177-0.508-0.266-0.73c-0.089-0.088-0.156-0.199-0.199-0.332
		c-0.089-0.133-0.156-0.266-0.199-0.398c-0.133-0.088-0.332-0.309-0.598-0.664C71.787,63.3,71.766,63.233,71.766,63.188z
		 M79.933,62.657l0.398,0.199c0.133,0.045,0.442,0.178,0.93,0.398c0.133,0.045,0.288,0.09,0.465,0.133v0.133l-0.398,0.531v1.992
		h2.855l0.531-0.531h0.199l1.395,1.195v0.199l-0.664,0.199c-0.443,0.09-0.886,0.289-1.328,0.598
		c-0.531,0.311-0.93,0.576-1.195,0.797h-0.199l0.266-0.465c0.088-0.088,0.266-0.354,0.531-0.797c0.176-0.266,0.332-0.508,0.465-0.73
		h-2.855v3.586h1.461l0.664-0.73h0.199l1.262,1.063v0.199l-0.266,0.199c-0.133,0.045-0.355,0.244-0.664,0.598v0.066
		c-0.177,0.178-0.376,0.488-0.598,0.93c-0.089,0.133-0.133,0.223-0.133,0.266c-0.222,0.443-0.398,0.73-0.531,0.863
		c-0.089,0.133-0.133,0.223-0.133,0.266c-0.133,0.178-0.355,0.488-0.664,0.93c-0.133,0.223-0.244,0.398-0.332,0.531l0.332,0.266
		c0.043,0.045,0.11,0.111,0.199,0.199c0.221,0.133,0.398,0.223,0.531,0.266c0.088,0.133,0.309,0.266,0.664,0.398
		c0.133,0.09,0.243,0.133,0.332,0.133c0.133,0.133,0.375,0.199,0.73,0.199c0.133,0.045,0.266,0.088,0.398,0.133
		c0.176,0.045,0.531,0.133,1.063,0.266c0.266,0.045,0.487,0.088,0.664,0.133v0.199l-0.266,0.066
		c-0.222,0.045-0.398,0.133-0.531,0.266c-0.266,0.133-0.531,0.377-0.797,0.73h-0.133c-0.089,0-0.244-0.066-0.465-0.199
		c-0.044-0.045-0.089-0.088-0.133-0.133c-0.133-0.045-0.398-0.221-0.797-0.531c-0.443-0.266-0.797-0.531-1.063-0.797
		c-0.222-0.088-0.642-0.441-1.262-1.063l-0.199,0.133c-0.044,0.045-0.133,0.111-0.266,0.199c-0.177,0.133-0.31,0.244-0.398,0.332
		c-0.355,0.178-0.708,0.377-1.063,0.598c-0.222,0.133-0.554,0.287-0.996,0.465c-0.133,0.088-0.222,0.154-0.266,0.199
		c-0.443,0.133-0.82,0.266-1.129,0.398c-0.177,0.045-0.376,0.088-0.598,0.133c-0.266,0.045-0.465,0.111-0.598,0.199
		c-0.398,0.133-0.642,0.199-0.73,0.199l0.797-0.465c0.088-0.088,0.243-0.199,0.465-0.332c0.176-0.088,0.465-0.199,0.863-0.332
		c0.309-0.221,0.62-0.398,0.93-0.531c0.266-0.178,0.598-0.354,0.996-0.531c0.354-0.266,0.885-0.73,1.594-1.395l-0.133-0.066
		c-0.044,0-0.089-0.066-0.133-0.199c-0.044-0.088-0.111-0.221-0.199-0.398c-0.222-0.266-0.355-0.465-0.398-0.598
		c-0.044-0.133-0.066-0.221-0.066-0.266c-0.089-0.088-0.156-0.242-0.199-0.465c-0.044-0.221-0.089-0.398-0.133-0.531
		c-0.089-0.133-0.177-0.441-0.266-0.93c-0.089-0.354-0.156-0.686-0.199-0.996H77.41v0.398c0,0.355-0.066,0.775-0.199,1.262
		c-0.089,0.576-0.156,1.02-0.199,1.328c-0.089,0.355-0.111,0.422-0.066,0.199c-0.044,0.223-0.111,0.51-0.199,0.863
		c-0.133,0.355-0.289,0.688-0.465,0.996c-0.089,0.133-0.199,0.289-0.332,0.465c-0.133,0.178-0.222,0.311-0.266,0.398
		c-0.133,0.133-0.266,0.244-0.398,0.332c-0.133,0.133-0.244,0.266-0.332,0.398c-0.133,0.045-0.266,0.133-0.398,0.266
		s-0.244,0.244-0.332,0.332c-0.222,0.178-0.421,0.332-0.598,0.465c-0.177,0.088-0.355,0.178-0.531,0.266
		c-0.177,0.045-0.31,0.066-0.398,0.066l0.531-0.465c0.309-0.266,0.598-0.531,0.863-0.797c0.043-0.088,0.133-0.199,0.266-0.332
		c0.133-0.178,0.243-0.287,0.332-0.332c0.088-0.043,0.221-0.199,0.398-0.465c0.043-0.088,0.088-0.176,0.133-0.266
		c0.176-0.266,0.332-0.574,0.465-0.93c0.088-0.354,0.176-0.707,0.266-1.063c0-0.133,0.022-0.375,0.066-0.73
		c0-0.309,0.022-0.574,0.066-0.797c0.043-0.619,0.088-1.77,0.133-3.453c0-1.416-0.066-2.723-0.199-3.918h0.199l1.195,0.93h2.723
		v-0.996c0-0.354-0.066-1.039-0.199-2.059C79.933,62.856,79.933,62.747,79.933,62.657z M80.133,70.094v-3.586H77.41v3.586H80.133z
		 M82.922,70.626h-3.785l0.133,0.398c0.043,0.311,0.133,0.621,0.266,0.93c0,0.09,0.043,0.244,0.133,0.465
		c0.133,0.266,0.243,0.465,0.332,0.598c0,0.09,0.043,0.199,0.133,0.332c0.088,0.178,0.221,0.398,0.398,0.664
		c0.043,0.09,0.11,0.178,0.199,0.266c0.043,0.133,0.133,0.223,0.266,0.266l0.066-0.066l0.066-0.133
		c0.133-0.221,0.266-0.398,0.398-0.531c0.176-0.309,0.375-0.686,0.598-1.129c0.043-0.133,0.133-0.354,0.266-0.664
		c0.088-0.266,0.176-0.486,0.266-0.664C82.832,70.915,82.922,70.671,82.922,70.626z"/>
	<path fill="#040000" stroke="#040000" stroke-width="0.1" stroke-miterlimit="10" d="M98.409,66.044h0.199l1.262,1.063v0.465
		h-5.047c-3.41,0-5.136,0-5.18,0c-0.044,0-0.089,0.023-0.133,0.066c-0.044,0-0.089,0-0.133,0l-0.531-0.531h8.699L98.409,66.044z
		 M101.596,62.989h0.199l1.262,1.262l-0.398,0.531v5.91c0,3.984-0.066,6.043-0.199,6.176c-0.133,0.221-0.244,0.398-0.332,0.531
		c-0.133,0.133-0.266,0.266-0.398,0.398c-0.089,0.045-0.244,0.111-0.465,0.199c-0.089,0.045-0.156,0.088-0.199,0.133
		c-0.266,0.133-0.443,0.199-0.531,0.199l-0.066-0.266c-0.089-0.221-0.177-0.398-0.266-0.531c-0.133-0.221-0.289-0.377-0.465-0.465
		c-0.222-0.133-0.421-0.221-0.598-0.266c-0.31-0.045-0.775-0.154-1.395-0.332V76.27l0.797,0.133c0.487,0.09,0.863,0.111,1.129,0.066
		c0.176,0.045,0.442,0.023,0.797-0.066c0.221-0.043,0.487-0.133,0.797-0.266V64.251h-4.98c-3.32,0-5.003,0-5.047,0
		c-0.089,0-0.177,0-0.266,0l-0.332-0.332h10.293L101.596,62.989z M96.815,68.833h0.199l1.063,1.063l-0.531,0.531l0.199,4.648h-1.262
		v-0.93h-4.117v1.594h-1.395l0.066-1.395c0.088-1.063,0.133-2.832,0.133-5.313l0.598,0.266c0.176,0.133,0.575,0.223,1.195,0.266
		c0.575,0.045,1.682,0.045,3.32,0L96.815,68.833z M96.483,73.614v-3.719h-4.117v3.719H96.483z"/>
	<path fill="#040000" stroke="#040000" stroke-width="0.1" stroke-miterlimit="10" d="M112.302,63.387h0.199l1.262,1.063v0.133
		l-0.266,0.199c-0.222,0.133-0.398,0.332-0.531,0.598c-0.222,0.355-0.443,0.709-0.664,1.063c-0.133,0.178-0.266,0.398-0.398,0.664
		c-0.177,0.266-0.31,0.465-0.398,0.598c-0.133,0.178-0.31,0.422-0.531,0.73c-0.177,0.223-0.31,0.398-0.398,0.531
		c-0.398,0.398-0.73,0.754-0.996,1.063c-0.355,0.266-0.708,0.555-1.063,0.863c-0.177,0.133-0.398,0.266-0.664,0.398
		c-0.266,0.178-0.465,0.311-0.598,0.398c-0.355,0.178-0.841,0.422-1.461,0.73v-0.199l0.598-0.465
		c0.398-0.266,0.708-0.486,0.93-0.664c0.088-0.088,0.155-0.154,0.199-0.199c0.309-0.309,0.641-0.598,0.996-0.863
		c0.088-0.088,0.221-0.242,0.398-0.465c0.176-0.221,0.332-0.398,0.465-0.531c0.088-0.088,0.221-0.266,0.398-0.531
		c0.133-0.221,0.266-0.398,0.398-0.531c0.088-0.133,0.221-0.354,0.398-0.664c0.088-0.133,0.199-0.287,0.332-0.465
		c0.088-0.176,0.199-0.441,0.332-0.797c0.088-0.088,0.155-0.176,0.199-0.266c0.088-0.221,0.199-0.619,0.332-1.195h-1.66
		c-1.152,0-1.75,0-1.793,0c-0.089,0-0.177,0-0.266,0l-0.531-0.531h4.25L112.302,63.387z M115.489,74.544h0.199l1.262,0.863v0.199
		l-0.398,0.266c-0.266,0.133-0.465,0.332-0.598,0.598c-0.222,0.178-0.488,0.553-0.797,1.129h3.387l1.063-1.129h0.133l0.266,0.266
		c0.043,0,0.133,0.045,0.266,0.133c0.309,0.221,0.62,0.465,0.93,0.73v0.531h-6.773c-4.516,0-6.796,0-6.84,0
		c-0.044,0-0.111,0-0.199,0l-0.531-0.531h7.57l0.332-0.863c0.133-0.266,0.309-0.797,0.531-1.594
		C115.333,74.966,115.4,74.766,115.489,74.544z M107.388,65.844h0.066c0.043,0,0.176,0.023,0.398,0.066
		c0.221,0.09,0.465,0.178,0.73,0.266c0.221,0.133,0.442,0.289,0.664,0.465c0,0.045,0.022,0.111,0.066,0.199
		c0.133,0.133,0.221,0.244,0.266,0.332c0.043,0.178,0.066,0.289,0.066,0.332c0,0.133-0.044,0.355-0.133,0.664l-0.531,0.332h-0.199
		l-0.266-0.598c-0.222-0.441-0.443-0.797-0.664-1.063c-0.044,0-0.066-0.021-0.066-0.066
		C107.564,66.466,107.431,66.155,107.388,65.844z M109.845,70.294h0.199l0.93,0.664h5.246l0.332-0.664h0.199l0.266,0.133
		c0.176,0.223,0.508,0.51,0.996,0.863v0.066l-0.398,0.332l0.199,2.457l-0.664,0.199c-0.398,0.133-0.642,0.199-0.73,0.199v-0.398
		h-5.18v0.398l-0.598,0.133c-0.398,0.133-0.664,0.199-0.797,0.199V70.294z M110.907,74.676h0.066c0.043,0,0.199,0.066,0.465,0.199
		c0,0.045,0.043,0.09,0.133,0.133c0.133,0.045,0.309,0.156,0.531,0.332c0.221,0.133,0.398,0.332,0.531,0.598
		c0.133,0.223,0.199,0.377,0.199,0.465c0,0.045-0.023,0.156-0.066,0.332c-0.089,0.088-0.244,0.266-0.465,0.531h-0.066
		c-0.044,0-0.089-0.021-0.133-0.066c-0.089-0.045-0.199-0.088-0.332-0.133l-0.066-0.332c-0.089-0.309-0.177-0.574-0.266-0.797
		C111.261,75.63,111.083,75.208,110.907,74.676z M114.958,67.77h0.199l1.063,0.93v0.465h-2.059c-1.373,0-2.082,0-2.125,0
		c-0.044,0-0.089,0.023-0.133,0.066c-0.044,0.045-0.089,0.045-0.133,0l-0.531-0.531h3.055L114.958,67.77z M116.419,73.614V71.29
		h-5.18v2.324H116.419z M117.614,62.989h0.199l0.863,1.063v0.199l-0.531,0.199c-0.355,0.09-0.73,0.289-1.129,0.598
		c-0.531,0.355-1.019,0.688-1.461,0.996l0.066,0.066c0,0.045,0.066,0.156,0.199,0.332c0.043,0.09,0.11,0.156,0.199,0.199
		c0.043,0.09,0.133,0.223,0.266,0.398c0.176,0.178,0.332,0.311,0.465,0.398l0.531-0.465c0.309-0.266,0.62-0.553,0.93-0.863
		c0.266-0.221,0.598-0.664,0.996-1.328h0.199l0.863,1.063v0.199l-0.531,0.133c-0.355,0.133-0.73,0.355-1.129,0.664
		c-0.133,0.09-0.266,0.178-0.398,0.266c-0.398,0.223-0.753,0.465-1.063,0.73l0.398,0.332c0.088,0.09,0.221,0.199,0.398,0.332
		c0.176,0.133,0.332,0.223,0.465,0.266c0.088,0.09,0.288,0.223,0.598,0.398c0.176,0.045,0.332,0.09,0.465,0.133
		c0.398,0.223,0.797,0.377,1.195,0.465c0.088,0.045,0.221,0.09,0.398,0.133c0.309,0.09,0.575,0.156,0.797,0.199v0.199l-0.465,0.266
		c-0.31,0.133-0.621,0.398-0.93,0.797h-0.199l-0.73-0.465c-0.222-0.133-0.509-0.309-0.863-0.531
		c-0.222-0.133-0.376-0.242-0.465-0.332c-0.133-0.043-0.289-0.154-0.465-0.332c-0.133-0.088-0.355-0.287-0.664-0.598
		c-0.355-0.266-0.642-0.553-0.863-0.863c-0.133-0.088-0.266-0.242-0.398-0.465c-0.133-0.221-0.244-0.398-0.332-0.531
		c-0.266-0.309-0.465-0.686-0.598-1.129c-0.133-0.176-0.266-0.441-0.398-0.797c-0.044-0.133-0.066-0.242-0.066-0.332
		c-0.133-0.221-0.244-0.818-0.332-1.793h0.199l0.266,0.598c0.133,0.443,0.266,0.797,0.398,1.063c0,0.045,0,0.09,0,0.133
		c0.133,0.311,0.266,0.531,0.398,0.664l0.531-0.531c0.088-0.088,0.243-0.242,0.465-0.465c0.176-0.221,0.309-0.375,0.398-0.465
		C116.839,63.964,117.126,63.565,117.614,62.989z"/>
	<path fill="#040000" stroke="#040000" stroke-width="0.1" stroke-miterlimit="10" d="M126.195,67.77h0.199l1.063,0.863
		l-0.398,0.598v5.844l0.863-0.664c0.708-0.441,1.504-0.996,2.391-1.66h0.133l-0.531,0.598c-0.355,0.443-0.93,1.063-1.727,1.859
		c-0.841,0.887-1.505,1.639-1.992,2.258h-0.133l-0.93-1.195v-0.133l0.266-0.266c0.088-0.088,0.176-0.221,0.266-0.398
		c0-0.043,0.022-0.088,0.066-0.133c0.088-0.176,0.133-2.412,0.133-6.707h-0.93c-0.576,0-0.886,0-0.93,0
		c-0.044,0-0.089,0.023-0.133,0.066c-0.044,0-0.089,0-0.133,0l-0.332-0.398h2.258L126.195,67.77z M125,62.989h0.066
		c0.043,0,0.309,0.09,0.797,0.266c0.043,0.045,0.133,0.111,0.266,0.199c0.398,0.133,0.686,0.244,0.863,0.332
		c0,0.045,0.022,0.09,0.066,0.133c0.221,0.09,0.398,0.223,0.531,0.398c0.088,0.178,0.176,0.355,0.266,0.531
		c0,0.09,0.022,0.156,0.066,0.199c0,0.09,0.022,0.156,0.066,0.199c0,0.045-0.023,0.09-0.066,0.133
		c-0.044,0.045-0.066,0.111-0.066,0.199c-0.089,0.223-0.222,0.422-0.398,0.598h-0.531l-0.133-0.133
		c-0.044-0.043-0.089-0.133-0.133-0.266c-0.044-0.176-0.089-0.332-0.133-0.465c-0.133-0.354-0.156-0.398-0.066-0.133
		c-0.089-0.266-0.244-0.574-0.465-0.93C125.819,63.985,125.487,63.565,125,62.989z M136.156,69.032h0.133l1.262,1.063v0.199
		l-0.73,0.332l-0.531,1.063c-0.355,0.754-0.642,1.262-0.863,1.527v0.066c-0.133,0.178-0.289,0.377-0.465,0.598
		c-0.177,0.223-0.421,0.555-0.73,0.996l0.199,0.133c0.043,0.09,0.176,0.178,0.398,0.266c0.133,0.09,0.266,0.156,0.398,0.199
		c0.354,0.178,0.598,0.311,0.73,0.398c0.221,0.045,0.398,0.09,0.531,0.133c0.442,0.223,0.907,0.377,1.395,0.465
		c0.266,0.133,0.93,0.223,1.992,0.266v0.199l-0.398,0.066c-0.266,0.045-0.465,0.133-0.598,0.266
		c-0.222,0.088-0.421,0.377-0.598,0.863h-0.133c-0.089,0-0.332-0.088-0.73-0.266c-0.442-0.221-0.886-0.42-1.328-0.598
		c-0.488-0.266-0.974-0.531-1.461-0.797c-0.488-0.266-0.886-0.574-1.195-0.93l-0.199,0.066c-0.044,0.045-0.156,0.111-0.332,0.199
		c-0.133,0.133-0.31,0.266-0.531,0.398c-0.488,0.311-0.953,0.531-1.395,0.664c-0.222,0.088-0.531,0.244-0.93,0.465
		c-0.177,0.045-0.31,0.111-0.398,0.199c-0.177,0.045-0.443,0.133-0.797,0.266c-0.266,0.088-0.465,0.178-0.598,0.266
		c-0.222,0.045-0.421,0.088-0.598,0.133c-0.355,0.088-0.598,0.154-0.73,0.199c-0.222,0-0.376,0.021-0.465,0.066
		c-0.133,0.045-0.222,0.066-0.266,0.066l0.797-0.398c0.176-0.133,0.375-0.244,0.598-0.332c0.398-0.178,0.708-0.311,0.93-0.398
		c0.176-0.133,0.465-0.287,0.863-0.465c0.221-0.133,0.375-0.199,0.465-0.199c0.398-0.133,0.797-0.375,1.195-0.73
		c0.133-0.088,0.442-0.309,0.93-0.664c0.266-0.221,0.508-0.42,0.73-0.598l-0.266-0.398c-0.044-0.043-0.111-0.133-0.199-0.266
		c-0.133-0.176-0.222-0.375-0.266-0.598c-0.222-0.354-0.398-0.773-0.531-1.262c-0.222-0.441-0.355-1.039-0.398-1.793h-0.332
		c-0.177,0-0.289,0-0.332,0c-0.089,0-0.177,0-0.266,0l-0.531-0.531h6.043v-0.133L136.156,69.032z M130.312,62.657h0.133l1.262,0.863
		h2.457l0.73-0.863h0.199l1.195,1.195l-0.332,0.598v2.258v0.398l0.266,0.066c0.133,0.09,0.332,0.111,0.598,0.066
		c0.222,0.045,0.531,0.023,0.93-0.066c0.31-0.043,0.575-0.109,0.797-0.199c0.133-0.043,0.266-0.066,0.398-0.066l0.266,0.465
		c0.177,0.266,0.266,0.465,0.266,0.598l-0.332,0.066c-0.266,0.09-0.554,0.156-0.863,0.199c-0.398,0.09-0.753,0.111-1.063,0.066
		c-0.398,0.045-0.797,0.023-1.195-0.066c-0.398-0.043-0.775-0.133-1.129-0.266l-0.133-0.199c-0.044-0.043-0.089-0.133-0.133-0.266
		c0-0.133,0-0.242,0-0.332c-0.089,0.045-0.111-1.063-0.066-3.32h-2.855v0.93c0,0.621-0.066,1.086-0.199,1.395
		c-0.133,0.355-0.222,0.688-0.266,0.996c-0.089,0.266-0.177,0.531-0.266,0.797c-0.133,0.223-0.266,0.422-0.398,0.598
		c-0.089,0.09-0.199,0.199-0.332,0.332c-0.177,0.133-0.31,0.244-0.398,0.332c-0.355,0.223-0.687,0.422-0.996,0.598
		c-0.177,0.133-0.421,0.244-0.73,0.332h-0.133c-0.089,0.045-0.177,0.09-0.266,0.133c-0.133,0-0.222,0-0.266,0l0.332-0.266
		c0.221-0.176,0.531-0.398,0.93-0.664c0.309-0.221,0.575-0.441,0.797-0.664c0.133-0.266,0.266-0.531,0.398-0.797
		c0.088-0.309,0.176-0.752,0.266-1.328C130.268,65.911,130.312,64.606,130.312,62.657z M135.558,70.426h-4.184l0.066,0.266
		c0,0.045,0,0.111,0,0.199c0.088,0.266,0.199,0.51,0.332,0.73c0.043,0.133,0.088,0.266,0.133,0.398
		c0.176,0.311,0.309,0.531,0.398,0.664c0.043,0.133,0.133,0.266,0.266,0.398c0.088,0.178,0.176,0.311,0.266,0.398
		c0.043,0.09,0.133,0.199,0.266,0.332c0.088,0.133,0.176,0.223,0.266,0.266l0.066-0.066l0.398-0.465
		c0.043-0.088,0.11-0.199,0.199-0.332c0.221-0.309,0.375-0.553,0.465-0.73c0.088-0.176,0.288-0.553,0.598-1.129
		C135.226,71.091,135.381,70.782,135.558,70.426z"/>
	<path fill="#040000" stroke="#040000" stroke-width="0.1" stroke-miterlimit="10" d="M144.007,68.169h0.199l1.195,0.863v0.332
		l-0.398,0.398v2.789c-0.045,2.125-0.023,3.188,0.066,3.188l0.664-0.598c0.574-0.441,1.172-0.996,1.793-1.66h0.199l-0.398,0.398
		c-0.09,0.133-0.266,0.377-0.531,0.73c-0.266,0.266-0.443,0.465-0.531,0.598c-0.488,0.621-0.863,1.129-1.129,1.527
		c-0.311,0.266-0.621,0.73-0.93,1.395h-0.199l-0.863-1.063v-0.133l0.531-0.266l0.066-0.664c0-0.133,0-0.598,0-1.395
		c0-0.398,0-0.973,0-1.727c0.043-0.574,0.066-1.748,0.066-3.52h-2.125h-0.133h-0.199l-0.332-0.332h2.457L144.007,68.169z
		 M142.944,63.387h0.066c0.043,0,0.266,0.09,0.664,0.266c0.309,0.178,0.619,0.355,0.93,0.531c0.266,0.133,0.508,0.332,0.73,0.598
		c0.133,0.223,0.242,0.422,0.332,0.598c0,0.045,0,0.09,0,0.133c0.088,0.178,0.133,0.355,0.133,0.531l-0.199,0.266
		c-0.133,0.178-0.266,0.289-0.398,0.332c-0.09,0.09-0.244,0.111-0.465,0.066l-0.199-0.266c-0.133-0.176-0.266-0.465-0.398-0.863
		s-0.266-0.752-0.398-1.063C143.608,64.341,143.343,63.964,142.944,63.387z M151.112,63.188l0.332,0.199
		c0.221,0.09,0.686,0.311,1.395,0.664v0.199l-0.332,0.531v1.395v2.656h2.324l0.863-1.063h0.199l1.195,1.063v0.531h-4.582v9.164
		h-1.395v-9.164h-1.992c-1.328,0-2.016,0-2.059,0c-0.045,0-0.111,0-0.199,0l-0.531-0.531h4.781V63.188z"/>
	<path fill="#040000" stroke="#040000" stroke-width="0.1" stroke-miterlimit="10" d="M162.349,62.856l0.332,0.066
		c0,0.045,0.044,0.066,0.133,0.066c0.354,0.133,0.774,0.266,1.262,0.398v0.133l-0.398,0.531v3.652
		c-0.045,2.436-0.089,4.051-0.133,4.848c-0.133,0.887-0.266,1.506-0.398,1.859c-0.222,0.443-0.398,0.797-0.531,1.063
		c-0.133,0.178-0.266,0.377-0.398,0.598c-0.089,0.09-0.133,0.156-0.133,0.199c-0.222,0.266-0.443,0.443-0.664,0.531
		c-0.266,0.178-0.554,0.377-0.863,0.598c-0.133,0.045-0.266,0.111-0.398,0.199c-0.311,0.221-0.51,0.377-0.598,0.465
		c-0.133,0.045-0.332,0.111-0.598,0.199c-0.311,0.133-0.554,0.266-0.73,0.398v-0.133l0.332-0.266
		c0.266-0.221,0.531-0.443,0.797-0.664c0.31-0.266,0.575-0.531,0.797-0.797c0.044-0.045,0.11-0.109,0.199-0.199
		c0.088-0.088,0.266-0.242,0.531-0.465c0.221-0.266,0.442-0.531,0.664-0.797c0.133-0.309,0.266-0.641,0.398-0.996
		c0.044-0.176,0.11-0.465,0.199-0.863c-0.045,0.223-0.022,0.156,0.066-0.199c0.044-0.354,0.11-0.773,0.199-1.262
		c0-0.176,0-0.574,0-1.195c0.044-0.441,0.066-1.482,0.066-3.121c0-1.594-0.022-2.656-0.066-3.188
		C162.415,63.852,162.392,63.3,162.349,62.856z M159.493,64.981l0.398,0.133c0.044,0.045,0.11,0.09,0.199,0.133
		c0.354,0.133,0.752,0.266,1.195,0.398v0.199l-0.398,0.531v7.77l-0.465,0.199c-0.133,0.09-0.354,0.178-0.664,0.266
		c-0.133,0.045-0.222,0.066-0.266,0.066v-0.266c-0.045-0.176-0.022-1.328,0.066-3.453c0-1.018,0.021-1.836,0.066-2.457
		c0.044-0.752,0.066-1.217,0.066-1.395c0-0.221-0.066-0.84-0.199-1.859C159.493,65.159,159.493,65.071,159.493,64.981z
		 M173.306,62.989h0.199l1.195,1.063v0.531h-4.781v2.855h1.992l0.531-0.863h0.133l1.262,0.863v0.332l-0.531,0.398l0.199,6.707
		l-0.266,0.266c-0.089,0.09-0.199,0.199-0.332,0.332l-0.199,0.133c-0.133,0.045-0.266,0.111-0.398,0.199l-0.133,0.066
		c-0.222,0.09-0.377,0.111-0.465,0.066l-0.133-0.266c-0.089-0.221-0.222-0.553-0.398-0.996l-0.199-0.066
		c-0.178-0.043-0.398-0.199-0.664-0.465v-0.133l0.398,0.066c0.133,0.09,0.531,0.111,1.195,0.066l0.332-0.332V67.77h-2.324v10.758
		h-1.395l0.066-4.98c0-1.814,0.021-3.209,0.066-4.184c0.044-0.84,0.066-1.371,0.066-1.594h-2.191v7.969l-0.465,0.199
		c-0.222,0.133-0.531,0.244-0.93,0.332v-0.266c-0.045-0.176-0.022-0.996,0.066-2.457c0.088-1.727,0.133-4.006,0.133-6.84
		l1.195,0.531v0.199h2.191v-2.855h-1.793c-1.195,0-1.815,0-1.859,0c-0.089,0-0.178,0-0.266,0l-0.531-0.531h8.168L173.306,62.989z"/>
	<path fill="#040000" stroke="#040000" stroke-width="0.1" stroke-miterlimit="10" d="M181.555,73.282h0.133l1.262,0.863v0.199
		l-0.398,0.066c-0.222,0.09-0.576,0.332-1.063,0.73c-0.487,0.398-0.952,0.754-1.395,1.063c-0.487,0.266-0.952,0.531-1.395,0.797
		c-0.487,0.266-0.93,0.51-1.328,0.73c-0.178,0.045-0.311,0.088-0.398,0.133c-0.133,0.045-0.266,0.088-0.398,0.133l0.598-0.531
		c0.398-0.443,0.885-0.797,1.461-1.063c0.044,0,0.11-0.043,0.199-0.133c0.398-0.354,0.797-0.73,1.195-1.129
		c0.177-0.176,0.486-0.553,0.93-1.129C181.09,73.837,181.289,73.592,181.555,73.282z M189.656,62.856l1.262,1.395v0.199
		l-0.465-0.133c-0.266-0.043-0.465-0.066-0.598-0.066s-0.62,0.066-1.461,0.199c-0.398,0.045-1.063,0.133-1.992,0.266
		c-0.354,0.045-0.62,0.066-0.797,0.066c-1.063,0.133-1.771,0.199-2.125,0.199l1.262,0.664v0.199l-0.465,0.199
		c-0.354,0.09-0.775,0.355-1.262,0.797c-0.311,0.266-0.775,0.643-1.395,1.129c-0.133,0.09-0.222,0.156-0.266,0.199l4.184,0.133
		l0.664-0.531c0.133-0.133,0.42-0.398,0.863-0.797c0.221-0.221,0.509-0.486,0.863-0.797h0.133l1.262,1.063v0.199l-0.664,0.199
		c-0.398,0.09-0.863,0.311-1.395,0.664c-0.311,0.178-0.62,0.377-0.93,0.598c-0.311,0.223-0.643,0.443-0.996,0.664
		c-0.266,0.178-0.62,0.377-1.063,0.598c-0.398,0.223-0.775,0.443-1.129,0.664c-0.398,0.223-1.174,0.555-2.324,0.996
		c-0.222,0.09-0.398,0.156-0.531,0.199l8.5-0.133l-0.199-0.199c-0.133-0.133-0.398-0.375-0.797-0.73
		c-0.531-0.398-1.019-0.797-1.461-1.195h0.066c0.044,0,0.243,0.045,0.598,0.133c0.088,0.045,0.221,0.111,0.398,0.199
		c0.354,0.133,0.642,0.223,0.863,0.266c0.442,0.223,0.863,0.422,1.262,0.598c0.044,0.045,0.11,0.111,0.199,0.199
		c0.266,0.223,0.465,0.377,0.598,0.465c0.133,0.178,0.243,0.355,0.332,0.531c0.044,0.178,0.066,0.289,0.066,0.332
		c0,0.09-0.022,0.178-0.066,0.266c-0.045,0.09-0.199,0.266-0.465,0.531h-0.332l-0.266-0.465c-0.089-0.088-0.155-0.176-0.199-0.266
		c-0.089-0.088-0.155-0.176-0.199-0.266l-3.785,0.266v4.715l-0.465,0.332c-0.311,0.221-0.531,0.377-0.664,0.465
		c-0.089,0.088-0.155,0.154-0.199,0.199c-0.089,0-0.155,0.021-0.199,0.066c-0.133,0.088-0.266,0.154-0.398,0.199l-0.133-0.398
		c-0.045-0.088-0.066-0.154-0.066-0.199c-0.045-0.178-0.089-0.332-0.133-0.465l-0.398-0.199c-0.354-0.178-0.753-0.354-1.195-0.531
		v-0.066l0.598,0.066c0.133,0,0.31,0,0.531,0c0.221,0,0.398,0,0.531,0c0.088,0,0.266,0,0.531,0c0.133,0,0.287-0.021,0.465-0.066
		v-4.051l-1.793,0.133c-0.311,0.045-0.598,0.09-0.863,0.133c-0.62,0.045-1.218,0.111-1.793,0.199
		c-0.62,0.133-0.975,0.199-1.063,0.199l-0.133-0.531c-0.089-0.309-0.111-0.553-0.066-0.73l0.598-0.066
		c0.398-0.043,0.841-0.199,1.328-0.465c0.177-0.088,0.531-0.266,1.063-0.531c0.221-0.133,0.398-0.242,0.531-0.332
		c0.31-0.176,1.084-0.686,2.324-1.527c0.221-0.133,0.486-0.309,0.797-0.531l-1.129,0.133c-0.354,0.045-0.709,0.09-1.063,0.133
		c-0.576,0.09-0.996,0.133-1.262,0.133c-0.797,0.09-1.262,0.111-1.395,0.066l-0.266-0.465c-0.222-0.266-0.311-0.465-0.266-0.598
		l0.398-0.066c0.177,0,0.42-0.109,0.73-0.332c0.088-0.043,0.154-0.088,0.199-0.133c0.266-0.266,0.598-0.598,0.996-0.996
		c0.133-0.133,0.332-0.375,0.598-0.73c0.133-0.176,0.332-0.42,0.598-0.73l-5.977,0.133v-0.133l1.594-0.199c0.088,0,0.243,0,0.465,0
		c1.283-0.176,2.302-0.332,3.055-0.465c1.239-0.176,2.435-0.375,3.586-0.598c1.106-0.266,1.97-0.465,2.59-0.598
		C189.169,62.946,189.523,62.856,189.656,62.856z M186.137,73.481h0.066c0.044,0,0.287,0.045,0.73,0.133
		c0.133,0.09,0.398,0.199,0.797,0.332c0.221,0.09,0.42,0.156,0.598,0.199c0.133,0.09,0.266,0.156,0.398,0.199
		c0.266,0.133,0.598,0.311,0.996,0.531c0.398,0.223,0.752,0.465,1.063,0.73c0.31,0.223,0.486,0.422,0.531,0.598
		c0.044,0.223,0.088,0.398,0.133,0.531c0,0.133-0.111,0.42-0.332,0.863h-0.398l-0.332-0.531c-0.266-0.266-0.62-0.641-1.063-1.129
		c-0.487-0.441-1.019-0.885-1.594-1.328c-0.222-0.133-0.487-0.309-0.797-0.531C186.579,73.858,186.313,73.659,186.137,73.481z"/>
	<path fill="#040000" stroke="#040000" stroke-width="0.1" stroke-miterlimit="10" d="M202.487,63.188h0.199l1.262,1.063v0.531
		h-4.516L199.3,65.18c-0.045,0.09-0.111,0.223-0.199,0.398c-0.133,0.443-0.244,0.775-0.332,0.996
		c-0.045,0.09-0.089,0.178-0.133,0.266c-0.222,0.443-0.311,0.709-0.266,0.797h2.391l0.664-0.73h0.199l1.063,0.73v0.332l-0.531,0.332
		l-0.266,0.996c-0.045,0.178-0.111,0.377-0.199,0.598c-0.089,0.266-0.199,0.664-0.332,1.195c-0.222,0.531-0.443,1.02-0.664,1.461
		c-0.222,0.488-0.443,0.908-0.664,1.262c-0.266,0.355-0.531,0.688-0.797,0.996c-0.354,0.266-0.687,0.555-0.996,0.863
		c-0.133,0.133-0.311,0.266-0.531,0.398c-0.266,0.178-0.443,0.311-0.531,0.398c-0.133,0.09-0.311,0.178-0.531,0.266
		c-0.266,0.088-0.443,0.178-0.531,0.266c-0.089,0-0.222,0.045-0.398,0.133c-0.398,0.133-0.709,0.266-0.93,0.398
		c-0.266,0.045-0.487,0.088-0.664,0.133c-0.133,0.088-0.222,0.133-0.266,0.133l0.664-0.465c0.133-0.133,0.354-0.287,0.664-0.465
		c0.31-0.088,0.553-0.199,0.73-0.332c0.442-0.266,0.885-0.574,1.328-0.93c0.398-0.398,0.752-0.797,1.063-1.195
		c0.31-0.398,0.575-0.773,0.797-1.129c0.221-0.309,0.442-0.686,0.664-1.129c0.133-0.441,0.266-0.84,0.398-1.195
		c0.088-0.266,0.266-1.217,0.531-2.855h-2.59l-0.266,0.664c-0.222,0.443-0.487,0.887-0.797,1.328
		c-0.398,0.488-0.753,0.908-1.063,1.262c-0.487,0.443-1.085,0.908-1.793,1.395h-0.199l0.73-0.797
		c0.442-0.531,0.818-1.039,1.129-1.527c0.266-0.441,0.531-0.906,0.797-1.395c0.088-0.176,0.243-0.465,0.465-0.863
		c0.088-0.221,0.154-0.375,0.199-0.465c0.044-0.133,0.11-0.332,0.199-0.598c0.044-0.266,0.11-0.486,0.199-0.664
		c0.088-0.221,0.199-0.773,0.332-1.66h-1.328c-0.886,0-1.351,0-1.395,0c-0.089,0-0.178,0-0.266,0l-0.531-0.531h7.105L202.487,63.188
		z M197.374,70.094h0.066c0.044,0,0.177,0.066,0.398,0.199c0.133,0.09,0.266,0.199,0.398,0.332c0.044,0.09,0.11,0.199,0.199,0.332
		c0.044,0.09,0.088,0.133,0.133,0.133c0.088,0.133,0.177,0.266,0.266,0.398c0.044,0.133,0.088,0.289,0.133,0.465
		c0,0.133-0.045,0.289-0.133,0.465c-0.045,0.09-0.066,0.199-0.066,0.332l-0.266,0.199c-0.045,0.045-0.089,0.066-0.133,0.066
		c-0.178,0.09-0.332,0.111-0.465,0.066l-0.133-0.664c-0.045-0.088-0.066-0.266-0.066-0.531c-0.045-0.266-0.066-0.441-0.066-0.531
		C197.551,71.048,197.462,70.626,197.374,70.094z M204.479,65.114l0.398,0.199c0.044,0.045,0.154,0.111,0.332,0.199
		c0.354,0.133,0.686,0.244,0.996,0.332v0.199l-0.332,0.531v7.438l-0.664,0.133c-0.398,0.133-0.643,0.199-0.73,0.199V65.114z
		 M207.8,62.657l0.332,0.199c0.088,0,0.575,0.223,1.461,0.664v0.199l-0.398,0.531v1.063c-0.045,1.859-0.022,5.844,0.066,11.953
		l-0.465,0.332c-0.178,0.088-0.443,0.266-0.797,0.531c-0.178,0.133-0.421,0.311-0.73,0.531h-0.133l-0.133-0.332
		c-0.089-0.266-0.199-0.465-0.332-0.598c-0.222-0.221-0.443-0.377-0.664-0.465c-0.178-0.133-0.643-0.311-1.395-0.531v-0.066
		l0.996,0.066c0.266,0,0.575,0,0.93,0c0.177,0,0.31,0,0.398,0c0.044,0,0.154,0,0.332,0c0.133,0,0.31-0.021,0.531-0.066V62.657z"/>
	<path fill="#040000" stroke="#040000" stroke-width="0.1" stroke-miterlimit="10" d="M215.716,63.188h0.133l1.461,1.063v0.199
		l-0.73,0.332l-0.398,0.598c-0.311,0.576-0.709,1.352-1.195,2.324l0.863,0.598v0.199l-0.199,0.332v9.297l-0.465,0.199
		c-0.222,0.088-0.531,0.199-0.93,0.332v-0.266c-0.045-0.221-0.022-1.24,0.066-3.055c0-0.133,0-0.332,0-0.598
		c0.088-2.035,0.133-4.072,0.133-6.109l-0.465,0.598c-0.311,0.488-0.576,0.842-0.797,1.063c-0.089,0.133-0.178,0.266-0.266,0.398
		c-0.398,0.531-0.842,1.041-1.328,1.527h-0.133l0.398-0.598c0.088-0.133,0.177-0.287,0.266-0.465c0.31-0.486,0.553-0.906,0.73-1.262
		c0.088-0.221,0.243-0.553,0.465-0.996c0.177-0.441,0.332-0.773,0.465-0.996c0.088-0.221,0.266-0.619,0.531-1.195
		c0.133-0.398,0.266-0.707,0.398-0.93c0.088-0.354,0.266-0.863,0.531-1.527C215.428,63.809,215.583,63.454,215.716,63.188z
		 M219.966,62.856h0.066c0.088,0,0.708,0.223,1.859,0.664v0.199l-0.266,0.332c-0.222,0.266-0.354,0.621-0.398,1.063
		c-0.089,0.488-0.111,0.82-0.066,0.996c-0.045,0.223-0.022,0.576,0.066,1.063c0,0.223,0.066,0.688,0.199,1.395l3.652-0.598
		l0.73-1.063h0.133l1.461,1.262v0.133L224.88,68.7c-1.683,0.223-2.812,0.377-3.387,0.465v0.332c0,0.311,0.066,0.754,0.199,1.328
		c0.088,0.621,0.243,1.174,0.465,1.66c0.133,0.576,0.31,1.02,0.531,1.328c0.133,0.355,0.332,0.688,0.598,0.996
		c0.088,0.133,0.199,0.266,0.332,0.398c0.133,0.178,0.266,0.311,0.398,0.398c0.177,0.223,0.442,0.422,0.797,0.598
		c0.088,0.09,0.243,0.199,0.465,0.332c0.088,0.09,0.177,0.133,0.266,0.133c0.133,0.045,0.266,0.066,0.398,0.066l0.199-0.199
		c0.088-0.176,0.154-0.375,0.199-0.598c0.044-0.088,0.088-0.176,0.133-0.266c0.133-0.441,0.376-0.996,0.73-1.66h0.199l-0.199,0.863
		c-0.133,0.576-0.199,0.953-0.199,1.129c-0.045,0.178-0.022,0.422,0.066,0.73c0.044,0.178,0.177,0.443,0.398,0.797
		c0.044,0.088,0.088,0.178,0.133,0.266c0.044,0.088,0.088,0.178,0.133,0.266l-0.066,0.133c-0.045,0.045-0.089,0.154-0.133,0.332
		h-0.066c-0.045,0-0.133-0.021-0.266-0.066c-0.089-0.045-0.178-0.066-0.266-0.066c-0.178-0.045-0.443-0.133-0.797-0.266
		c-0.089-0.045-0.178-0.066-0.266-0.066c-0.133-0.088-0.244-0.154-0.332-0.199c-0.222-0.088-0.531-0.244-0.93-0.465
		s-0.73-0.42-0.996-0.598c-0.222-0.088-0.443-0.266-0.664-0.531c-0.266-0.221-0.465-0.441-0.598-0.664
		c-0.222-0.266-0.398-0.531-0.531-0.797c-0.222-0.309-0.398-0.707-0.531-1.195c-0.222-0.441-0.354-0.773-0.398-0.996
		c-0.045-0.133-0.066-0.242-0.066-0.332c-0.178-0.354-0.354-1.35-0.531-2.988l-1.129,0.133c-0.797,0.09-1.351,0.156-1.66,0.199
		c-0.089,0.045-0.155,0.066-0.199,0.066c-0.133,0.045-0.266,0.066-0.398,0.066l-0.531-0.531l3.852-0.465l-0.066-0.863
		c-0.045-0.133-0.089-0.773-0.133-1.926C219.987,64.827,219.966,63.786,219.966,62.856z M222.622,63.919h0.066
		c0.044,0,0.221,0.023,0.531,0.066c0,0.045,0.066,0.066,0.199,0.066c0.133,0.045,0.398,0.111,0.797,0.199
		c0.088,0.045,0.177,0.09,0.266,0.133c0.221,0.09,0.398,0.156,0.531,0.199c0.133,0.133,0.266,0.289,0.398,0.465
		c0.133,0.178,0.199,0.355,0.199,0.531c0,0.133-0.045,0.289-0.133,0.465c-0.045,0.09-0.066,0.199-0.066,0.332l-0.266,0.199
		c-0.045,0.045-0.089,0.066-0.133,0.066c-0.178,0.09-0.332,0.111-0.465,0.066l-0.199-0.398c-0.089-0.088-0.155-0.242-0.199-0.465
		c-0.089-0.176-0.155-0.332-0.199-0.465C223.684,65.071,223.241,64.583,222.622,63.919z"/>
	<path fill="#040000" stroke="#040000" stroke-width="0.1" stroke-miterlimit="10" d="M243.422,64.251h0.133l0.266,0.266
		c0.177,0.266,0.575,0.598,1.195,0.996v0.465h-7.371c-4.914,0-7.394,0-7.438,0c-0.045,0-0.089,0.023-0.133,0.066
		c-0.045,0-0.089,0-0.133,0l-0.531-0.531h12.949L243.422,64.251z M241.098,66.907h0.199l1.195,1.063v0.531h-4.848
		c-3.276,0-4.937,0-4.98,0c-0.089,0-0.178,0-0.266,0l-0.531-0.531h8.367L241.098,66.907z M241.098,69.563h0.199l1.195,1.063v0.531
		h-4.848c-3.276,0-4.937,0-4.98,0c-0.089,0-0.178,0-0.266,0l-0.531-0.531h8.367L241.098,69.563z M232.398,72.219h0.199l1.195,0.863
		h6.441l0.531-0.664h0.133l0.266,0.133c0.088,0.09,0.266,0.266,0.531,0.531c0.133,0.09,0.287,0.199,0.465,0.332l-0.398,0.598v4.316
		h-1.395v-1.262h-6.574v1.262h-1.395V72.219z M240.367,76.669v-3.254h-6.574v3.254H240.367z M235.453,62.657h0.066
		c0.044,0,0.221,0.023,0.531,0.066c0,0.045,0.044,0.066,0.133,0.066c0.177,0.045,0.42,0.111,0.73,0.199
		c0.266,0.133,0.509,0.266,0.73,0.398c0.133,0.09,0.243,0.199,0.332,0.332c0,0.045,0,0.09,0,0.133
		c0.088,0.09,0.133,0.156,0.133,0.199c-0.045,0.133-0.089,0.266-0.133,0.398c-0.045,0.045-0.089,0.09-0.133,0.133
		c-0.045,0.09-0.089,0.156-0.133,0.199c-0.133,0.133-0.244,0.223-0.332,0.266c-0.133,0.09-0.266,0.111-0.398,0.066
		c-0.133,0.045-0.288,0-0.465-0.133l-0.133-0.398c-0.045,0-0.066-0.021-0.066-0.066c-0.045-0.176-0.111-0.375-0.199-0.598
		C235.939,63.61,235.719,63.188,235.453,62.657z"/>
	<path fill="#040000" stroke="#040000" stroke-width="0.1" stroke-miterlimit="10" d="M253.729,62.989l1.992,0.93v0.133
		l-0.199,0.266c-0.089,0.09-0.155,0.178-0.199,0.266c-0.045,0.133-0.089,0.223-0.133,0.266l0.066,0.664c0,0.178,0,0.377,0,0.598
		c0.044,0.311,0.088,0.51,0.133,0.598c0,0.09,0,0.199,0,0.332c0.088,0.398,0.177,0.709,0.266,0.93c0,0.09,0.021,0.199,0.066,0.332
		c0.044,0.266,0.177,0.664,0.398,1.195c0.177,0.531,0.376,1.063,0.598,1.594c0.044,0.133,0.088,0.266,0.133,0.398
		c0.133,0.266,0.332,0.598,0.598,0.996c0.266,0.443,0.531,0.82,0.797,1.129c0.088,0.133,0.221,0.311,0.398,0.531
		c0.177,0.223,0.332,0.377,0.465,0.465c0.088,0.133,0.243,0.266,0.465,0.398c0.177,0.178,0.332,0.311,0.465,0.398
		c0.266,0.223,0.531,0.422,0.797,0.598c0.088,0.133,0.287,0.289,0.598,0.465c0.044,0.045,0.11,0.066,0.199,0.066
		c0.088,0.09,0.287,0.156,0.598,0.199c0.177,0.088,0.42,0.199,0.73,0.332v0.199l-0.398,0.066c-0.222,0.045-0.421,0.133-0.598,0.266
		c-0.133,0.045-0.398,0.287-0.797,0.73h-0.133l-0.531-0.465c-0.398-0.311-0.797-0.619-1.195-0.93
		c-0.398-0.266-0.73-0.574-0.996-0.93c-0.045,0-0.089-0.043-0.133-0.133c-0.133-0.176-0.311-0.441-0.531-0.797
		c-0.133-0.133-0.266-0.332-0.398-0.598c-0.133-0.221-0.244-0.42-0.332-0.598c-0.266-0.398-0.465-0.84-0.598-1.328
		c-0.222-0.441-0.354-0.773-0.398-0.996c-0.045-0.133-0.066-0.242-0.066-0.332c-0.089-0.133-0.155-0.354-0.199-0.664
		c-0.089-0.266-0.133-0.486-0.133-0.664c-0.133-0.441-0.222-0.906-0.266-1.395c-0.045-0.221-0.155-1.195-0.332-2.922l-0.066,0.73
		c-0.045,0.223-0.066,0.488-0.066,0.797c-0.045,0.355-0.066,0.621-0.066,0.797c-0.089,0.531-0.155,1.02-0.199,1.461
		c-0.045,0.045-0.066,0.111-0.066,0.199c-0.045,0.355-0.111,0.775-0.199,1.262c-0.133,0.488-0.266,0.953-0.398,1.395
		c-0.089,0.178-0.155,0.332-0.199,0.465c-0.089,0.178-0.199,0.443-0.332,0.797c-0.089,0.133-0.244,0.332-0.465,0.598
		c-0.133,0.223-0.222,0.377-0.266,0.465c-0.089,0.09-0.199,0.223-0.332,0.398c-0.089,0.09-0.288,0.266-0.598,0.531
		c-0.311,0.355-0.598,0.621-0.863,0.797c-0.311,0.266-0.664,0.465-1.063,0.598c-0.178,0.088-0.443,0.221-0.797,0.398
		c-0.178,0.088-0.354,0.199-0.531,0.332c-0.266,0.133-0.775,0.311-1.527,0.531c-0.133,0.045-0.266,0.111-0.398,0.199V78.13
		l0.332-0.199c0.221-0.133,0.531-0.311,0.93-0.531c0.31-0.221,0.686-0.443,1.129-0.664c0.133-0.088,0.354-0.242,0.664-0.465
		c0.177-0.176,0.332-0.309,0.465-0.398c0.31-0.309,0.642-0.641,0.996-0.996c0.088-0.088,0.221-0.266,0.398-0.531
		c0.133-0.221,0.266-0.398,0.398-0.531c0.177-0.354,0.376-0.773,0.598-1.262c0.177-0.441,0.287-0.773,0.332-0.996
		c0.044-0.088,0.088-0.199,0.133-0.332c0.044-0.176,0.11-0.508,0.199-0.996c0.044-0.176,0.088-0.375,0.133-0.598
		c0.088-0.619,0.177-1.195,0.266-1.727c0.044-0.531,0.11-1.15,0.199-1.859c0-0.309,0-0.664,0-1.063
		C253.707,64.716,253.729,64.051,253.729,62.989z"/>
</g>
</svg>
