<?xml version="1.0" encoding="utf-8"?>
<!-- Generator: Adobe Illustrator 23.0.1, SVG Export Plug-In . SVG Version: 6.00 Build 0)  -->
<svg version="1.1" id="图层_1" xmlns="http://www.w3.org/2000/svg" xmlns:xlink="http://www.w3.org/1999/xlink" x="0px" y="0px"
	 viewBox="0 0 408.474 101.538" enable-background="new 0 0 408.474 101.538" xml:space="preserve">
<g>
	<path fill="#FFFFFF" stroke="#FFFFFF" stroke-width="0.3" stroke-miterlimit="10" d="M9.702,0.223
		c3.587,1.242,5.383,1.935,5.383,2.07l-0.828,0.828c-0.967,0.692-1.449,1.106-1.449,1.242v8.695h2.898l2.07-2.898l3.727,3.727
		l-0.207,0.414h-8.488v7.039c3.862,1.795,6.072,3.313,6.625,4.555c0.275,3.037-0.553,4.141-2.484,3.313
		c0-0.136-0.071-0.343-0.207-0.621c-0.967-3.034-2.277-4.969-3.934-5.797l0.207,24.844c-1.106,0.964-2.417,1.585-3.934,1.863
		c0.275-5.107,0.482-14.146,0.621-27.121c-4.28,7.178-7.317,11.665-9.109,13.457l-0.414-0.621c4.141-6.625,7.314-13.593,9.523-20.91
		H4.526l-2.277,0.207l-1.035-1.449h8.902C10.116,6.298,9.977,2.018,9.702,0.223z M39.929,3.536c2.07,1.242,3.52,2.484,4.348,3.727
		c0,0.139-0.278,0.207-0.828,0.207c-1.795,0.139-3.177,0.692-4.141,1.656c-2.209,2.07-6.832,6.282-13.871,12.629h18.012
		c1.103-1.378,1.792-2.139,2.07-2.277c1.656,1.381,3.034,2.763,4.141,4.141c0,0.139-0.485,0.346-1.449,0.621l-1.242,0.621
		C46,37.696,44.965,44.735,43.862,45.977c-1.521,2.07-3.591,3.448-6.211,4.141l-0.207-0.414c-0.278-2.349-2.277-4.005-6.004-4.969
		l0.207-0.621c0.55,0.136,1.449,0.275,2.691,0.414c3.173,0.689,5.104,0.828,5.797,0.414c1.656-1.242,2.898-8.557,3.727-21.945
		h-3.934c-2.624,12.975-10.491,21.393-23.602,25.258l-0.414-0.828c11.594-4.83,18.426-12.972,20.496-24.43h-4.762
		c-3.591,8.695-9.042,14.906-16.355,18.633l-0.414-0.621c6.486-4.416,10.833-10.42,13.043-18.012h-3.313
		c-0.139,0-0.899,0.621-2.277,1.863c-1.935-1.792-2.898-2.76-2.898-2.898l0.414-0.207c1.242-0.275,2.277-0.757,3.105-1.449
		c2.898-2.484,7.453-6.832,13.664-13.043H23.987l-2.691,0.414L20.054,6.02h17.598C38.479,5.192,39.236,4.364,39.929,3.536z"/>
	<path fill="#FFFFFF" stroke="#FFFFFF" stroke-width="0.3" stroke-miterlimit="10" d="M68.457,7.469l3.727,2.07H90.61
		c1.378-1.518,1.999-2.139,1.863-1.863c0.136,0,0.55,0.278,1.242,0.828c0.828,0.692,1.585,1.381,2.277,2.07l-1.656,1.656v10.145
		c-0.553,0.828-1.588,1.242-3.105,1.242V21.34H79.844c-0.414,0.692-1.381,2.142-2.898,4.348h21.738l2.691-3.105l4.348,3.727
		l-0.414,0.621H88.746c3.034,4.141,8.831,6.832,17.391,8.074v0.414c-1.935,0.139-3.452,1.035-4.555,2.691
		c-2.07-0.828-4.212-1.792-6.418-2.898c-0.828,0.414-1.313,0.967-1.449,1.656c0,0.139,0,0.485,0,1.035
		c0.275,4.141,0.275,6.418,0,6.832c-0.967,1.792-2.277,2.76-3.934,2.898l-0.207-0.414c-0.414-1.935-2.07-3.037-4.969-3.313
		l0.207-0.621c3.173,0.414,5.104,0.414,5.797,0c0.275-0.414,0.343-3.174,0.207-8.281h-8.695v13.664
		c-0.553,0.964-1.588,1.518-3.105,1.656v-15.32h-6.418c-1.242-0.275-1.728,0.346-1.449,1.863v7.867
		c-0.692,1.242-1.728,1.725-3.105,1.449l0.207-12.629c-4.694,2.898-8.695,4.833-12.008,5.797l-0.207-0.621
		c8.417-4.276,13.871-8.21,16.355-11.801H59.969l-2.277,0.621l-0.828-1.863h16.148c0.414-0.275,1.103-1.171,2.07-2.691
		c0.275-0.689,0.55-1.242,0.828-1.656h-4.555v1.449c-0.828,0.828-1.863,1.242-3.105,1.242L68.457,7.469z M63.282,1.672h0.414
		c0.414,0.967,0.55,1.795,0.414,2.484h33.953c0.136,0,0.482-0.343,1.035-1.035c0.689-0.828,1.171-1.242,1.449-1.242
		c1.931,1.656,3.448,3.105,4.555,4.348l-0.621,0.207c-2.898,0.139-5.315,1.521-7.246,4.141l-0.414-0.207
		c1.103-2.484,1.656-4.141,1.656-4.969h-34.16c-0.139,2.349-0.553,4.072-1.242,5.176c-1.795,1.381-3.313,1.313-4.555-0.207
		c0-0.414,0.343-1.104,1.035-2.07C61.347,6.227,62.589,4.021,63.282,1.672z M87.09,26.93H75.91c-1.521,2.07-3.659,4.005-6.418,5.797
		l1.863,1.035h7.66v-5.59l4.969,2.277c0,0.139-0.278,0.346-0.828,0.621c-0.692,0.553-1.035,0.967-1.035,1.242v1.449h8.074
		l1.449-1.449C89.575,30.795,88.054,29,87.09,26.93z M91.231,10.782H73.426c-1.656-0.136-2.349,0.414-2.07,1.656v2.277h19.875
		V10.782z M91.231,15.957H71.356v4.141h19.875V15.957z"/>
</g>
<g>
	<path fill="#FFFFFF" stroke="#FFFFFF" stroke-width="0.1" stroke-miterlimit="10" d="M26.204,77.843l2.531,2.32l-0.105,0.211
		h-9.809v8.227h4.852l1.16-1.582l2.215,2.109v0.105h-8.227v9.809h6.75l1.266-1.688l2.953,2.109l-0.105,0.211H7.22l-1.582,0.211
		l-0.844-0.844h5.063V89.55l-0.105-4.008c0.14,0.071,0.316,0.142,0.527,0.211c1.546,0.563,2.284,0.88,2.215,0.949
		c0,0.142-0.316,0.458-0.949,0.949v11.391h5.379V80.374H9.118l-1.582,0.422l-0.844-1.055h18.246L26.204,77.843z"/>
	<path fill="#FFFFFF" stroke="#FFFFFF" stroke-width="0.1" stroke-miterlimit="10" d="M42.763,86.597l2.215,2.004v0.211h-5.273
		v7.383c1.195-0.28,2.601-0.597,4.219-0.949c1.828-0.491,2.777-0.702,2.848-0.633v0.316c-0.704,0.282-2.708,0.985-6.012,2.109
		c-4.219,1.337-6.892,2.215-8.016,2.637c-0.704-0.985-1.055-1.616-1.055-1.898c0.844,0.071,2.953-0.316,6.328-1.16v-7.805h-3.27
		l-1.477,0.316l-0.527-0.949h8.754L42.763,86.597z M45.294,76.261c1.055,0.353,2.073,0.844,3.059,1.477l-0.422,0.316
		c-0.422,0.282-0.633,0.458-0.633,0.527c-0.071,1.407-0.071,2.742,0,4.008h5.695l1.371-1.793l2.531,2.109l-0.105,0.316h-9.492
		c0.069,7.876,2.426,13.009,7.066,15.398c0.28-0.351,0.738-1.757,1.371-4.219l0.316,0.211c-0.633,2.462-0.563,4.464,0.211,6.012
		c0.211,0.28,0.28,0.491,0.211,0.633c-2.462-0.071-5.204-2.146-8.227-6.223c-1.547-3.375-2.391-7.312-2.531-11.813H34.642
		l-1.371,0.316l-0.844-0.949h13.184C45.4,79.286,45.294,77.176,45.294,76.261z M49.408,77.632c1.968,0.493,3.164,1.126,3.586,1.898
		c0.28,1.337-0.071,2.004-1.055,2.004c-0.142-0.069-0.282-0.316-0.422-0.738c-0.422-1.405-1.16-2.39-2.215-2.953L49.408,77.632z"/>
	<path fill="#FFFFFF" stroke="#FFFFFF" stroke-width="0.1" stroke-miterlimit="10" d="M71.661,76.367
		c1.828,0.493,2.742,0.81,2.742,0.949c0,0.071-0.105,0.177-0.316,0.316c-0.282,0.142-0.422,0.353-0.422,0.633
		c0,0.844,0,2.146,0,3.902h6.117l1.266-1.688l2.32,2.004l-0.105,0.211h-9.598c0.28,4.36,1.019,7.876,2.215,10.547
		c1.406-2.671,2.284-5.59,2.637-8.754c1.688,0.704,2.531,1.126,2.531,1.266c0,0.142-0.105,0.211-0.316,0.211
		c-0.282,0.071-0.458,0.247-0.527,0.527l-0.211,0.527c-1.266,3.586-2.356,6.117-3.27,7.594c1.266,1.829,2.812,3.13,4.641,3.902
		c0.211,0.28,0.773-1.335,1.688-4.852l0.316,0.105c-0.282,1.829-0.353,3.375-0.211,4.641c0.069,0.702,0.28,1.371,0.633,2.004
		c0.211,0.351,0.246,0.562,0.105,0.633c-2.04,0.351-4.782-1.337-8.227-5.063c-2.251,2.04-5.028,3.655-8.332,4.852l-0.105-0.316
		c3.093-1.407,5.659-3.339,7.699-5.801c-1.758-3.164-2.708-7.172-2.848-12.023h-7.172c-0.633,0-0.949,0.316-0.949,0.949v3.797h4.219
		l0.316-0.422c0.28-0.422,0.457-0.633,0.527-0.633c1.124,0.633,1.793,1.126,2.004,1.477c0,0.142-0.211,0.316-0.633,0.527
		l-0.316,0.211c-0.071,3.164-0.282,5.942-0.633,8.332c-0.282,0.985-1.231,1.651-2.848,2.004c-0.071-0.913-1.055-1.651-2.953-2.215
		l0.105-0.422c2.742,0.633,4.148,0.599,4.219-0.105c0.28-2.038,0.422-4.746,0.422-8.121h-4.43c0.28,6.328-1.442,10.616-5.168,12.867
		l-0.211-0.211c2.671-2.251,3.937-6.081,3.797-11.496c0-4.288-0.036-7.03-0.105-8.227l2.215,1.16h7.594
		C71.872,78.934,71.731,76.999,71.661,76.367z M75.353,77.421c2.179,0.282,3.621,0.81,4.324,1.582
		c0.351,1.266,0.069,2.04-0.844,2.32c-0.071,0-0.176-0.14-0.316-0.422c-0.704-1.266-1.758-2.354-3.164-3.27V77.421z"/>
	<path fill="#FFFFFF" stroke="#FFFFFF" stroke-width="0.1" stroke-miterlimit="10" d="M98.24,76.367
		c0.913,0.353,2.004,0.844,3.27,1.477l-0.211,0.105c-0.633,0.353-0.985,0.704-1.055,1.055c-0.142,0.353-0.353,1.618-0.633,3.797
		c-0.142,0.774-0.247,1.371-0.316,1.793l7.594-0.105l1.16-1.582l2.32,2.215l-0.211,0.211c-0.493,0.282-0.88,0.563-1.16,0.844
		c-0.282,1.759-0.633,4.044-1.055,6.855c-0.353,3.446-0.738,5.413-1.16,5.906c-0.774,1.194-2.04,1.968-3.797,2.32v-0.105
		c-0.071-1.337-1.336-2.251-3.797-2.742l0.105-0.211c3.797,0.633,5.835,0.456,6.117-0.527c0.562-1.477,1.229-5.659,2.004-12.551
		l-8.227,0.105c-0.211,1.337-0.422,2.462-0.633,3.375c2.109,0.985,3.621,1.898,4.535,2.742c0.844,1.055,0.702,2.075-0.422,3.059
		c-0.282,0.071-0.563-0.245-0.844-0.949c-0.704-1.827-1.829-3.304-3.375-4.43c-1.407,5.978-5.415,10.089-12.023,12.34l-0.105-0.422
		c6.608-2.953,10.336-8.19,11.18-15.715l-8.648,0.105l-1.16,0.211l-0.422-0.844l10.336-0.105
		C97.958,82.415,98.169,79.672,98.24,76.367z M90.646,78.16c2.179,1.126,3.55,2.109,4.113,2.953
		c0.351,0.985,0.069,1.829-0.844,2.531c-0.282,0.142-0.563-0.175-0.844-0.949c-0.563-1.688-1.442-3.093-2.637-4.219L90.646,78.16z"
		/>
	<path fill="#FFFFFF" stroke="#FFFFFF" stroke-width="0.1" stroke-miterlimit="10" d="M113.322,82.8
		c1.335,0.493,2.46,1.16,3.375,2.004c0.28,0.493,0.175,1.126-0.316,1.898c-0.493,0.563-0.844,0.527-1.055-0.105
		c-0.282-1.194-1.055-2.39-2.32-3.586L113.322,82.8z M120.493,80.48l0.422,0.105c-2.391,7.313-3.728,11.778-4.008,13.395
		c-0.142,0.704-0.142,1.97,0,3.797c0.14,1.055,0.175,1.688,0.105,1.898c-1.266,0.702-2.004,0.28-2.215-1.266
		c0.562-2.038,0.773-3.444,0.633-4.219c-0.071-0.562-0.844-1.019-2.32-1.371v-0.422c1.546,0.282,2.426,0.247,2.637-0.105
		C116.45,91.731,118.032,87.793,120.493,80.48z M115.326,77.316c1.898,0.774,2.988,1.407,3.27,1.898
		c0.422,0.563,0.422,1.196,0,1.898c-0.563,0.844-0.985,0.915-1.266,0.211c-0.353-1.477-1.091-2.742-2.215-3.797L115.326,77.316z
		 M127.982,76.156c1.828,0.844,2.742,1.302,2.742,1.371c-0.071,0.071-0.458,0.316-1.16,0.738v3.27h4.535l0.422-0.422
		c0.422-0.422,0.667-0.633,0.738-0.633c1.406,1.055,2.179,1.724,2.32,2.004c-0.071,0.071-0.211,0.105-0.422,0.105
		c-1.336,0.071-2.778,0.949-4.324,2.637l-0.211-0.211l1.582-2.848h-4.641v5.695h2.637c0.491-0.772,0.773-1.16,0.844-1.16
		c1.124,0.844,1.793,1.442,2.004,1.793l-0.422,0.211c-0.493,0.282-0.738,0.458-0.738,0.527c-1.266,2.953-2.497,5.134-3.691,6.539
		c2.25,1.688,4.921,2.742,8.016,3.164v0.316c-1.547,0.14-2.531,0.562-2.953,1.266l-0.105,0.211
		c-2.602-1.266-4.571-2.601-5.906-4.008c-2.813,2.179-5.977,3.691-9.492,4.535l-0.105-0.316c3.866-1.548,6.785-3.304,8.754-5.273
		c-1.407-1.827-2.356-4.253-2.848-7.277h-2.109c-0.142,3.797-0.633,6.505-1.477,8.121c-0.915,1.829-2.602,3.48-5.063,4.957
		l-0.211-0.211c2.46-1.898,3.972-4.113,4.535-6.645c0.702-2.39,0.949-7.136,0.738-14.238c0.14,0.071,0.773,0.458,1.898,1.16h4.113
		V76.156z M127.982,82.167h-3.797c-0.422-0.069-0.633,0.388-0.633,1.371c0,0.422,0,1.126,0,2.109
		c-0.071,1.055-0.105,1.793-0.105,2.215h4.535V82.167z M132.201,88.39h-6.223c0.913,2.673,2.004,4.782,3.27,6.328
		C130.724,92.609,131.708,90.499,132.201,88.39z"/>
	<path fill="#FFFFFF" stroke="#FFFFFF" stroke-width="0.1" stroke-miterlimit="10" d="M155.72,81.64l2.109,2.004v0.211h-15.293
		l-0.844,0.211l-0.633-0.844h13.289L155.72,81.64z M160.783,76.789c1.124,0.704,1.862,1.302,2.215,1.793l-0.316,0.211
		c-0.493,0.282-0.738,0.493-0.738,0.633c0,1.266,0.034,3.341,0.105,6.223c0.069,7.383,0.14,11.638,0.211,12.762
		c-0.142,1.055-1.266,1.862-3.375,2.426c0.14-1.337-1.16-2.181-3.902-2.531v-0.422c3.937,0.422,5.729,0.388,5.379-0.105
		c0-7.733-0.071-14.062-0.211-18.984h-15.398l-0.949,0.211l-0.633-0.844h16.559c0.069,0,0.28-0.245,0.633-0.738
		C160.572,76.999,160.711,76.789,160.783,76.789z M153.505,86.175c0.211,0,0.949,0.493,2.215,1.477c0,0.071-0.177,0.247-0.527,0.527
		c-0.353,0.211-0.527,0.388-0.527,0.527l0.105,6.434c-0.422,0.282-0.985,0.527-1.688,0.738v-1.793h-6.961v2.848
		c-0.633,0.422-1.231,0.669-1.793,0.738l0.105-11.496l2.004,1.266h6.328c0.069,0,0.211-0.211,0.422-0.633
		C153.329,86.386,153.434,86.175,153.505,86.175z M153.083,88.074h-6.539c-0.282,0-0.422,0.142-0.422,0.422v4.957h6.961V88.074z"/>
	<path fill="#FFFFFF" stroke="#FFFFFF" stroke-width="0.1" stroke-miterlimit="10" d="M179.24,79.32
		c0,0.071-0.105,0.142-0.316,0.211c-0.422,0.142-0.704,0.388-0.844,0.738c-2.603,5.626-6.364,9.492-11.285,11.602l-0.211-0.316
		c5.132-3.093,8.438-7.136,9.914-12.129h-5.168l-0.949,0.211l-0.527-0.844h6.539c0.14,0,0.386-0.28,0.738-0.844l0.316-0.316
		C177.868,77.774,178.465,78.336,179.24,79.32z M182.404,95.246c1.405,0.633,2.109,1.021,2.109,1.16
		c-0.071,0.071-0.211,0.177-0.422,0.316c-0.915,0.633-1.653,1.618-2.215,2.953h5.063l1.16-1.477l2.531,2.004l-0.105,0.105h-20.355
		l-1.371,0.211l-0.527-0.844h7.805c-0.071-0.071-0.105-0.282-0.105-0.633c-0.142-1.124-0.527-2.215-1.16-3.27l0.211-0.316
		c1.335,0.985,2.179,1.898,2.531,2.742c0,0.562-0.247,1.055-0.738,1.477h4.113C181.629,98.059,182.121,96.582,182.404,95.246z
		 M169.009,81.429c1.616,0.563,2.776,1.196,3.48,1.898c0.633,1.055,0.456,1.935-0.527,2.637c-0.211,0.071-0.458-0.245-0.738-0.949
		c-0.633-1.335-1.371-2.426-2.215-3.27V81.429z M186.095,89.867c0,0.071-0.142,0.177-0.422,0.316
		c-0.282,0.211-0.422,0.353-0.422,0.422l0.211,4.219c-0.353,0.282-0.949,0.458-1.793,0.527v-0.949h-9.176v0.844
		c-0.493,0.282-1.021,0.493-1.582,0.633l0.211-7.172l1.688,0.844h8.227c0.14,0,0.422-0.28,0.844-0.844l0.316-0.422
		C185.11,88.778,185.742,89.305,186.095,89.867z M183.669,90.183h-8.332c-0.563,0-0.844,0.211-0.844,0.633v3.059h9.176V90.183z
		 M181.56,84.382l1.898,1.898l-0.105,0.211h-6.75l-1.16,0.105l-0.316-0.738h5.168L181.56,84.382z M185.673,77.105
		c0.14,0.142,0.351,0.353,0.633,0.633c0.772,0.774,1.124,1.16,1.055,1.16c-0.071,0.071-0.211,0.105-0.422,0.105
		c-0.422,0-0.81,0.105-1.16,0.316c-0.211,0.142-0.599,0.388-1.16,0.738c-0.844,0.493-1.653,0.985-2.426,1.477
		c0.14,0.282,0.351,0.599,0.633,0.949c0.633,0.915,1.124,1.513,1.477,1.793c1.335-1.194,2.671-2.601,4.008-4.219
		c0.983,0.985,1.477,1.618,1.477,1.898c0,0.071-0.142,0.105-0.422,0.105c-0.563,0.071-0.985,0.177-1.266,0.316
		c-0.704,0.422-1.864,1.196-3.48,2.32c1.968,1.97,4.535,3.27,7.699,3.902v0.316c-1.055-0.069-1.864,0.316-2.426,1.16
		c-5.626-2.601-8.931-6.819-9.914-12.656h0.422c0.491,1.618,1.055,2.884,1.688,3.797C183.703,79.602,184.899,78.231,185.673,77.105z
		"/>
	<path fill="#FFFFFF" stroke="#FFFFFF" stroke-width="0.1" stroke-miterlimit="10" d="M198.224,83.855
		c1.055,0.493,1.757,0.985,2.109,1.477l-0.316,0.316c-0.422,0.353-0.633,0.563-0.633,0.633l-0.105,9.492
		c0.422,0,2.179-1.194,5.273-3.586l0.316,0.211c-2.181,2.181-4.149,4.185-5.906,6.012c-0.493,0.562-0.774,0.844-0.844,0.844
		c-0.774-0.563-1.266-1.019-1.477-1.371c0-0.069,0.14-0.245,0.422-0.527c0.351-0.351,0.527-0.597,0.527-0.738l0.105-10.758h-3.059
		l-0.949,0.211l-0.527-0.844h4.113c0.069,0,0.28-0.28,0.633-0.844C198.047,84.102,198.153,83.926,198.224,83.855z M196.642,76.894
		c2.249,0.844,3.55,1.548,3.902,2.109c0.351,1.477,0.034,2.356-0.949,2.637c-0.142,0-0.282-0.245-0.422-0.738
		c-0.563-1.616-1.477-2.848-2.742-3.691L196.642,76.894z M213.939,86.281c0.772,0.493,1.477,1.126,2.109,1.898
		c0,0.071-0.177,0.177-0.527,0.316c-0.633,0.211-0.985,0.388-1.055,0.527c-0.774,2.32-2.04,4.571-3.797,6.75
		c2.179,1.759,5.097,2.848,8.754,3.27v0.316c-1.477-0.071-2.462,0.351-2.953,1.266c-2.673-0.985-4.994-2.32-6.961-4.008
		c-3.306,2.179-6.961,3.62-10.969,4.324l-0.105-0.422c4.147-1.126,7.522-2.742,10.125-4.852c-1.477-1.827-2.567-4.324-3.27-7.488
		h-0.738l-0.633,0.211l-0.527-0.844h9.387c0.14,0,0.386-0.245,0.738-0.738C213.728,86.457,213.868,86.281,213.939,86.281z
		 M214.361,77.949c0,0.071-0.142,0.211-0.422,0.422c-0.353,0.282-0.527,0.458-0.527,0.527v4.324
		c-0.071,0.704,0.491,1.021,1.688,0.949c0.844-0.069,1.44-0.245,1.793-0.527c0.14-0.069,0.28-0.105,0.422-0.105
		c0.772,0.353,1.3,0.88,1.582,1.582c-0.142,0.282-1.407,0.422-3.797,0.422c-2.531,0.142-3.658-0.491-3.375-1.898v-5.273h-4.957
		c-0.211,2.392-0.458,4.044-0.738,4.957c-0.704,1.688-2.392,3.095-5.063,4.219l-0.105-0.211c2.038-1.335,3.198-2.531,3.48-3.586
		c0.491-0.844,0.702-3.128,0.633-6.855l1.898,0.844h4.43c0.14,0,0.351-0.245,0.633-0.738l0.105-0.316
		C212.885,76.965,213.657,77.387,214.361,77.949z M212.885,88.179h-6.856c0.28,2.109,1.44,4.29,3.48,6.539
		C211.055,92.75,212.18,90.571,212.885,88.179z"/>
	<path fill="#FFFFFF" stroke="#FFFFFF" stroke-width="0.1" stroke-miterlimit="10" d="M226.068,84.171
		c0.772,0.563,1.44,1.16,2.004,1.793c-0.071,0.071-0.316,0.211-0.738,0.422c-0.422,0.282-0.633,0.458-0.633,0.527v9.176
		c0.913-0.702,2.179-1.827,3.797-3.375l0.316,0.211c-1.688,1.97-3.341,4.008-4.957,6.117c-0.211,0.28-0.353,0.456-0.422,0.527
		c-0.985-0.633-1.513-1.021-1.582-1.16c0.913-0.562,1.371-1.089,1.371-1.582V86.175l-3.059,0.105l-1.477,0.211l-0.316-0.738
		l4.641-0.211l0.211-0.316C225.716,84.524,225.997,84.171,226.068,84.171z M224.064,76.894c1.616,0.915,2.917,1.864,3.902,2.848
		c0.702,1.196,0.28,2.075-1.266,2.637c-0.142,0-0.282-0.245-0.422-0.738c-0.422-1.616-1.266-3.128-2.531-4.535L224.064,76.894z
		 M236.721,76.05c1.124,0.422,2.109,0.88,2.953,1.371l-0.527,0.527c-0.422,0.353-0.633,0.563-0.633,0.633v7.066h4.113l1.371-1.477
		l2.637,1.898l-0.105,0.211h-8.016v14.344c-0.915,0.491-1.653,0.772-2.215,0.844c0.28-3.797,0.422-8.859,0.422-15.188h-5.484
		l-1.477,0.316l-0.633-0.949h7.594V76.05z"/>
	<path fill="#FFFFFF" stroke="#FFFFFF" stroke-width="0.1" stroke-miterlimit="10" d="M254.123,76.261l2.742,1.266l-0.211,0.105
		c-0.422,0.211-0.633,0.422-0.633,0.633c-0.071,0.633-0.105,2.356-0.105,5.168c0,5.767-0.211,9.281-0.633,10.547
		c-0.704,2.32-2.637,4.396-5.801,6.223c-0.493,0.351-0.88,0.597-1.16,0.738l-0.316-0.316c3.233-1.898,5.168-4.113,5.801-6.645
		c0.28-1.124,0.456-3.304,0.527-6.539C254.334,83.504,254.263,79.778,254.123,76.261z M249.799,79.953l2.637,1.055
		c-0.493,0.353-0.774,0.633-0.844,0.844c-0.071,0.071-0.071,1.935,0,5.59c0,2.742,0,4.817,0,6.223
		c-0.422,0.563-1.055,0.915-1.898,1.055C249.973,86.492,250.01,81.571,249.799,79.953z M270.998,76.999l2.32,2.004l-0.105,0.105
		h-7.699v4.535h3.164l1.055-1.266c0.14,0,0.878,0.563,2.215,1.688c-0.844,0.563-1.196,0.88-1.055,0.949
		c0,0.633,0.034,1.724,0.105,3.27c0.069,3.938,0.14,6.117,0.211,6.539c-0.071,0.704-0.915,1.371-2.531,2.004v-0.105
		c-0.211-1.194-1.091-1.968-2.637-2.32l0.105-0.422c2.038,0.282,3.059,0.388,3.059,0.316c0.14-0.14,0.14-2.671,0-7.594
		c0-1.055,0-1.862,0-2.426h-3.691c0,2.32,0.034,7.699,0.105,16.137c-0.142,0.422-0.738,0.738-1.793,0.949c0-4.852,0-10.547,0-17.086
		h-2.215c-0.844-0.14-1.231,0.316-1.16,1.371c0,0.844,0,2.953,0,6.328c0,2.884-0.036,4.36-0.105,4.43
		c-0.493,0.422-1.021,0.669-1.582,0.738c-0.071-0.069-0.071-2.038,0-5.906c0.14-4.43,0.175-7.277,0.105-8.543
		c0.772,0.353,1.511,0.669,2.215,0.949h2.742v-4.535h-5.168l-1.16,0.211l-0.527-0.844h12.762L270.998,76.999z"/>
	<path fill="#FFFFFF" stroke="#FFFFFF" stroke-width="0.1" stroke-miterlimit="10" d="M282.494,92.925
		c1.055,0.493,1.688,0.949,1.898,1.371h-0.105c-0.422,0.142-0.985,0.527-1.688,1.16c-1.407,1.196-3.586,2.637-6.539,4.324
		l-0.422-0.316C278.17,97.848,280.454,95.667,282.494,92.925z M295.467,76.789c1.266,1.266,1.793,1.97,1.582,2.109
		c-0.071,0-0.211,0-0.422,0c-0.704-0.069-1.582-0.069-2.637,0c-0.142,0-0.388,0.036-0.738,0.105c-1.196,0.142-3.2,0.353-6.012,0.633
		c0.772,0.633,1.16,0.985,1.16,1.055c0,0.071-0.071,0.105-0.211,0.105c-0.563,0.071-1.231,0.422-2.004,1.055
		c-0.844,0.633-2.215,1.582-4.113,2.848h6.961c1.616-1.194,2.848-2.249,3.691-3.164c1.124,0.633,1.793,1.16,2.004,1.582h-0.105
		c-0.633,0.142-1.724,0.704-3.27,1.688c-3.024,2.04-6.328,3.902-9.914,5.59l13.289-0.105c-1.759-1.335-3.235-2.249-4.43-2.742
		l0.211-0.316c2.882,0.704,4.991,1.582,6.328,2.637c0.844,1.407,0.808,2.286-0.105,2.637c-0.211,0.071-0.493-0.175-0.844-0.738
		c-0.282-0.351-0.527-0.667-0.738-0.949l-6.434,0.316v7.488c0.069,1.335-0.844,2.249-2.742,2.742c-0.071,0-0.142-0.105-0.211-0.316
		c-0.493-1.196-1.548-1.898-3.164-2.109v-0.422c3.022,0.562,4.464,0.491,4.324-0.211v-6.961c-3.586,0.142-6.188,0.458-7.805,0.949
		h-0.211c-0.704-1.055-0.985-1.688-0.844-1.898c0.069-0.069,0.211-0.069,0.422,0c0.913,0.071,2.109-0.28,3.586-1.055
		c2.39-1.405,4.43-2.742,6.117-4.008c-3.235,0.211-5.767,0.563-7.594,1.055h-0.105c-0.142,0-0.493-0.456-1.055-1.371l0.316-0.105
		c2.038-0.702,4.147-2.426,6.328-5.168c-1.126,0.071-3.095,0.177-5.906,0.316c-1.759,0.071-2.813,0.105-3.164,0.105l-0.105-0.422
		C285.763,78.898,291.95,77.915,295.467,76.789z M290.615,93.347c4.008,1.407,6.397,2.603,7.172,3.586
		c0.772,1.055,0.702,1.898-0.211,2.531c-0.142,0.069-0.353-0.105-0.633-0.527c-1.266-1.688-3.446-3.409-6.539-5.168L290.615,93.347z
		"/>
	<path fill="#FFFFFF" stroke="#FFFFFF" stroke-width="0.1" stroke-miterlimit="10" d="M314.346,77.421l2.531,2.215l-0.105,0.105
		h-6.645c-0.071,0.142-0.142,0.388-0.211,0.738c-0.704,2.04-1.196,3.306-1.477,3.797h3.586c0.069,0,0.28-0.245,0.633-0.738
		l0.633-0.738c1.335,1.055,1.968,1.618,1.898,1.688l-0.211,0.105c-0.493,0.211-0.774,0.527-0.844,0.949
		c-0.774,6.61-4.888,11.567-12.34,14.871l-0.211-0.316c6.468-3.726,10.089-8.788,10.863-15.188h-4.324
		c-0.563,0.915-1.055,1.759-1.477,2.531c0.14,0.142,0.351,0.353,0.633,0.633c1.335,1.196,2.038,1.97,2.109,2.32
		c0.28,1.055-0.071,1.864-1.055,2.426c-0.211,0-0.422-0.386-0.633-1.16c-0.282-1.546-0.774-2.776-1.477-3.691
		c-1.829,2.251-3.2,3.657-4.113,4.219l-0.211-0.105c3.022-3.375,5.132-7.488,6.328-12.34h-4.219l-1.266,0.211l-0.422-0.844h10.758
		L314.346,77.421z M317.826,80.374l2.637,1.371c-0.422,0.282-0.738,0.599-0.949,0.949V93.98c-0.633,0.422-1.266,0.704-1.898,0.844
		C317.755,88.637,317.826,83.821,317.826,80.374z M322.783,76.472l2.953,1.582c-0.704,0.563-1.055,0.88-1.055,0.949
		c0.069,5.837,0.14,12.445,0.211,19.828c-0.493,0.983-1.477,1.688-2.953,2.109c-0.071,0-0.105-0.071-0.105-0.211
		c0-0.915-1.266-1.688-3.797-2.32l0.105-0.316c3.022,0.351,4.641,0.422,4.852,0.211c0.14-0.211,0.175-2.426,0.105-6.645
		C323.099,86.95,322.994,81.887,322.783,76.472z"/>
	<path fill="#FFFFFF" stroke="#FFFFFF" stroke-width="0.1" stroke-miterlimit="10" d="M335.334,76.367
		c1.405,0.774,2.284,1.371,2.637,1.793c0,0.071-0.071,0.105-0.211,0.105c-0.563,0.211-0.985,0.599-1.266,1.16
		c-0.142,0.282-0.422,0.88-0.844,1.793c-0.422,0.844-0.738,1.477-0.949,1.898l1.266,0.738c-0.282,0.211-0.599,0.458-0.949,0.738
		v15.926c-0.493,0.351-1.16,0.667-2.004,0.949l0.422-16.137c-1.618,2.603-3.2,4.677-4.746,6.223l-0.211-0.211
		C331.501,86.985,333.786,81.993,335.334,76.367z M342.084,75.945c1.968,0.704,2.987,1.091,3.059,1.16
		c0,0.071-0.142,0.211-0.422,0.422c-0.422,0.282-0.633,0.527-0.633,0.738c0,2.251,0.034,4.466,0.105,6.645l5.59-0.211l1.266-1.688
		l2.426,2.109l-0.105,0.105l-9.176,0.316c0.772,8.298,3.164,12.798,7.172,13.5c0.211,0,0.491-0.738,0.844-2.215
		c0.28-0.983,0.491-1.793,0.633-2.426l0.316,0.105c-0.282,2.813-0.177,4.991,0.316,6.539c0.069,0.28,0.069,0.422,0,0.422
		c-6.47-0.422-10.056-5.729-10.758-15.926l-4.113,0.211c-0.071,0-0.177,0.036-0.316,0.105c-0.353,0.071-0.704,0.142-1.055,0.211
		l-0.844-0.738l6.223-0.316C342.54,82.484,342.364,79.461,342.084,75.945z M346.303,78.054c2.038,0.704,3.48,1.513,4.324,2.426
		c0.351,1.055,0.034,1.793-0.949,2.215c-0.211,0.071-0.458-0.175-0.738-0.738c-0.633-1.546-1.548-2.742-2.742-3.586L346.303,78.054z
		"/>
	<path fill="#FFFFFF" stroke="#FFFFFF" stroke-width="0.1" stroke-miterlimit="10" d="M365.92,76.578l0.316-0.422
		c0.14,0.071,0.386,0.177,0.738,0.316c1.477,0.633,2.354,1.16,2.637,1.582c0.422,0.633,0.245,1.407-0.527,2.32h8.121l1.477-1.793
		l2.32,2.32l-0.105,0.105h-22.781l-1.266,0.316l-0.633-0.949h11.813C367.958,78.758,367.255,77.493,365.92,76.578z M374.779,83.011
		l2.004,1.793l-0.105,0.211h-14.66l-1.477,0.105l-0.422-0.738h13.605L374.779,83.011z M374.885,86.914l2.004,2.004l-0.105,0.105
		h-15.188l-1.055,0.211l-0.422-0.844h13.395L374.885,86.914z M376.467,92.714c0,0.071-0.105,0.177-0.316,0.316
		c-0.422,0.353-0.633,0.669-0.633,0.949c0,0.704,0,1.688,0,2.953c0.069,1.337,0.105,2.46,0.105,3.375
		c-0.633,0.562-1.302,0.808-2.004,0.738V98.41h-10.758v2.109c-1.126,0.702-1.793,0.983-2.004,0.844v-0.633
		c0.211-4.921,0.316-8.016,0.316-9.281c0.069-0.211,0.772,0.105,2.109,0.949h9.809c0.28-0.28,0.527-0.597,0.738-0.949l0.316-0.316
		C375.059,91.554,375.834,92.082,376.467,92.714z M373.619,93.031h-9.703c-0.774-0.211-1.126,0.071-1.055,0.844v4.113h10.758V93.031
		z"/>
	<path fill="#FFFFFF" stroke="#FFFFFF" stroke-width="0.1" stroke-miterlimit="10" d="M394.08,76.789
		c1.898,0.774,2.882,1.196,2.953,1.266c0,0.071-0.211,0.247-0.633,0.527l-0.422,0.316c-0.071,0.915-0.071,1.653,0,2.215
		c0.983,9.423,5.132,15.364,12.445,17.824v0.316c-1.337-0.071-2.392,0.28-3.164,1.055c-5.906-3.444-9.142-9.667-9.703-18.668
		c-0.493,10.196-4.782,16.595-12.867,19.195l-0.211-0.316c4.569-2.39,7.522-5.097,8.859-8.121
		C392.743,89.797,393.658,84.593,394.08,76.789z"/>
</g>
</svg>
