<svg xmlns="http://www.w3.org/2000/svg" width="48.156" height="11.75" viewBox="0 0 48.156 11.75">
  <defs>
    <style>
      .cls-1 {
        fill: #363840;
        fill-rule: evenodd;
      }
    </style>
  </defs>
  <path id="KIDS" class="cls-1" d="M273.867,1025.73a2.934,2.934,0,0,1-2.086-1.19l-4.033-5.56,3.407-2.75a4.386,4.386,0,0,1,2.156-1.12v-0.32h-3.894v0.32a3.207,3.207,0,0,1,1.391.18q0.276,0.255-.209.69l-5.841,4.75v-4.75q-0.07-.93,1.391-0.87v-0.32h-4.033v0.32c0.973-.09,1.436.21,1.39,0.87v8.81c0.093,0.67-.371.98-1.39,0.94v0.31h4.033v-0.31c-1.02.04-1.484-.27-1.391-0.94v-3.37l2.086-1.75,3.685,5.19c0.279,0.33.324,0.56,0.139,0.68a2.77,2.77,0,0,1-1.321.19v0.31h4.52v-0.31Zm8.534,0q-1.878.06-1.738-.87v-8.69c-0.094-.75.486-1.1,1.738-1.06v-0.32h-4.659v0.32c1.252-.04,1.831.31,1.739,1.06v8.69q0.138,0.93-1.739.87v0.31H282.4v-0.31Zm15.453-5.31q-0.277-5.31-5.84-5.63h-5.7v0.32c1.019-.04,1.506.33,1.46,1.12v8.31c0.046,0.84-.441,1.23-1.46,1.19v0.31h5.7c3.8-.12,5.747-2,5.84-5.62h0Zm-1.39,0q-0.141,5-4.45,5.25h-1.739a0.993,0.993,0,0,1-1.251-1.13v-8.37c-0.047-.71.347-1.04,1.182-1h1.808q4.172,0.435,4.45,5.25h0Zm6.806,5.37a9.267,9.267,0,0,0,3.2.5q3.685-.12,3.824-3.06c0.046-1.71-1.321-2.91-4.1-3.62-2.041-.54-3.014-1.38-2.921-2.5q0.209-1.875,2.434-2.07c1.622-.12,2.874.73,3.755,2.57l0.348-.13-0.278-2.69-0.974.38a6.542,6.542,0,0,0-2.851-.63q-3.546.135-3.755,2.88-0.14,2.19,3.825,3.25,3.2,0.87,3.2,2.81-0.069,2.19-2.642,2.31-2.852.315-4.033-2.62l-0.348.12,0.209,2.82Z" transform="translate(-262.125 -1014.53)"/>
</svg>
