<svg xmlns="http://www.w3.org/2000/svg" width="44.125" height="11.25" viewBox="0 0 44.125 11.25">
  <defs>
    <style>
      .cls-1 {
        fill: #363840;
        fill-rule: evenodd;
      }
    </style>
  </defs>
  <path id="MEN" class="cls-1" d="M191.788,1025.73c-1.113.09-1.624-.27-1.53-1.06v-8.69c-0.047-.66.463-0.96,1.53-0.87v-0.32H188.45l-4.1,9.38-4.1-9.38h-3.268v0.32q1.668-.06,1.529.87v8.69c0.093,0.79-.417,1.15-1.529,1.06v0.31h3.755v-0.31c-1.252.09-1.808-.27-1.669-1.06v-9.44l4.8,10.81h0.278l4.728-10.81h0.139v9.44c0.092,0.75-.487,1.1-1.738,1.06v0.31h4.52v-0.31Zm13.363-2.19q-0.974,2.385-2.294,2.13H199.31c-0.834.04-1.228-.27-1.182-0.94v-4.37h2.851c0.88-.17,1.437.46,1.669,1.87H203v-4h-0.348c-0.093,1.25-.65,1.81-1.669,1.69h-2.851v-3.75c-0.046-.71.348-1.04,1.182-1h2.99q1.39-.315,2.365,2.25l0.347-.13-0.347-2.5h-9.318v0.32c1.113-.04,1.622.31,1.53,1.06v8.56c0.092,0.71-.417,1.04-1.53,1v0.31h9.735l0.417-2.37Zm15.937-8.43v-0.32h-3.546v0.32c1.205-.09,1.738.27,1.6,1.06v7.94l-7.51-9.32h-2.5v0.32q1.6-.06,1.46.87v8.69c0.093,0.79-.394,1.15-1.46,1.06v0.31h3.546v-0.31c-1.159.09-1.692-.27-1.6-1.06v-8.63l8.205,10H219.7v-9.87c-0.093-.75.371-1.1,1.391-1.06h0Z" transform="translate(-176.969 -1014.78)"/>
</svg>
