<svg xmlns="http://www.w3.org/2000/svg" width="77.063" height="11.75" viewBox="0 0 77.063 11.75">
  <defs>
    <style>
      .cls-1 {
        fill: #363840;
        fill-rule: evenodd;
      }
    </style>
  </defs>
  <path id="WOMEN" class="cls-1" d="M72.691,1015.11v-0.32H69.076v0.32c1.252-.04,1.738.29,1.46,1l-2.434,7.56-2.434-7.94c-0.232-.46.185-0.66,1.252-0.62v-0.32h-4.1v0.32q1.46,0,1.6.81l0.209,0.62-2.225,7.13-2.434-7.75q-0.349-.87,1.252-0.81v-0.32H57.046v0.32a1.582,1.582,0,0,1,1.738,1.06l3.06,9.87h0.348l2.712-8.56,2.573,8.56h0.417l3.129-9.81a1.477,1.477,0,0,1,1.669-1.12h0Zm8.559-.57c-3.431.3-5.285,2.25-5.563,5.88q0.208,5.625,5.563,5.87,5.424-.3,5.7-5.87-0.349-5.5-5.7-5.88h0Zm0,11.25c-2.689-.2-4.1-2-4.242-5.37,0.185-3.33,1.6-5.13,4.242-5.38q4.172,0.315,4.381,5.38-0.279,5-4.381,5.37h0Zm24.1-.06c-1.113.09-1.623-.27-1.53-1.06v-8.69c-0.047-.66.463-0.96,1.53-0.87v-0.32h-3.338l-4.1,9.38-4.1-9.38H90.541v0.32q1.669-.06,1.53.87v8.69c0.092,0.79-.417,1.15-1.53,1.06v0.31H94.3v-0.31c-1.252.09-1.808-.27-1.669-1.06v-9.44l4.8,10.81H97.7l4.728-10.81h0.139v9.44c0.093,0.75-.486,1.1-1.738,1.06v0.31h4.52v-0.31Zm13.364-2.19q-0.975,2.385-2.295,2.13h-3.546c-0.835.04-1.229-.27-1.182-0.94v-4.37h2.851c0.88-.17,1.436.46,1.668,1.87h0.348v-4h-0.348c-0.093,1.25-.649,1.81-1.668,1.69h-2.851v-3.75c-0.047-.71.347-1.04,1.182-1h2.99q1.389-.315,2.364,2.25l0.348-.13-0.348-2.5h-9.318v0.32c1.113-.04,1.622.31,1.53,1.06v8.56c0.092,0.71-.417,1.04-1.53,1v0.31h9.735l0.417-2.37Zm15.367-8.43v-0.32h-3.547v0.32c1.205-.09,1.739.27,1.6,1.06v7.94l-7.51-9.32h-2.5v0.32q1.6-.06,1.46.87v8.69c0.092,0.79-.394,1.15-1.46,1.06v0.31h3.546v-0.31c-1.159.09-1.693-.27-1.6-1.06v-8.63l8.205,10h0.417v-9.87c-0.094-.75.37-1.1,1.391-1.06h0Z" transform="translate(-57.031 -1014.53)"/>
</svg>
