<?xml version="1.0" encoding="utf-8"?>
<!-- Generator: Adobe Illustrator 16.0.0, SVG Export Plug-In . SVG Version: 6.00 Build 0)  -->
<!DOCTYPE svg PUBLIC "-//W3C//DTD SVG 1.1//EN" "http://www.w3.org/Graphics/SVG/1.1/DTD/svg11.dtd">
<svg version="1.1" id="图层_1" xmlns="http://www.w3.org/2000/svg" xmlns:xlink="http://www.w3.org/1999/xlink" x="0px" y="0px"
	 width="77.063px" height="11.75px" viewBox="0 0 77.063 11.75" enable-background="new 0 0 77.063 11.75" xml:space="preserve">
<path id="WOMEN" fill="#CBB993" d="M15.66,0.58V0.26h-3.615v0.32c1.252-0.04,1.738,0.29,1.46,1l-2.435,7.561L8.637,1.2
	C8.405,0.74,8.822,0.54,9.889,0.58V0.26h-4.1v0.32c0.973,0,1.507,0.27,1.6,0.81l0.209,0.62L5.373,9.141L2.939,1.39
	C2.706,0.81,3.123,0.54,4.191,0.58V0.26H0.015v0.32c0.76-0.116,1.493,0.331,1.738,1.06l3.06,9.87h0.349l2.712-8.56l2.572,8.56h0.417
	l3.13-9.81C14.169,0.947,14.898,0.459,15.66,0.58L15.66,0.58L15.66,0.58z M24.219,0.01c-3.431,0.3-5.285,2.25-5.563,5.88
	c0.138,3.75,1.992,5.707,5.563,5.87c3.616-0.199,5.516-2.156,5.7-5.87C29.687,2.223,27.786,0.263,24.219,0.01L24.219,0.01
	L24.219,0.01z M24.219,11.26c-2.689-0.199-4.1-2-4.242-5.37c0.186-3.33,1.601-5.13,4.242-5.38C27,0.72,28.46,2.513,28.6,5.89
	C28.414,9.223,26.953,11.014,24.219,11.26L24.219,11.26z M48.319,11.199c-1.112,0.091-1.623-0.27-1.529-1.059V1.45
	c-0.047-0.66,0.463-0.96,1.529-0.87V0.26h-3.338l-4.1,9.381l-4.1-9.381H33.51v0.32c1.112-0.04,1.623,0.25,1.53,0.87v8.691
	c0.092,0.789-0.417,1.149-1.53,1.059v0.311h3.759v-0.311c-1.252,0.091-1.808-0.27-1.669-1.059V0.7l4.8,10.81h0.27L45.397,0.7h0.14
	v9.441c0.093,0.75-0.486,1.1-1.738,1.059v0.311h4.52L48.319,11.199L48.319,11.199z M61.683,9.01
	c-0.649,1.59-1.415,2.301-2.295,2.131h-3.546c-0.835,0.039-1.229-0.271-1.182-0.941V5.83h2.851c0.88-0.17,1.436,0.46,1.668,1.869
	h0.348v-4h-0.348c-0.093,1.25-0.649,1.81-1.668,1.69H54.66V1.64c-0.048-0.71,0.347-1.04,1.182-1h2.99
	c0.926-0.21,1.714,0.54,2.363,2.25l0.349-0.13l-0.349-2.5h-9.317v0.32c1.113-0.04,1.622,0.31,1.53,1.06v8.559
	c0.092,0.711-0.417,1.041-1.53,1v0.311h9.734l0.417-2.369L61.683,9.01z M77.05,0.58V0.26h-3.547v0.32
	c1.205-0.09,1.739,0.27,1.6,1.06v7.94l-7.51-9.32h-2.5v0.32c1.066-0.04,1.554,0.25,1.46,0.87v8.691
	c0.092,0.789-0.394,1.149-1.46,1.059v0.311h3.546v-0.311c-1.159,0.091-1.693-0.27-1.6-1.059V1.51l8.205,10h0.417V1.64
	c-0.095-0.75,0.369-1.1,1.391-1.06l0,0H77.05z"/>
</svg>
