<svg id="Livello_1" data-name="Livello 1" xmlns="http://www.w3.org/2000/svg" width="509.15" height="235.83" viewBox="0 0 509.15 253.83"><defs><style>.cls-1{fill:#fff;}</style></defs><title>EA7_LOGO_LIGHT</title><path class="cls-1" d="M509.15,207.21H487.33v.94h3.62v34.13l-22.2-35.08h-9.54v.94h3.6v43.16h-6l-15.46-46.11-16,46.11h-5.69V208.15H423v-.94h-8.61l-12.25,36-12.86-36H380.5v.94h3.61v43.16h-6.62c-2.28,0-4.15-2-4.15-5.22V239.4c0-5.53-1.94-9.95-8.1-10.88a10.43,10.43,0,0,0,8.89-10.21c0-6.27-4.65-11.1-13.89-11.1H346.48v.94h3.59v43.16h-6.89l-15.46-46.11-16,46.11h-3v1H317v-1H312.9l4.77-14H332.8l4.62,14h-5.67v1h29.09l0-1h-5.58V229h4.08c5.6,0,8.55,2.28,8.55,7.87v3.93c0,9.25,6,11.49,9.15,11.49H389v-1h-3.92V211.38l15.11,41.36L414.49,210v41.28h-3.6v1h19.74v-1h-4.14l4.78-14h15.12l4.62,14h-5.66v1h22v-1h-3.62V209.65l28.13,44.18V208.15h8.47v43.16h-3.61v1h12.41v-1h-3.6V208.15h3.6ZM318,236.38l7.37-21.57,7.12,21.57ZM355.27,228V208.15h3.45c5.7,0,9.52,3.71,9.52,10.41,0,3.7-2.89,9.46-8.89,9.46Zm76.31,8.36L439,214.82l7.12,21.57Z"/><path class="cls-1" d="M19.68,208.15c7.66,0,9.56,4.43,9.56,10.76h.89v-11.7H0v.94H3.93v43.17H0v1H30.13v-13h-.89c0,6.7-1.63,12-12.68,12H9.12V230h3.2c5,0,7.31,2.56,7.31,6.91h.88V222.14h-.88c0,4.41-2.36,6.9-7.31,6.9H9.12V208.15Z"/><path class="cls-1" d="M216.06,206.12c-11.79,0-19.53,13.12-19.53,23.65,0,11.49,8.38,23.58,19.53,23.58s19.52-11.35,19.52-23.58c0-10.52-8.37-23.65-19.52-23.65m0,46.34c-12,0-12.57-15.65-12.57-22.69s.8-22.69,12.57-22.69,12.63,15.7,12.63,22.69-.68,22.69-12.63,22.69"/><path class="cls-1" d="M127.24,206.12c-11.79,0-19.52,13.12-19.52,23.65,0,11.49,8.38,23.58,19.52,23.58s19.53-11.35,19.53-23.58c0-10.52-8.38-23.65-19.53-23.65m0,46.34c-12,0-12.56-15.65-12.56-22.69s.8-22.69,12.56-22.69,12.63,15.7,12.63,22.69-.67,22.69-12.63,22.69"/><path class="cls-1" d="M182.46,208.15h3.61v43.16h-6.61c-2.28,0-4.14-2-4.14-5.22V239.4c0-5.53-1.94-9.95-8.11-10.88a10.43,10.43,0,0,0,8.9-10.21c0-6.27-4.65-11.1-13.9-11.1H148.46v.94h3.59v43.16h-3.59v1h14.36v-1h-5.57V229h4.08c5.6,0,8.55,2.21,8.55,7.87v3.93c0,9.39,6,11.49,9.15,11.49h15.85v-1h-3.61V208.15h3.61v-.94h-12.4ZM157.25,228V208.15h3.45c5.71,0,9.53,3.71,9.53,10.41,0,3.7-2.89,9.46-8.89,9.46Z"/><path class="cls-1" d="M89.55,207.21h-23l-12.25,36-12.85-36H32.71v.94h3.61v43.17H32.71v1h8.48v-1H37.26V211.38l15.11,41.36L66.7,210v41.28H63.09v1H89.26v-1H85.66V233.6h3.89c10.3,0,15.29-5.73,15.29-13.08,0-7.07-4.39-13.31-15.29-13.31M80.4,251.32H71.89V208.15H80.4Zm7.88-18.67H85.66v-24.5h2.63c6.52,0,10.6,3.37,10.6,12.37,0,8.14-3.14,12.13-10.6,12.13"/><path class="cls-1" d="M282.14,212.65c.29-1.1,1.13-1.07,2.41-1.07h3.16c-.27-2.69-3.31-4.37-4.58-4.37H270.57c-.21,0-.33.16-.42.32a9.34,9.34,0,0,0-1.5,5v.14Z"/><path class="cls-1" d="M252.49,207.23H229.92a4.43,4.43,0,0,0-.08.87c0,3,3.22,4.56,3.22,4.56h24Z"/><path class="cls-1" d="M259.12,215.15H236.55a4.05,4.05,0,0,0-.09.87c0,3,3.22,4.56,3.22,4.56h24Z"/><path class="cls-1" d="M323.62,207.23H301l-4.55,5.43h24s3.22-1.55,3.22-4.56a4.32,4.32,0,0,0-.09-.87"/><path class="cls-1" d="M294.42,215.15l-4.56,5.43h24s3.22-1.55,3.22-4.56a5,5,0,0,0-.09-.87Z"/><path class="cls-1" d="M249.82,231a4.23,4.23,0,0,0-.09.86c0,3,3.22,4.57,3.22,4.57h11.23a6.64,6.64,0,0,1,5.86-3.93,4,4,0,0,1,2,.56,1.63,1.63,0,0,0,.66.25.73.73,0,0,0,.83-.69v-.07h.62v3.87H281l1.47-4.18.08-.2,1.49,4.38h16.56s3.22-1.54,3.22-4.57a4.32,4.32,0,0,0-.09-.86Z"/><path class="cls-1" d="M270.05,233.19c-2.2,0-3.25,1.52-3.76,3.23h7c-.57-2.22-2-3.23-3.28-3.23"/><path class="cls-1" d="M265.83,240.61a18,18,0,0,0,.34,3.73h6.54v-2h-1.43v-.71H276v.71h-1.21v2h3.39c.55-1.59,1.25-3.56,1.91-5.43H265.89c-.05.69-.05,1.29-.05,1.7"/><path class="cls-1" d="M294,244.34s3.22-1.55,3.22-4.56a4.6,4.6,0,0,0-.08-.87H284.88l1.86,5.43Z"/><path class="cls-1" d="M263.31,238.91h-6.86a4.51,4.51,0,0,0-.08.87c0,3,3.21,4.56,3.21,4.56H264a9.24,9.24,0,0,1-.87-3.73,8.26,8.26,0,0,1,.19-1.7"/><path class="cls-1" d="M269.76,248a2.82,2.82,0,0,0,2.36-1.19h-4.89a3,3,0,0,0,2.54,1.19"/><path class="cls-1" d="M289.55,247.64v.7h-5.86v-.7h1.83l-.27-.8h-7.13l-.29.8h1.32v.7H276v-.7h1.09l.28-.8h-2.51v1.5h-.7v-.07c0-.52-.31-.86-.65-.86a2.14,2.14,0,0,0-1.31.52,3.7,3.7,0,0,1-2.39.78,5.66,5.66,0,0,1-4.1-1.87h-2.58a4.85,4.85,0,0,0-.09.87c0,3,3.22,4.56,3.22,4.56h21.11s3.21-1.55,3.21-4.56a5.22,5.22,0,0,0-.08-.87h-2.88c.17.49.27.79.27.8h1.7"/><polygon class="cls-1" points="281.2 215.14 280.94 215.14 268.65 215.14 268.43 220.56 282.74 220.56 281.2 215.14"/><path class="cls-1" d="M287.79,223.07l-2.16,2.59-2.18-2.59H268.32l-.39,2.58-2.19-2.58H243.18a4.26,4.26,0,0,0-.09.86c0,3,3.22,4.56,3.22,4.56h60.92s3.22-1.55,3.22-4.56a4.36,4.36,0,0,0-.09-.86Z"/><polygon class="cls-1" points="282.6 238.91 280.86 238.91 279.69 242.34 283.74 242.34 282.6 238.91"/><polygon class="cls-1" points="279.44 243.03 278.99 244.34 284.41 244.34 283.98 243.03 279.44 243.03"/><path class="cls-1" d="M22.72,164.44H135.43c6.46,0,11.11,3.35,11.11,10.57s-4.65,10.59-11.11,10.59H12.13C3.61,185.61,0,180.18,0,173.22v-159c0-7,3.61-12.38,12.13-12.38h123.3c6.46,0,11.11,3.36,11.11,10.58S141.89,23,135.43,23H22.72V83.13H130.54c6.46,0,11.09,3.35,11.09,10.58S137,104.3,130.54,104.3H22.72Z"/><path class="cls-1" d="M216.11,104.38,248.68,26.3s.42-.8,1-.8,1,.8,1,.8l33.1,78.08ZM334.53,166,265.89,13C262.67,5.4,257.9-.12,249.68,0h-.56c-7.9.12-12.55,5.56-15.7,13L164.78,166c-.94,2.25-3.69,8-3.92,11.09-.44,5.92,4.19,9.89,10.11,10.32,6.18.45,9.54-2.92,11.69-7.68l25-56.3,0-.1,84.43.1,24.49,56.3c2.17,4.76,5.52,8.13,11.7,7.68,5.92-.43,10.55-4.39,10.11-10.32-.23-3.09-3-8.83-3.92-11.09"/><polygon class="cls-1" points="508.11 0.12 346.31 0.12 338.85 16.78 500.74 16.78 508.11 0.12"/><polygon class="cls-1" points="495.83 27.87 333.88 27.87 326.12 45.19 488.18 45.19 495.83 27.87"/><polygon class="cls-1" points="483.27 56.28 422.96 56.28 415.45 73.6 475.61 73.6 483.27 56.28"/><polygon class="cls-1" points="470.71 84.69 410.64 84.69 403.14 102.01 463.05 102.01 470.71 84.69"/><polygon class="cls-1" points="458.14 113.1 398.33 113.1 390.83 130.42 450.48 130.42 458.14 113.1"/><polygon class="cls-1" points="445.57 141.51 386.01 141.51 378.51 158.83 437.91 158.83 445.57 141.51"/><polygon class="cls-1" points="433.01 169.92 373.7 169.92 366.2 187.23 425.35 187.23 433.01 169.92"/></svg>
