<?xml version="1.0" encoding="utf-8"?>
<!-- Generator: Adobe Illustrator 23.0.1, SVG Export Plug-In . SVG Version: 6.00 Build 0)  -->
<svg version="1.1" id="Livello_1" xmlns="http://www.w3.org/2000/svg" xmlns:xlink="http://www.w3.org/1999/xlink" x="0px" y="0px"
	 viewBox="0 0 542 195.4" style="enable-background:new 0 0 542 195.4;" xml:space="preserve">
<style type="text/css">
	.st0{fill:#FFFFFF;}
</style>
<g>
	<g>
		<path style="fill:#FFFFFF;" d="M542.6,5.1v-2h-28v2h4.4v38.2L492.8,3.2h-12.2v2h4.3v51.2h-7.5L458.5,0.7l-19.6,55.7h-7.3V5.1h4.4v-2h-11.5
			l-14.5,42l-15.2-42h-11.3v2h4.3v51.2h-8.6c-2.4,0-4.6-2.2-4.6-5.9v-8.1c0-6.2-2-11.4-8.2-13.1c5.4-1.6,9.2-6.8,9.2-12.3
			c0-7.9-5.9-13.8-17.2-13.8h-17v2h4.3v51.2H337L318.1,0.7l-19.6,55.7h-3.9v2h10.9v-2h-4.8l5.5-15.5H324l5.2,15.5h-6.7v2h37.1v-2
			h-6.7V30.3h4.5c6.6,0,9.9,2.7,9.9,9.1v4.7c0,11.3,7.4,14.3,11.5,14.3h15.9v-2h-4.7V11l17.8,48l16.8-49.4v46.8h-4.4v2H446v-2h-4.8
			l5.5-15.5h17.8l5.2,15.5h-6.7v2h28.4v-2h-4.4V8l33.9,52.2v-55h10.2v51.2h-4.4v2h15.8v-2h-4.4V5.1L542.6,5.1z M306.9,38.9l8.3-24.2
			l8.1,24.2H306.9z M357.4,28.3h-4.5V5.1h3.7c6.6,0,11.1,4.3,11.1,12.1C367.7,21.6,364.3,28.3,357.4,28.3z M447.3,38.9l8.3-24.2
			l8.1,24.2H447.3z"/>
		<g>
			<path style="fill:#FFFFFF;" d="M245.5,1.8c-14.6,0-24,16.2-24,29c0,14,10.2,28.9,24,28.9c13.8,0,24-14,24-28.9
				C269.5,18,259.3,1.8,245.5,1.8z M245.5,57.8c-13.9,0-14.7-18.3-14.7-27c0-8.6,1-27,14.7-27c13.7,0,14.8,18.4,14.8,27
				C260.3,39.4,259.4,57.8,245.5,57.8z"/>
			<polygon style="fill:#FFFFFF;" points="203.4,5.1 207.8,5.1 207.8,56.4 203.4,56.4 203.4,58.4 219.2,58.4 219.2,56.4 214.9,56.4 214.9,5.1 
				219.2,5.1 219.2,3.2 203.4,3.2 			"/>
			<path style="fill:#FFFFFF;" d="M154.5,56.8c-2.4,0-4.6-2.2-4.6-6v-8.5c0-6.3-2-11.4-8.2-13.1c5.4-1.6,9.2-6.8,9.2-12.3
				c0-7.9-5.9-13.8-17.2-13.8h-17v2h4.3v51.2h-4.3v2h18.2l0-2h-6.7V30.3h4.5c6.6,0,9.9,2.7,9.9,9.1v5.3c0,11.3,7.4,14.3,11.5,14.3
				c2.6,0,3.8-0.8,5-1.9l-1.2-1.6C156.3,56.7,155.2,56.8,154.5,56.8z M132.6,28.3h-4.5V5.1h3.7c6.6,0,11.1,4.3,11.1,12.1
				C142.9,21.6,139.6,28.3,132.6,28.3z"/>
			<path style="fill:#FFFFFF;" d="M90.6,1.8c-14.6,0-24,16.2-24,29c0,14,10.2,28.9,24,28.9c13.8,0,24-14,24-28.9C114.6,18,104.4,1.8,90.6,1.8z
				 M90.6,57.8c-13.9,0-14.7-18.3-14.7-27c0-8.6,1-27,14.7-27c13.7,0,14.8,18.4,14.8,27C105.4,39.4,104.5,57.8,90.6,57.8z"/>
			<polygon style="fill:#FFFFFF;" points="48.5,5.1 52.9,5.1 52.9,56.4 48.5,56.4 48.5,58.4 64.4,58.4 64.4,56.4 60,56.4 60,5.1 64.4,5.1 
				64.4,3.2 48.5,3.2 			"/>
			<path style="fill:#FFFFFF;" d="M30.7,36.8h5.1v10c0,5.2-3.9,11-10.8,11c-13.1,0-14.4-16.6-14.4-27c0-9.5,1-27,15.5-27
				c5.5,0,11.6,4.9,12.8,15.7h1.8V2.1h-1.8c-0.3,1.9-1.3,2.7-3.3,2.7c-1.9,0-4.3-2.9-9.6-2.9c-16.3,0-24.7,17.3-24.7,29
				c0,12.3,9.3,28.9,23.7,28.9c7.8,0,8.5-4.7,13.3-4.7c1.5,0,2.5,1.4,2.6,3.4h2V36.8h4.4v-2H30.7V36.8z"/>
			<path style="fill:#FFFFFF;" d="M185.6,36.8h5.1v10c0,5.2-3.9,11-10.8,11c-13.1,0-14.4-16.6-14.4-27c0-9.5,1-27,15.5-27
				c5.5,0,11.6,4.9,12.8,15.7h1.8V2.1h-1.7c-0.3,1.9-1.3,2.7-3.3,2.7c-1.9,0-4.3-2.9-9.6-2.9c-16.3,0-24.7,17.3-24.7,29
				c0,12.3,9.3,28.9,23.7,28.9c7.8,0,8.5-4.7,13.3-4.7c1.5,0,2.5,1.4,2.6,3.4h2l0-21.6h4.4v-2h-16.6V36.8z"/>
		</g>
	</g>
	<g>
		<path style="fill:#FFFFFF;" d="M277.2,82.5C277.2,82.5,277.2,82.5,277.2,82.5C277.2,82.5,277.2,82.5,277.2,82.5z"/>
		<path style="fill:#FFFFFF;" d="M278.4,117.7C278.3,118.1,278.3,117.9,278.4,117.7L278.4,117.7z"/>
		<path style="fill:#FFFFFF;" d="M338.3,108.5c-0.3-0.5-1.3-0.9-1.8-0.5c-0.2,0.1-0.4,0.2-0.5,0.4c-0.1,0.1-0.2,0.1-0.2,0.1
			c-0.1,0.1-0.1,0.1-0.1,0.1c0,0,0,0,0,0c0,0-0.1,0-0.2,0.1c-0.4,0.2-0.8,0.5-1.2,0.7c-0.9,0.5-1.7,1-2.6,1.4c-1,0.5-2,1-2.9,1.4
			c-0.3,0.1-0.5,0.2-0.8,0.4c-0.1,0.1-0.2,0.1-0.4,0.2c-0.1,0-0.1,0.1-0.2,0.1c-0.5,0.2-1,0.4-1.6,0.7c-2.2,0.8-4.5,1.6-6.8,2.2
			c-1.1,0.4-2.3,0.6-3.4,0.8c-0.5,0.1-1.1,0.2-1.7,0.3c-0.2,0.1-0.5,0.1-0.8,0.2c-0.1,0-0.3,0-0.4,0.1c-0.1,0-0.1,0-0.1,0
			c-2,0.2-4,0.4-6,0.1c-0.1,0-0.2,0-0.2,0c0,0,0,0-0.1,0c-0.2-0.1-0.4-0.1-0.6-0.1c-0.4-0.1-0.8-0.2-1.3-0.3
			c-0.2-0.1-0.4-0.1-0.5-0.2c-0.1,0-0.1-0.1-0.2-0.1c-0.3-0.2-0.6-0.3-0.9-0.5c-0.1-0.1-0.2-0.1-0.4-0.2c-0.1,0-0.1-0.1-0.2-0.1
			c-0.1-0.1-0.2-0.2-0.3-0.4c-0.1-0.1-0.1-0.1-0.2-0.2c-0.2-0.3-0.4-0.5-0.5-0.8v-0.1c-0.1,0-0.1-0.1-0.1-0.1
			c-0.1-0.2-0.1-0.4-0.2-0.5c0-0.1-0.1-0.2-0.1-0.4c-0.1-0.1-0.1-0.2-0.1-0.3c-0.1-0.4-0.1-0.8-0.1-1.2c0.1-0.1,0.1-0.2,0.1-0.2
			c0-0.2,0.1-0.3,0.1-0.5c0.1-0.4,0.2-0.7,0.4-1.1c0,0,0,0,0-0.1c0.1,0,0.1-0.1,0.1-0.1c0.1-0.1,0.2-0.3,0.2-0.5
			c0.2-0.4,0.4-0.7,0.6-1c0.4-0.7,0.9-1.4,1.4-2c0.1-0.2,0.3-0.5,0.5-0.7c0.5-0.7,0.1-1.8-0.6-2.2c-0.5-0.3-1-0.3-1.4-0.1
			c-0.8-0.7-1.6-1.3-2.6-1.5c-1.9-0.4-3.7,0.1-5.4,0.8c-1.9,0.8-3.6,2-5.2,3.3c-0.8,0.6-1.6,1.3-2.4,2c-0.1,0-0.2,0.1-0.3,0.1
			c-1.8,0.8-3.5,1.6-5.3,2.3c-0.4,0.2-0.8,0.4-1.2,0.5c-0.2,0.1-0.4,0.1-0.5,0.2c0,0.1-0.1,0.1-0.1,0.1c-0.1,0.1-0.2,0.1-0.4,0.2
			c-0.8,0.3-1.6,0.7-2.4,1c-2.8,1.2-5.6,2.3-8.5,3.4c-4.2,1.6-8.4,3-12.7,4.1c-0.7,0.2-1.5,0.3-2.3,0.5c-0.4,0.1-0.7,0.1-1.1,0.2
			c-0.1,0-0.1,0-0.2,0c-0.1,0-0.2,0.1-0.4,0.1c-1,0.1-2,0.2-3,0.1c-0.1,0-0.2-0.1-0.3-0.1c-0.2-0.1-0.4-0.1-0.5-0.1
			c0-0.1-0.1-0.1-0.1-0.1c-0.1-0.1-0.2-0.1-0.3-0.2l-0.1-0.1l-0.1-0.1c-0.1-0.1-0.1-0.1-0.1-0.1c0-0.1,0-0.1,0-0.1
			c0-0.1,0-0.1-0.1-0.1c0-0.1,0-0.2,0-0.4c0-0.1,0.1-0.1,0.1-0.2c0-0.1,0-0.3,0.1-0.4c0.1-0.4,0.2-0.7,0.4-1.1
			c0.1-0.1,0.1-0.2,0.1-0.2c0.1-0.2,0.2-0.4,0.2-0.5c1.1-2.3,2.5-4.4,3.8-6.5c1-1.5,1.9-3.1,2.9-4.6c0.6-0.5,1.2-1,1.8-1.5
			c0.3-0.3,0.7-0.5,1-0.8c0.2-0.1,0.4-0.2,0.5-0.4c0.1,0,0.1,0,0.1,0c-0.2,0.2-0.2,0.1,0.1-0.1c0-0.1,0.1-0.1,0.1-0.1
			c0.1-0.1,0.2-0.2,0.2-0.3c0.8-0.6,1.5-1.3,2.2-1.9c3.4-3.1,6.8-6.3,9.9-9.6c1.6-1.7,3.2-3.4,4.7-5.2c0.8-0.8,1.4-1.7,2.2-2.6
			c0-0.1,0.1-0.1,0.1-0.2c-0.1,0.1,0.1-0.1,0.2-0.2l-0.1,0.1c0.1-0.1,0.1-0.1,0.1-0.1c0.1-0.1,0.2-0.2,0.2-0.3
			c0.2-0.2,0.4-0.4,0.5-0.7c0.3-0.4,0.6-0.8,0.9-1.3c1-1.5,2-3.1,2.8-4.7c0.6-1.4,1.1-3,1.1-4.6c0-0.4-0.1-0.8-0.1-1.2
			c-0.1-0.4-0.5-0.9-1-1c-1-0.2-1.9,0.2-2.8,0.7c-1,0.6-1.9,1.4-2.8,2.2c-2.4,2.3-4.5,4.8-6.6,7.3c-2.8,3.4-5.3,6.8-7.9,10.3
			c-2.6,3.6-5.1,7.2-7.5,10.8c-2,3.1-4.1,6.3-6.1,9.5c-1.2,1.9-2.5,3.9-3.5,6c-0.7,1.6-1.4,3.5-0.8,5.1c0.3,0.9,0.9,1.6,1.7,2.2
			c0.8,0.5,1.8,0.7,2.8,0.8c1,0.1,2.1,0.1,3.2-0.1c1.6-0.2,3.2-0.5,4.7-0.8c4.4-1.1,8.6-2.5,12.8-4.1c4.1-1.5,8.2-3.2,12.2-4.9
			c-0.3,0.4-0.6,0.7-0.9,1.1c-0.5,0.6-0.9,1.2-1.3,1.8c-0.1,0.3-0.2,0.5-0.4,0.8c-0.1,0.1-0.1,0.1-0.1,0.2c0,0,0,0.1-0.1,0.2
			c0,0,0,0,0-0.1c-0.2,0.4-0.4,0.8-0.5,1.3c-0.4,0.9-0.6,2-0.2,2.9c0.2,0.6,0.5,1.1,1.1,1.4c0.5,0.3,1,0.4,1.5,0.4
			c0.8,0.1,1.6-0.2,2.4-0.5c1-0.4,1.9-0.8,2.8-1.3c3.9-2.2,7.5-5.1,10.9-8.1c0.4-0.4,0.8-0.8,1.2-1.1c0,0.2,0.1,0.3,0.1,0.4
			c0.2,2,1,3.9,2.5,5.2c1.4,1.1,3.1,1.9,4.8,2.2c2,0.4,4.1,0.4,6.1,0.2c4.7-0.4,9.4-1.6,13.8-3.2c2.3-0.8,4.5-1.8,6.7-2.8
			c1.9-1,3.8-2,5.4-3.4c0,0,0.1-0.1,0.1-0.1c0,0-0.1,0-0.1,0.1c0.1,0,0.1-0.1,0.2-0.1c0,0,0,0,0,0c0,0,0,0,0,0
			c0.1,0,0.1-0.1,0.2-0.1c0.1-0.1,0.2-0.1,0.2-0.2c0.1-0.1,0.2-0.1,0.3-0.2c0-0.1,0.1-0.1,0.1-0.1c0.2-0.2-0.1,0.1-0.1,0.1
			c0.3-0.2,0.5-0.5,0.6-0.8C338.5,109.2,338.5,108.8,338.3,108.5z M264.9,89.5c1.3-1.7,2.5-3.5,3.8-5.2c0.2-0.2,0.3-0.4,0.5-0.6
			c0.1-0.1,0.1-0.2,0.2-0.3c0,0,0.1-0.1,0.1-0.1c0.3-0.4,0.6-0.8,0.9-1.1c0.6-0.8,1.2-1.6,1.8-2.3c2-2.4,4.1-4.8,6.4-6.9
			c0.2-0.1,0.4-0.3,0.5-0.5c0.1,0,0.1,0,0.1-0.1c0.1-0.1,0.1-0.1,0.2-0.1c0.2-0.1,0.4-0.2,0.5-0.4c-0.1,0.5-0.3,1.1-0.5,1.6
			c-0.1,0.2-0.1,0.3-0.2,0.5c0,0.1-0.1,0.1-0.1,0.1c0,0.1-0.1,0.2-0.1,0.2c-0.2,0.4-0.4,0.8-0.5,1.1c-0.4,0.8-0.9,1.6-1.4,2.4
			c-0.5,0.8-1.1,1.7-1.7,2.5c-0.1,0.2-0.3,0.4-0.5,0.7c-0.1,0.1-0.1,0.2-0.2,0.3c-0.1,0.1-0.1,0.1-0.1,0.1c-0.4,0.5-0.7,0.9-1.1,1.3
			c-1.4,1.8-3,3.5-4.6,5.3c-3.2,3.4-6.5,6.6-9.9,9.8c-0.1,0.1-0.2,0.2-0.2,0.2C261,95.2,262.9,92.4,264.9,89.5z M299.1,106.4
			c-1,1-2,2-3,3.1c-2.1,2-4.3,3.9-6.6,5.7c0,0-0.1,0.1-0.1,0.1c-0.1,0.1-0.2,0.1-0.3,0.2c-0.3,0.2-0.5,0.4-0.8,0.5
			c-0.4,0.2-0.7,0.5-1.1,0.8c-0.7,0.4-1.3,0.9-2,1.3c-0.8,0.5-1.6,1-2.4,1.4c-0.2,0.1-0.4,0.2-0.6,0.3c-0.1,0-0.2,0.1-0.3,0.1
			c-0.1,0-0.1,0-0.1,0.1c-0.3,0.1-0.7,0.2-1,0.3c0.1-0.2,0.1-0.4,0.2-0.6c0-0.2,0.1-0.3,0.1-0.4c0,0,0,0,0-0.1
			c0.1-0.1,0.1-0.2,0.1-0.3c0.1,0,0.1-0.1,0.1-0.1c0.1-0.2,0.1-0.3,0.2-0.4c0.3-0.6,0.7-1.2,1.1-1.8c0.2-0.3,0.5-0.7,0.7-1
			c0.1-0.1,0.1-0.2,0.2-0.2c0.2-0.2,0.3-0.4,0.5-0.5c0.6-0.8,1.3-1.6,2-2.3c1.4-1.5,2.9-3,4.6-4.3c0.2-0.2,0.4-0.3,0.5-0.4
			c0-0.1,0.1-0.1,0.1-0.1c0.1-0.1,0.2-0.2,0.4-0.3c0.4-0.3,0.8-0.6,1.3-0.8c0.8-0.5,1.6-1,2.5-1.4c0.1-0.1,0.2-0.1,0.2-0.2
			c0.1,0,0.1,0,0.1,0c0.1,0,0.1-0.1,0.2-0.1c0,0,0,0,0.1,0c0.1-0.1,0.2-0.1,0.3-0.1c0.4-0.2,0.8-0.2,1.1-0.4c0.1,0,0.2-0.1,0.3-0.1
			c0.1,0,0.4,0,0.4-0.1c0.2,0,0.4,0,0.5,0c0.1,0,0.1,0.1,0.2,0.1c0.2,0,0.5,0.1,0.7,0.2c0.1,0.1,0.1,0.1,0.2,0.1
			c0.1,0.1,0.2,0.1,0.4,0.2c0.1,0.1,0.1,0.1,0.2,0.2C299.8,105.6,299.4,105.9,299.1,106.4z M335.6,108.6
			C335.7,108.6,335.8,108.6,335.6,108.6L335.6,108.6z"/>
		<path style="fill:#FFFFFF;" d="M337,111C337.1,111,337.2,110.9,337,111C337.1,111,337.1,111,337,111C337.1,111,337.1,111,337,111z"/>
	</g>
	<g>
		<path style="fill:#FFFFFF;" d="M93.4,114.4C93.4,114.4,93.4,114.4,93.4,114.4C93.4,114.4,93.4,114.4,93.4,114.4c0.1,0,0.1-0.1,0.1-0.1
			c0,0,0.1-0.1,0.1-0.1C93.5,114.2,93.5,114.3,93.4,114.4z"/>
		<path style="fill:#FFFFFF;" d="M52.4,161.2c-0.1-0.1-0.1-0.1-0.2-0.1c0.1,0,0.2,0.1,0.3,0.2C52.5,161.3,52.4,161.3,52.4,161.2L52.4,161.2z"
			/>
		<path style="fill:#FFFFFF;" d="M56.6,163.5C56.3,163.3,56,163.2,56.6,163.5L56.6,163.5z"/>
		<path style="fill:#FFFFFF;" d="M137.5,144.4c0.1-0.1,0.1-0.1,0.2-0.2C137.8,144.1,137.9,144.1,137.5,144.4z"/>
		<path style="fill:#FFFFFF;" d="M156.3,119.9c-0.3-4.7-2-9.3-4.6-13.2c-5.9-8.4-15.4-13.4-24.9-16.4c-10.9-3.3-22.6-3.7-33.8-2.2
			c-7.7,1.2-15.8,3.7-20.5,10.4c-3.3,4.7-3.7,10.8-3.2,16.4c0.3,3.6,1,7.1,1.5,10.6c0.1,1.2,0.2,2.4,0.3,3.6c0.2,2.1,0.1,4-0.1,6
			c-0.7,4.3-2,8.4-3.6,12.4c-1.6,3.8-3.6,7.5-5.7,11.2c-1.2-0.4-2.4-0.9-3.6-1.3c-0.3-0.1-0.5-0.2-0.9-0.3c-0.1,0-0.1-0.1-0.2-0.1
			c-0.5-0.2-1.1-0.4-1.6-0.8h-0.1c-0.1-0.1-0.1-0.1-0.1-0.1c-0.1,0-0.2-0.1-0.2-0.1c-0.2-0.1-0.4-0.2-0.5-0.3
			c-0.3-0.2-0.7-0.4-1.1-0.7c-0.1-0.1-0.2-0.2-0.3-0.3c-0.1,0-0.1,0-0.1,0c-0.1-0.1-0.2-0.2-0.3-0.3c-0.2-0.2-0.9-0.8-0.5-0.5
			c-1.1-0.9-2.8-0.9-3.8,0.2c-1.1,1-1.1,2.8,0,3.9l0.1,0.1c-0.1-0.1-0.1-0.2-0.2-0.3c0.2,0.3,0.3,0.5,0.7,0.8
			c0.2,0.2,0.4,0.3,0.5,0.5c0.7,0.5,1.2,1,1.9,1.4c0.2,0.2,0.4,0.3,0.7,0.5c0.1,0,0.1,0,0.1,0c0,0,0.1,0.1,0.1,0.1c0,0,0,0,0-0.1
			c0.1,0.1,0.2,0.2,0.2,0.2c0,0,0.1,0,0.1,0.1c0.1,0,0.1,0.1,0.2,0.1c0.5,0.3,1.1,0.7,1.5,1c0.8,0.4,1.6,0.8,2.4,1.1
			c0.1,0,0.1,0.1,0.2,0.1c-0.1,0-0.1-0.1-0.2-0.1c0.1,0.1,0.3,0.1,0.4,0.2c0.1,0,0.3,0.1,0.4,0.1c0.3,0.1,0.7,0.3,1,0.4h0.1
			c-2.3,3.8-4.7,7.5-7.1,11.2c-3.2,4.9-6.3,9.8-8.8,14.9c-0.9,1.6-0.4,3.6,1.2,4.6c1.5,0.9,3.6,0.3,4.5-1.2
			c5.5-9.4,11.2-18.6,17.1-27.7c5.6,1.1,11.3,1.4,16.9,1.3c7.6-0.1,15.3-1.1,22.7-2.6c7.5-1.6,14.9-3.9,21.9-7.1
			c6.4-2.8,12.6-6.5,17.8-11.3c4.8-4.5,8.6-9.9,10.5-16.2C156.2,126.9,156.6,123.4,156.3,119.9z M150.1,125
			c-0.1,1.3-0.4,2.6-0.9,3.9c-0.2,0.7-0.4,1.3-0.7,2.1c-0.1,0-0.1,0-0.1,0.1c0,0,0,0.1-0.1,0.2c-0.1,0.3-0.3,0.7-0.4,1
			c-0.7,1.3-1.4,2.6-2.3,3.8c-0.2,0.3-0.4,0.7-0.7,0.9c0,0.1-0.1,0.2-0.2,0.3v0.1c-0.5,0.5-1,1.2-1.5,1.7c-1.1,1.2-2.2,2.3-3.4,3.3
			c-0.5,0.5-1.2,1.1-1.9,1.6c0,0-0.1,0.1-0.2,0.1c0,0-0.1,0.1-0.1,0.2c-0.1,0-0.1,0-0.1,0c-0.3,0.2-0.7,0.5-1,0.8
			c-2.7,2-5.8,3.7-8.8,5.3c-1.5,0.8-3.2,1.5-4.8,2.3c-0.1,0-0.2,0.1-0.3,0.1c-0.1,0-0.2,0.1-0.3,0.1c-0.4,0.2-0.9,0.3-1.3,0.5
			c-0.9,0.3-1.7,0.7-2.6,1c-3.5,1.3-7.1,2.4-10.7,3.3c-4,1-8.2,1.7-12.3,2.3c-6.9,1-13.8,1.3-20.8,0.8c-1.4-0.1-2.8-0.2-4.3-0.4
			c-0.3,0-0.7-0.1-1.1-0.1c5.6-8.5,11-16.9,16.7-25.2c6.3-9.3,12.4-18.5,18.5-27.9c0.1,0,0.1-0.1,0.1-0.1c0.8-1.1,0.2-2.7-0.9-3.3
			c-1.2-0.8-2.5-0.2-3.3,0.9c-1.5,2.1-2.9,4.1-4.5,6.3c-0.8,1-1.6,2.1-2.3,3.1c0,0,0,0-0.1,0.2c0,0,0,0,0,0
			c-0.1,0.1-0.2,0.2-0.3,0.3c-0.1,0.1-0.2,0.2-0.2,0.4c-0.2,0.2-0.4,0.5-0.7,0.8c-0.3,0.7-0.8,1.2-1.2,1.7c-3.4,4.8-6.6,9.7-10,14.4
			c-1.4,2-2.7,3.8-4,5.8c0.4-2.5,0.7-5.1,0.5-7.6c-0.1-1.6-0.3-3.4-0.5-5c-0.4-2.6-0.9-5.2-1.2-8c-0.4-3.2-0.7-6.4-0.3-9.6
			c0.2-1.1,0.4-2.2,0.9-3.3c0-0.1,0-0.2,0.1-0.3c0.1-0.2,0.2-0.5,0.3-0.8c0.2-0.5,0.5-1.1,1-1.6c0-0.1,0.1-0.2,0.2-0.3
			c0.2-0.2,0.3-0.4,0.5-0.7c0.4-0.5,1-1,1.5-1.4c0.1-0.1,0.2-0.2,0.2-0.2c0.1,0,0.1,0,0.1,0c0.3-0.3,0.7-0.5,1-0.8
			c0.7-0.4,1.4-0.8,2.2-1.2c0.3-0.1,0.7-0.3,1-0.4c0.1,0,0.1,0,0.1-0.1c0.2,0,0.5-0.1,0.8-0.2c1-0.3,1.9-0.7,2.8-1
			c2.2-0.5,4.5-1,6.7-1.3c6.6-0.9,13.4-1,20.1-0.1c5,0.8,10,2,14.7,3.8c0.3,0.1,0.7,0.2,0.9,0.3c0.1,0,0.2,0.1,0.3,0.1
			c0.5,0.2,1.1,0.5,1.7,0.8c1.1,0.5,2.2,1.1,3.2,1.7c1.1,0.5,2.1,1.2,3.1,1.9c0.4,0.3,1,0.7,1.4,1c0,0,0.1,0.1,0.2,0.2
			c0.2,0.1,0.4,0.3,0.7,0.5c1.3,1,2.5,2.2,3.6,3.4c0.2,0.3,0.5,0.5,0.8,0.9c0.1,0.1,0.2,0.3,0.3,0.4c0,0,0,0.1,0.1,0.1
			c0.4,0.7,0.9,1.3,1.3,2c0.4,0.7,0.8,1.3,1.1,2.1c0.1,0.2,0.3,0.5,0.4,0.8c0,0.1,0,0.2,0,0.2c0.1,0.2,0.2,0.4,0.2,0.5
			c0.5,1.4,1,2.9,1.2,4.5C150.4,121.1,150.4,123,150.1,125z"/>
		<path style="fill:#FFFFFF;" d="M159.4,175.6C159.4,175.6,159.4,175.6,159.4,175.6C159.4,175.6,159.4,175.6,159.4,175.6
			C159.4,175.6,159.4,175.6,159.4,175.6z"/>
		<path style="fill:#FFFFFF;" d="M267.5,173c0.1,0,0.3,0,0.4,0C267.5,173,267.4,173,267.5,173z"/>
		<path style="fill:#FFFFFF;" d="M292.7,165.9c-0.1,0-0.2,0.1-0.2,0.1c0,0,0,0,0,0C292.6,166,292.7,165.9,292.7,165.9z"/>
		<path style="fill:#FFFFFF;" d="M239.9,141.5c3.8,0.7,7.7,0.4,11.6-0.7c1-0.3,1.6-1.4,1.3-2.4c-0.2-1.1-1.4-1.7-2.4-1.4
			c-0.9,0.2-1.6,0.3-2.5,0.5c-0.3,0.1-0.8,0.1-1.2,0.2c-0.7,0.1,0.4-0.1-0.2,0c-0.3,0-0.5,0.1-0.8,0.1c-0.9,0-1.6,0.1-2.4,0
			c-0.4,0-0.9,0-1.2,0c-0.2-0.1-0.4-0.1-0.7-0.1c0.3,0-0.4-0.1-0.5-0.1c-1-0.1-2.1,0.3-2.4,1.4C238.2,140.1,238.8,141.3,239.9,141.5
			z"/>
		<path style="fill:#FFFFFF;" d="M312.4,154.3c0,0,0.1,0,0.1-0.1C312.6,154.2,312.6,154.1,312.4,154.3z"/>
		<path style="fill:#FFFFFF;" d="M500.2,159.7C500.2,159.7,500.2,159.7,500.2,159.7C500.2,159.7,500.2,159.7,500.2,159.7z"/>
		<path style="fill:#FFFFFF;" d="M500.3,159.6C500.2,159.7,500.2,159.7,500.3,159.6C500.2,159.7,500.3,159.6,500.3,159.6z"/>
		<path style="fill:#FFFFFF;" d="M502.4,155.2c-0.5-1-2.3-1.6-3.3-0.9c-0.3,0.2-0.7,0.4-1,0.7c-0.1,0.1-0.3,0.1-0.4,0.2
			c-0.1,0.1-0.1,0.1-0.2,0.2c-0.1,0-0.1,0-0.2,0.1c-0.1,0-0.1,0-0.2,0.1c-0.8,0.4-1.5,0.9-2.2,1.3c-1.6,0.9-3.2,1.7-4.8,2.6
			c-1.9,0.9-3.6,1.7-5.3,2.5c-0.5,0.2-1,0.4-1.4,0.7c-0.2,0.1-0.4,0.2-0.7,0.3c-0.1,0-0.2,0.1-0.3,0.1c-1,0.4-1.9,0.8-2.8,1.2
			c-4,1.5-8.2,2.9-12.4,4c-2.1,0.7-4.1,1.1-6.2,1.5c-1,0.2-2,0.4-3.1,0.5c-0.4,0.1-1,0.2-1.4,0.3c-0.2,0-0.5,0-0.8,0.1
			c-0.1,0-0.1,0-0.1,0c-3.7,0.4-7.3,0.7-11,0.2c-0.2,0-0.3,0-0.4,0c0,0,0,0-0.1,0c-0.4-0.1-0.8-0.1-1.1-0.2
			c-0.8-0.1-1.5-0.3-2.3-0.5c-0.3-0.1-0.7-0.2-1-0.3c-0.1,0-0.2-0.1-0.4-0.1c-0.5-0.3-1.1-0.5-1.6-1c-0.2-0.1-0.4-0.2-0.7-0.4
			c-0.1,0-0.2-0.1-0.4-0.2c-0.2-0.2-0.4-0.4-0.5-0.7c-0.1-0.1-0.2-0.2-0.3-0.3c-0.3-0.5-0.7-1-0.9-1.5v-0.1c-0.1,0-0.1-0.1-0.1-0.2
			c-0.1-0.3-0.2-0.7-0.3-1c0-0.2-0.1-0.4-0.1-0.7c-0.1-0.2-0.1-0.3-0.1-0.5c-0.1-0.7-0.1-1.4-0.1-2.2c0.1-0.1,0.1-0.3,0.1-0.4
			c0-0.3,0.1-0.5,0.1-0.9c0.2-0.7,0.4-1.3,0.7-2c0,0,0,0,0-0.1c0.1,0,0.1-0.1,0.1-0.2c0.1-0.2,0.3-0.5,0.4-0.9
			c0.3-0.7,0.7-1.2,1.1-1.9c0.8-1.3,1.6-2.5,2.5-3.7c0.2-0.4,0.5-0.9,0.9-1.3c0.9-1.3,0.2-3.3-1.1-4c-0.9-0.5-1.7-0.5-2.5-0.1
			c-1.4-1.3-2.8-2.3-4.7-2.7c-3.4-0.7-6.8,0.2-9.9,1.5c-3.4,1.5-6.5,3.7-9.5,6c-1.4,1.1-2.8,2.3-4.2,3.5c-0.2,0.1-0.3,0.2-0.5,0.3
			c-6.8,4.6-13.6,9-20.9,12.8c-2.2,1.1-4.4,2.2-6.5,3.1c-0.1,0.1-0.2,0.1-0.2,0.1c-0.3,0.1-0.5,0.2-0.8,0.3
			c-0.7,0.2-1.2,0.4-1.7,0.7c-1.1,0.4-2.2,0.8-3.2,1.1c-2.1,0.7-4,1.2-6.1,1.5c-0.1,0-0.1,0-0.1,0c-0.3,0-0.5,0-0.8,0
			c-0.4,0.1-1,0.1-1.4,0.1c-0.9,0-1.7,0-2.5-0.1h-0.1c-0.2,0-0.4,0-0.5-0.1c-0.4-0.1-0.9-0.2-1.2-0.3c-0.1,0-0.3-0.1-0.4-0.2
			c-0.1,0-0.1-0.1-0.2-0.1c-0.1-0.1-0.1-0.1-0.2-0.2c-0.1-0.1-0.2-0.2-0.3-0.4c-0.2-0.3-0.4-0.5-0.7-0.9c0-0.2-0.1-0.3-0.2-0.5
			c-0.1-0.3-0.2-0.8-0.4-1.2c-0.2-0.8-0.3-1.6-0.5-2.5c0-0.2,0-0.4-0.1-0.7c0-0.1,0-0.2,0-0.2c0-0.4-0.1-0.9-0.1-1.2
			c-0.2-1.7-0.3-3.4-0.5-5.1c-0.2-1.7-0.4-3.5-1.2-5.1c-0.8-1.6-2.3-2.6-4.1-2.7c-1.5-0.1-3.2,0.7-4.5,1.3c-1.6,0.9-3.2,1.9-4.6,2.9
			c-4.1,3.1-8,6.3-11.8,9.7c2-4.4,3.8-8.7,5.8-13.1c0.3-0.9,0.4-1.7,0-2.6c-0.7-1-1.9-1.4-2.9-1.2c-5.1,1.4-9.9,4.4-14.3,7.2
			c-0.3,0.1-0.5,0.3-0.8,0.5c1.2-1.7,2.5-3.5,3.5-5.5c0.5-1.2,0.5-2.6-0.4-3.6c-1.1-1.1-3.2-1.2-4.2,0c-0.2,0.2-0.3,0.4-0.5,0.5
			c0,0.1-0.1,0.2-0.2,0.3c0.2-0.3-1.2,1.5-0.3,0.4c-0.3,0.5-0.8,1-1.1,1.4c-0.8,0.9-1.5,1.9-2.3,2.7c-0.2,0.3-0.4,0.5-0.7,0.8
			c-0.1,0.1-0.3,0.1-0.4,0.2c-0.1,0.1-0.1,0.1-0.1,0.2c-0.1,0-0.2,0.1-0.3,0.2c-0.2,0.1-0.4,0.3-0.7,0.4c-0.5,0.3-1,0.8-1.4,1.1
			c-0.9,0.7-1.9,1.3-2.8,2c-1.9,1.2-3.8,2.4-5.8,3.5c-2,1.2-4,2.2-6.1,3.2c-0.4,0.2-1,0.4-1.5,0.7c-0.2,0.1-0.4,0.2-0.8,0.3
			c-0.1,0.1-0.2,0.1-0.3,0.2c-0.1,0.1-0.2,0-0.1,0c-1.1,0.4-2.1,0.9-3.2,1.3c-4.2,1.6-8.7,2.9-13.1,4c-2.2,0.4-4.4,1-6.5,1.3
			c0,0,0,0-0.1,0c0,0-0.6,0.1-0.8,0.2c-0.2,0-0.4,0-0.8,0.1c-0.1,0-0.6,0-0.6,0c-0.2,0-0.3,0.1-0.5,0.1c-1.1,0.1-2.2,0.2-3.3,0.3
			c-4,0.4-8.2,0.7-12.2,0.8c-3.7,0-7.3-0.1-10.9-0.4c-0.5-0.1-1-0.1-1.5-0.2c0.1,0,0.1,0,0.2,0c-3.4-0.4-6.6-1.2-9.8-2.5
			c0.3,0.1,0.5,0.2,0.9,0.4c-1-0.5-1.9-0.9-2.8-1.5c-0.2-0.2-0.4-0.4-0.6-0.6c0,0,0,0,0,0c0.2-0.4,0.5-0.8,0.8-1.2
			c0.8-1.3,1.7-2.5,2.6-3.7c-0.1,0.2-0.3,0.4-0.5,0.8c1.4-1.9,2.8-3.6,4.4-5.3c1.2-1.3,2.2-2.6,3.4-3.8c1.3-1.4,1.3-3.6,0-4.9
			c-0.7-0.7-1.6-1.1-2.5-1.1c-1,0-1.7,0.4-2.5,1.1c-1.7,1.3-3.2,2.9-4.6,4.5c-9.6,5.9-19.4,11.6-29.6,16.5c-2.2,1.1-4.4,2.1-6.5,3.1
			c-0.2,0.1-0.4,0.2-0.7,0.3c-0.1,0-0.2,0-0.3,0.1c-0.5,0.2-1.1,0.4-1.5,0.7c-1,0.3-2,0.8-2.9,1.1c-3.4,1.3-6.8,2.4-10.2,3.2
			c-1.5,0.4-2.9,0.8-4.4,1.1c-0.7,0.1-1.3,0.2-2,0.3c-0.3,0.1-0.7,0.1-0.9,0.1c-0.1,0-0.1,0-0.1,0c-0.1,0.1-0.1,0.1-0.2,0.1
			c-2.1,0.2-4.1,0.3-6.2,0.1c-0.1,0-0.2,0-0.3,0c-0.2-0.1-0.3-0.1-0.4-0.1c-0.4-0.1-0.9-0.2-1.3-0.3c-0.3,0-0.5-0.1-0.9-0.2
			c-0.1-0.1-0.1-0.1-0.1-0.1c-0.1,0-0.1-0.1-0.2-0.1c-0.2-0.1-0.3-0.3-0.5-0.4c0,0,0,0,0-0.1c-0.1-0.1-0.2-0.2-0.3-0.3
			c0-0.1-0.1-0.2-0.2-0.3c0-0.1,0-0.1-0.1-0.2c0-0.1,0-0.2-0.1-0.4c0-0.1,0-0.3,0-0.5c0.1-0.4,0.2-0.8,0.3-1.1
			c0-0.1,0.1-0.2,0.1-0.3c0.4-0.6,0.7-1.3,1.2-1.9c-0.1,0.1-0.2,0.2-0.3,0.4c0.1-0.1,0.2-0.3,0.3-0.4c0.1-0.1,0.1-0.2,0.2-0.3
			c-0.1,0.1-0.1,0.2-0.2,0.3c0.9-1.1,1.6-2.2,2.5-3.4c1.5-1.9,3.1-3.7,4.6-5.5c0.7-0.8,1.4-1.5,2.1-2.3c0.7-0.8,1.4-1.4,2.1-2.2
			c-0.1,0.1-0.2,0.2-0.2,0.3c0.1-0.1,0.2-0.3,0.3-0.4c0.1-0.1,0.2-0.1,0.2-0.2c0.3-0.3,0.4-0.5,0.7-0.9c0.8-0.5,1.1-1.4,1.1-2.4
			c0-1-0.4-1.9-1.1-2.4c-0.8-0.7-1.9-1-2.8-0.8c-0.8-0.1-1.6-0.2-2.4-0.3c-1.3-0.1-2.5-0.4-3.8-0.7c-1.2-0.3-2.4-0.7-3.5-1.1
			c-0.4-0.2-0.9-0.4-1.3-0.7c0.1-0.2,0.2-0.4,0.3-0.7c1-1.3,0.5-3.2-0.5-4.3c-1.2-1.2-3.7-1.4-4.9,0c-1.6,2-2.9,4.6-2,7.1
			c0.9,2.3,2.5,3.8,4.7,4.7c1.9,0.9,3.8,1.4,5.9,1.7c-2.2,2.3-4,4.8-5.9,7.3c-1.6,2-2.9,3.9-3.8,6.3c-0.1,0.3-0.2,0.8-0.2,1.1
			c0-0.1,0-0.1,0-0.2c-0.2,0.9-0.3,1.9-0.3,2.7c0.1,0.9,0.2,2,0.5,2.8c0.2,0.7,0.5,1.3,1,1.9c0.2,0.3,0.5,0.7,0.8,1c0,0,0,0,0.1,0
			c0,0.1,0,0.1,0,0.1c0.1,0.1,0.1,0.1,0.2,0.2c0.4,0.3,1,0.8,1.6,1.1c0.3,0.2,0.8,0.4,1.2,0.5c3.2,1.6,7,1.6,10.5,1.3
			c6.2-0.5,12.1-2.3,18-4.5c9-3.5,17.9-7.6,26.5-12.1c2.9-1.6,5.8-3.2,8.7-4.9c-0.2,0.4-0.3,0.7-0.4,1.1c-0.4,1.2-0.4,2.5-0.1,3.7
			c0.5,2.4,2.4,4.1,4.4,5.3c2.1,1.2,4.5,2.1,6.9,2.5c0.6,0.2,1.2,0.2,1.8,0.3c0,0-0.1,0-0.1,0c3.3,0.7,6.8,1,10,1.1
			c3.8,0.1,7.5,0.1,11.2-0.1c1.1-0.1,2.1-0.2,3.1-0.2c0.5-0.1,1-0.2,1.5-0.2c0.4-0.1,0.9-0.1,1.3-0.2c0.1,0,0.1,0,0.2,0
			c0.2,0,0.5,0,0.7-0.1c2.2-0.3,4.2-0.7,6.3-1.1c4.4-0.9,8.7-1.7,13-2.9c7.7-2.1,15.2-5,22.1-8.8c-1.1,1.2-2.1,2.5-3.1,3.8
			c-1,1.2-0.5,3.3,0.5,4.3c1.2,1.3,3.6,1.4,4.9,0c0.9-1,1.7-2.1,2.6-3.1c1.3-0.9,2.5-1.7,3.7-2.6c2.5-1.7,5.1-3.6,7.7-5.3
			c2.4-1.7,4.9-3.4,7.4-4.9c1.2-0.7,2.4-1.3,3.6-2c0.2-0.1,0.5-0.2,0.8-0.4c-2.8,6.3-5.6,12.6-8.4,18.9c-0.4,1.1-0.4,2.3,0.4,3.3
			c1.1,1,2.7,1,3.7,0c3.4-3.2,6.8-6.3,10.2-9.4c1.9-1.6,3.7-3.3,5.6-4.9c1-0.7,1.9-1.4,2.7-2.2c0.1,0,0.2-0.1,0.2-0.1
			c0.2-0.2,0.4-0.3,0.7-0.5c0.4-0.2,0.9-0.5,1.3-0.9c1.4-1,2.8-2,4.5-2.7c0.1-0.1,0.2-0.1,0.3-0.1c0.1-0.1,0.2-0.1,0.3-0.1
			c0.1,0.2,0.1,0.4,0.2,0.8c0.1,0.2,0.1,0.5,0.2,0.9c0,0.2,0,0.3,0,0.4c0,0.1,0,0.1,0,0.1c0.1,0.9,0.2,1.6,0.3,2.5
			c0.3,3.8,0.5,7.7,2.2,11.3c0.8,1.7,2.1,3.3,3.7,4.3c1.7,1.1,3.9,1.4,5.9,1.5c4.2,0.2,8.5-0.9,12.5-2.1c4.7-1.5,9.2-3.6,13.5-5.9
			c1.5-0.8,3-1.6,4.5-2.4c-0.2,0.3-0.4,0.5-0.5,0.8c-0.2,0.5-0.4,1-0.7,1.4c-0.1,0.1-0.1,0.2-0.2,0.3c0,0-0.1,0.3-0.2,0.5
			c-0.3,0.7-0.6,1.4-0.8,2.1c-0.7,1.6-1.1,3.7-0.4,5.3c0.4,1.1,1,2,2,2.5c0.9,0.5,1.7,0.7,2.7,0.7c1.4,0.1,2.9-0.4,4.4-1
			c1.7-0.7,3.4-1.5,5-2.4c7.2-4,13.7-9.3,19.8-14.7c0.8-0.7,1.5-1.4,2.2-2.1c0,0.3,0.1,0.5,0.1,0.8c0.3,3.7,1.7,7.1,4.6,9.5
			c2.5,2.1,5.6,3.4,8.8,3.9c3.6,0.7,7.4,0.8,11.1,0.4c8.6-0.8,17.1-2.9,25.2-5.9c4.1-1.5,8.3-3.3,12.2-5.1c3.4-1.7,6.9-3.6,9.8-6.1
			c0.1-0.1,0.1-0.1,0.1-0.1c-0.1,0-0.1,0.1-0.2,0.1c0.1,0,0.2-0.1,0.2-0.1c0,0,0,0,0.1-0.1c0.1,0,0.1,0,0.1,0
			c0.1-0.1,0.2-0.1,0.2-0.2c0.1-0.1,0.3-0.2,0.4-0.4c0.2-0.1,0.3-0.2,0.5-0.3c0-0.1,0.1-0.2,0.2-0.2c0.3-0.3-0.2,0.1-0.2,0.1
			c0.5-0.4,1-0.9,1.1-1.5C502.8,156.5,502.7,155.8,502.4,155.2z M269.7,172.7c-0.2,0.1-0.3,0.1-0.4,0.1
			C269.5,172.7,269.6,172.7,269.7,172.7z M393.3,172C393.1,172.3,393,172.5,393.3,172L393.3,172z M430.9,151.3
			c-1.7,1.9-3.6,3.7-5.5,5.6c-3.8,3.6-7.8,7.1-12,10.4c0,0-0.1,0.1-0.2,0.2c-0.2,0.1-0.4,0.2-0.5,0.4c-0.5,0.3-1,0.7-1.4,1
			c-0.7,0.4-1.3,1-2.1,1.4c-1.2,0.8-2.4,1.6-3.6,2.3c-1.4,1-2.8,1.9-4.4,2.6c-0.4,0.1-0.8,0.3-1.1,0.5c-0.2,0-0.3,0.1-0.5,0.2
			c-0.1,0-0.1,0-0.2,0.1c-0.5,0.2-1.2,0.4-1.7,0.5c0.1-0.3,0.2-0.8,0.4-1.1c0-0.3,0.1-0.5,0.2-0.8c0,0,0,0,0-0.1
			c0.1-0.1,0.2-0.3,0.2-0.5c0.1,0,0.1-0.1,0.1-0.1c0.1-0.3,0.2-0.5,0.4-0.8c0.5-1.1,1.2-2.2,2-3.3c0.4-0.5,0.9-1.2,1.3-1.7
			c0.1-0.2,0.2-0.3,0.3-0.4c0.3-0.3,0.5-0.7,0.9-1c1.1-1.4,2.3-2.8,3.6-4.1c1.2-1.2,2.4-2.4,3.6-3.6c0.2-0.2,0.4-0.4,0.6-0.6
			c1.4-1.3,2.8-2.5,4.2-3.7c0.3-0.3,0.7-0.5,1-0.8c0-0.1,0.1-0.1,0.1-0.1c0.2-0.2,0.4-0.3,0.7-0.5c0.8-0.5,1.5-1.1,2.3-1.5
			c1.4-1,2.8-1.9,4.5-2.5c0.1-0.1,0.3-0.2,0.4-0.3c0.1,0,0.1,0,0.1,0c0.1,0,0.2-0.1,0.3-0.1c0,0,0,0,0.1,0c0.1-0.1,0.3-0.2,0.5-0.2
			c0.7-0.3,1.4-0.4,2.1-0.7c0.2,0,0.3-0.1,0.5-0.1c0.1,0,0.7,0,0.8-0.1c0.3,0,0.7,0,1,0c0.1,0,0.2,0.1,0.3,0.1
			c0.4,0,0.9,0.2,1.3,0.3c0.1,0.1,0.2,0.1,0.3,0.2c0.2,0.1,0.4,0.2,0.7,0.3c0.1,0.1,0.2,0.2,0.3,0.3
			C432.3,149.9,431.6,150.5,430.9,151.3z M497.5,155.4C497.7,155.3,497.8,155.3,497.5,155.4L497.5,155.4z"/>
		<path style="fill:#FFFFFF;" d="M500.1,159.8C500.1,159.8,500.1,159.7,500.1,159.8C500.1,159.7,500.1,159.8,500.1,159.8
			C500.1,159.8,500.1,159.8,500.1,159.8z"/>
	</g>
</g>
</svg>
