<svg xmlns="http://www.w3.org/2000/svg" viewBox="0 0 48 36"><path d="M2.7 0C1.228 0 0 1.228 0 2.7v25.14c0 1.58 1.3 2.88 2.88 2.88h3.93a5.758 5.758 0 0 0 5.67 4.8 5.758 5.758 0 0 0 5.67-4.8h14.58a5.758 5.758 0 0 0 5.67 4.8 5.758 5.758 0 0 0 5.67-4.8h1.05c.8 0 1.5-.36 2.01-.87.51-.51.87-1.21.87-2.01v-9.21c0-1.08-.41-2.068-.78-2.82-.37-.752-.75-1.29-.75-1.29v-.03l-3.93-5.28h-.03v-.03c-.85-1.064-2.217-2.46-4.11-2.46h-7.68c-.343 0-.66.064-.96.18V2.79A2.796 2.796 0 0 0 26.97 0H2.7zm0 1.92h24.27c.384 0 .87.486.87.87V28.8h-9.69a5.758 5.758 0 0 0-5.67-4.8 5.758 5.758 0 0 0-5.67 4.8H2.88a.957.957 0 0 1-.96-.96V2.7c0-.448.332-.78.78-.78zm28.02 6.72h3.84v8.64c0 .8.36 1.5.87 2.01.51.51 1.21.87 2.01.87h8.64v7.68c0 .16-.12.42-.33.63-.21.21-.47.33-.63.33h-1.05A5.758 5.758 0 0 0 38.4 24a5.758 5.758 0 0 0-5.67 4.8h-2.97V9.6c0-.16.12-.42.33-.63.21-.21.47-.33.63-.33zm5.76 0h1.92c.79 0 1.894.889 2.58 1.74l3.93 5.25.03.03c.02.028.278.395.57.99.243.494.371 1.083.45 1.59h-8.52c-.16 0-.42-.12-.63-.33-.21-.21-.33-.47-.33-.63V8.64zm-24 17.28a3.826 3.826 0 0 1 3.84 3.84 3.826 3.826 0 0 1-3.84 3.84 3.826 3.826 0 0 1-3.84-3.84 3.826 3.826 0 0 1 3.84-3.84zm25.92 0a3.826 3.826 0 0 1 3.84 3.84 3.826 3.826 0 0 1-3.84 3.84 3.826 3.826 0 0 1-3.84-3.84 3.826 3.826 0 0 1 3.84-3.84z"/></svg>