<svg xmlns="http://www.w3.org/2000/svg" width="5.91" height="45.37" viewBox="0 0 5.91 45.37">
  <defs>
    <style>
      .cls-1 {
        fill: #1f1f23;
        fill-rule: evenodd;
      }
    </style>
  </defs>
  <path id="PAGE_TOP" data-name="PAGE TOP" class="cls-1" d="M1307.36,4282.48c-0.92.02-1.38,0.62-1.4,1.81v2.28h0.15c-0.04-.52.14-0.76,0.53-0.72h4.35c0.31-.02.45,0.22,0.43,0.72h0.16v-1.97h-0.16c0,0.48-.14.71-0.43,0.69h-2.07v-1.12a1.471,1.471,0,0,0-1.56-1.69h0Zm0,0.59a1.16,1.16,0,0,1,1.38,1.13v1.09h-2.1a0.43,0.43,0,0,1-.5-0.53v-0.44a1.129,1.129,0,0,1,1.22-1.25h0Zm4.06-6.98a0.888,0.888,0,0,1-.65.82l-4.94,1.81v0.34l5.13,1.75a0.62,0.62,0,0,1,.46.69h0.16v-1.62h-0.16c0.02,0.62-.12.85-0.43,0.68l-1.47-.5v-2.12l1.44-.5c0.33-.17.48,0.06,0.46,0.69h0.16v-2.04h-0.16Zm-2.09,3.88-2.81-.91,2.81-1.06v1.97Zm-0.22-10.92h-0.19v2.19h0.19c0-.6.19-0.88,0.56-0.84h0.94a1.573,1.573,0,0,1,.81,1.47c-0.1,1.14-1,1.75-2.68,1.81-1.65-.08-2.55-0.69-2.69-1.81a1.938,1.938,0,0,1,1.28-1.94l-0.06-.16-1.41.16,0.19,0.56a2.821,2.821,0,0,0-.25,1.38q0.21,2.25,2.97,2.4,2.835-.06,2.94-2.4a1.859,1.859,0,0,0-.63-1.47l0.59-.31-0.09-.25h-1.91c-0.37.04-.56-0.22-0.56-0.79h0Zm1.22-5.97c0.79,0.29,1.15.63,1.06,1.03v1.59a0.412,0.412,0,0,1-.47.53h-2.18v-1.28c-0.09-.39.23-0.64,0.93-0.75v-0.15h-2v0.15c0.63,0.04.91,0.29,0.85,0.75v1.28h-1.88a0.427,0.427,0,0,1-.5-0.53v-1.34c-0.1-.42.27-0.77,1.13-1.06l-0.06-.16-1.25.16v4.18h0.15c-0.02-.5.16-0.73,0.53-0.68h4.28c0.36-.05.52,0.18,0.5,0.68h0.16v-4.37l-1.19-.19Zm-4.37-9.08v4.22l1.37,0.15,0.03-.15c-0.89-.34-1.3-0.65-1.22-0.94v-0.47a0.405,0.405,0,0,1,.47-0.44h4.35c0.33-.06.48,0.2,0.46,0.78h0.16v-2.12h-0.16c0.05,0.58-.11.84-0.46,0.78h-4.35a0.418,0.418,0,0,1-.47-0.47v-0.47c-0.08-.31.33-0.61,1.22-0.9l-0.06-.16Zm-0.13-4.36c0.15,1.55,1.13,2.38,2.94,2.5,1.87-.06,2.85-0.89,2.94-2.5-0.11-1.62-1.09-2.47-2.94-2.56-1.84.11-2.81,0.96-2.94,2.56h0Zm5.63,0c-0.11,1.21-1,1.85-2.69,1.91-1.67-.08-2.56-0.72-2.69-1.91,0.1-1.25,1-1.9,2.69-1.96,1.66,0.08,2.56.74,2.69,1.96h0Zm-4.1-8.44c-0.92.02-1.38,0.62-1.4,1.81v2.28h0.15c-0.04-.52.14-0.76,0.53-0.72h4.35c0.31-.02.45,0.22,0.43,0.72h0.16v-1.97h-0.16c0,0.48-.14.71-0.43,0.69h-2.07v-1.12a1.471,1.471,0,0,0-1.56-1.69h0Zm0,0.59a1.16,1.16,0,0,1,1.38,1.13v1.09h-2.1a0.43,0.43,0,0,1-.5-0.53v-0.44a1.129,1.129,0,0,1,1.22-1.25h0Z" transform="translate(-1305.81 -4241.19)"/>
</svg>
