<?xml version="1.0" encoding="utf-8"?>
<!-- Generator: Adobe Illustrator 16.0.0, SVG Export Plug-In . SVG Version: 6.00 Build 0)  -->
<!DOCTYPE svg PUBLIC "-//W3C//DTD SVG 1.1//EN" "http://www.w3.org/Graphics/SVG/1.1/DTD/svg11.dtd">
<svg version="1.1" id="图层_1" xmlns="http://www.w3.org/2000/svg" xmlns:xlink="http://www.w3.org/1999/xlink" x="0px" y="0px"
	 width="5.91px" height="45.371px" viewBox="0 0 5.91 45.371" enable-background="new 0 0 5.91 45.371" xml:space="preserve">
<path id="PAGE_TOP" fill="#CBBA94" d="M1.55,41.291c-0.92,0.02-1.38,0.619-1.4,1.81v2.28H0.3c-0.04-0.521,0.14-0.76,0.53-0.721h4.35
	c0.311-0.02,0.45,0.221,0.43,0.721h0.16V43.41h-0.16c0,0.48-0.14,0.71-0.43,0.689H3.11V42.98c0.123-0.804-0.428-1.555-1.231-1.678
	C1.77,41.287,1.66,41.282,1.55,41.291L1.55,41.291L1.55,41.291z M1.55,41.88c0.629-0.122,1.237,0.289,1.359,0.918
	c0.013,0.07,0.02,0.141,0.021,0.211v1.09h-2.1c-0.233,0.047-0.459-0.104-0.506-0.338c-0.013-0.063-0.011-0.129,0.006-0.191V43.13
	c-0.069-0.62,0.377-1.179,0.997-1.248C1.401,41.875,1.476,41.874,1.55,41.88L1.55,41.88z M5.609,34.9
	c-0.016,0.385-0.277,0.717-0.649,0.82l-4.94,1.81v0.34l5.13,1.75c0.307,0.079,0.506,0.376,0.459,0.69h0.16v-1.621h-0.16
	C5.63,39.31,5.49,39.54,5.18,39.37l-1.47-0.5v-2.12l1.44-0.5c0.33-0.17,0.479,0.061,0.459,0.689h0.16V34.9H5.609L5.609,34.9z
	 M3.52,38.78l-2.81-0.91l2.81-1.06V38.78z M3.3,27.86H3.11v2.19H3.3c0-0.601,0.19-0.881,0.561-0.84H4.8
	c0.531,0.293,0.847,0.864,0.811,1.47c-0.101,1.14-1,1.75-2.68,1.81c-1.65-0.08-2.55-0.689-2.69-1.81
	c-0.052-0.859,0.47-1.649,1.28-1.94l-0.06-0.16l-1.41,0.16L0.24,29.3c-0.198,0.432-0.284,0.906-0.25,1.38
	c0.14,1.5,1.13,2.3,2.97,2.399c1.89-0.039,2.87-0.84,2.94-2.399c0.021-0.56-0.209-1.101-0.631-1.47l0.59-0.311l-0.09-0.25h-1.91
	C3.49,28.69,3.3,28.429,3.3,27.86L3.3,27.86L3.3,27.86z M4.52,21.89c0.791,0.29,1.15,0.63,1.061,1.03v1.59
	c0.069,0.217-0.051,0.449-0.268,0.518c-0.065,0.021-0.135,0.025-0.202,0.012H2.93v-1.279c-0.09-0.391,0.23-0.64,0.93-0.75v-0.15h-2
	v0.15c0.63,0.04,0.91,0.29,0.85,0.75v1.279H0.83c-0.23,0.049-0.457-0.099-0.506-0.33c-0.014-0.065-0.012-0.134,0.006-0.199v-1.34
	c-0.1-0.42,0.27-0.77,1.13-1.06l-0.06-0.16l-1.25,0.16v4.18H0.3c-0.02-0.5,0.16-0.729,0.53-0.681h4.28
	c0.36-0.049,0.52,0.181,0.5,0.681H5.77v-4.37l-1.189-0.19L4.52,21.89z M0.15,12.81v4.22l1.37,0.15l0.03-0.15
	c-0.89-0.34-1.3-0.65-1.22-0.94v-0.47c-0.022-0.223,0.14-0.421,0.362-0.443c0.036-0.004,0.072-0.002,0.107,0.003H5.15
	c0.33-0.06,0.479,0.2,0.459,0.78h0.16v-2.12h-0.16c0.051,0.58-0.109,0.84-0.459,0.78H0.8c-0.229,0.031-0.439-0.13-0.47-0.358
	c-0.005-0.037-0.005-0.075,0-0.112v-0.47c-0.08-0.31,0.33-0.61,1.22-0.9l-0.06-0.16L0.15,12.81z M0.02,8.45
	c0.15,1.55,1.13,2.38,2.94,2.5c1.87-0.06,2.851-0.89,2.94-2.5c-0.11-1.62-1.09-2.47-2.94-2.56C1.12,6,0.15,6.85,0.02,8.45L0.02,8.45
	z M5.65,8.45c-0.11,1.21-1,1.85-2.69,1.91C1.29,10.28,0.4,9.64,0.27,8.45c0.1-1.25,1-1.9,2.69-1.96C4.62,6.57,5.52,7.23,5.65,8.45
	L5.65,8.45z M1.55,0.01c-0.92,0.02-1.38,0.62-1.4,1.81V4.1H0.3c-0.04-0.52,0.14-0.76,0.53-0.72h4.35C5.49,3.359,5.63,3.6,5.61,4.1
	H5.77v-1.97H5.61c0,0.48-0.14,0.71-0.431,0.69H3.11v-1.12c0.123-0.803-0.429-1.554-1.231-1.677C1.77,0.006,1.66,0.001,1.55,0.01
	L1.55,0.01L1.55,0.01z M1.55,0.6c0.629-0.122,1.238,0.29,1.359,0.919C2.922,1.588,2.93,1.659,2.93,1.729v1.09h-2.1
	C0.597,2.866,0.371,2.714,0.325,2.481C0.312,2.418,0.314,2.352,0.33,2.29V1.85C0.261,1.23,0.707,0.671,1.327,0.603
	C1.401,0.594,1.476,0.593,1.55,0.6L1.55,0.6z"/>
</svg>
