<?xml version="1.0" encoding="utf-8"?>
<!-- Generator: Adobe Illustrator 16.0.0, SVG Export Plug-In . SVG Version: 6.00 Build 0)  -->
<!DOCTYPE svg PUBLIC "-//W3C//DTD SVG 1.1//EN" "http://www.w3.org/Graphics/SVG/1.1/DTD/svg11.dtd">
<svg version="1.1" id="图层_1" xmlns="http://www.w3.org/2000/svg" xmlns:xlink="http://www.w3.org/1999/xlink" x="0px" y="0px"
	 width="73px" height="73px" viewBox="0 0 73 73" enable-background="new 0 0 73 73" xml:space="preserve">
<path id="シェイプ_4" fill="#CBBA94" d="M49.689,36.69c-0.773-0.23-1.301-0.391-0.9-1.42c0.876-2.221,0.967-4.141,0.018-5.51
	c-1.781-2.57-6.649-2.431-12.23-0.07c0,0-1.753,0.78-1.305-0.63c0.857-2.78,0.728-5.121-0.607-6.46
	c-3.028-3.06-11.081,0.11-17.99,7.081C11.5,34.9,8.5,40.439,8.5,45.221c0,9.16,11.626,15.279,23,15.279
	c14.911,0,24.832-9.3,24.832-16.25C56.335,40.061,52.834,37.67,49.689,36.69z M31.534,56.4c-9.077,0.89-16.911-3.201-17.5-9.15
	c-0.589-5.949,6.293-11.479,15.368-12.38c9.076-0.899,16.914,3.2,17.5,9.14C47.488,49.95,40.613,55.5,31.534,56.4z M64.5,29.24
	c-0.039-9.285-7.6-16.78-16.883-16.74c-0.002,0-0.003,0-0.004,0c-1.08,0-1.955,0.875-1.955,1.955s0.875,1.955,1.955,1.955
	c7.115-0.033,12.91,5.709,12.943,12.825c0,0.002,0,0.003,0,0.005c0.022,1.088,0.926,1.95,2.014,1.925
	c1.053-0.022,1.9-0.872,1.925-1.925l0,0H64.5z M56.674,28.95c-0.927-4.383-4.367-7.798-8.759-8.69
	c-1.06-0.214-2.095,0.463-2.324,1.52c-0.217,1.058,0.466,2.092,1.524,2.309c0.002,0,0.004,0.001,0.006,0.001
	c2.855,0.577,5.096,2.799,5.695,5.65c0.229,1.057,1.266,1.734,2.326,1.521c1.059-0.217,1.741-1.25,1.525-2.311l0,0H56.674z
	 M26.883,40.689c-3.657,0.729-6.124,3.771-5.511,6.801c0.613,3.029,4.072,4.88,7.729,4.15c3.656-0.73,6.123-3.771,5.51-6.791
	c-0.612-3.021-4.077-4.879-7.733-4.16H26.883z"/>
</svg>
