<?xml version="1.0" encoding="utf-8"?>
<!-- Generator: Adobe Illustrator 16.0.0, SVG Export Plug-In . SVG Version: 6.00 Build 0)  -->
<!DOCTYPE svg PUBLIC "-//W3C//DTD SVG 1.1//EN" "http://www.w3.org/Graphics/SVG/1.1/DTD/svg11.dtd">
<svg version="1.1" id="图层_1" xmlns="http://www.w3.org/2000/svg" xmlns:xlink="http://www.w3.org/1999/xlink" x="0px" y="0px"
	 width="73px" height="73px" viewBox="0 0 73 73" enable-background="new 0 0 73 73" xml:space="preserve">
<path id="シェイプ_5" fill="#CBBA94" d="M28,6.5c-14.084,0-25.5,9.6-25.5,21.43c0,6.82,3.817,12.871,9.737,16.791L8.875,51.5
	l9.159-3.96c1.996,0.751,4.07,1.274,6.184,1.56c-0.306-1.32-0.463-2.672-0.468-4.029c0-11.809,11.438-21.429,25.5-21.429
	c1.268,0.01,2.531,0.097,3.787,0.26C50.793,14,40.443,6.5,28,6.5z M19.5,22.57c-1.775,0.015-3.227-1.412-3.242-3.188
	c-0.015-1.775,1.412-3.227,3.188-3.242c1.776-0.015,3.227,1.412,3.242,3.188c0,0.01,0,0.021,0,0.032
	C22.693,21.126,21.267,22.563,19.5,22.57z M36.5,22.57c-1.775,0.015-3.227-1.412-3.242-3.188c-0.015-1.775,1.412-3.227,3.188-3.242
	c1.777-0.015,3.228,1.412,3.242,3.188c0,0.01,0,0.021,0,0.032C39.693,21.126,38.268,22.563,36.5,22.57z M70.5,45.07
	c0-9.471-9.516-17.14-21.25-17.14S28,35.6,28,45.07c0,9.47,9.516,17.14,21.25,17.14c1.867-0.019,3.727-0.239,5.546-0.66L66.25,66.5
	l-3.961-7.98C67.253,55.38,70.5,50.55,70.5,45.07z M42.875,44c-1.775,0.016-3.227-1.412-3.242-3.188
	c-0.015-1.775,1.412-3.229,3.188-3.242c1.777-0.016,3.229,1.412,3.242,3.188c0,0.012,0,0.021,0,0.032
	C46.068,42.557,44.643,43.993,42.875,44z M55.625,44c-1.775,0.016-3.227-1.412-3.242-3.188c-0.015-1.775,1.412-3.229,3.188-3.242
	c1.777-0.016,3.229,1.412,3.242,3.188c0,0.012,0,0.021,0,0.032C58.818,42.557,57.393,43.993,55.625,44z"/>
</svg>
