<svg xmlns="http://www.w3.org/2000/svg" width="295.036" height="58.125" viewBox="0 0 295.036 58.125">
  <defs>
    <style>
      .cls-1 {
        fill: #fff;
        fill-rule: evenodd;
      }
    </style>
  </defs>
  <path id="mv_ttl" class="cls-1" d="M932.273,279.442l-0.234.469H912.82l1.875,1.875h16.641l-1.641,5.156-1.406,4.218H908.6l1.875,1.876h17.11l-0.938,2.577-1.172,3.751-2.578,1.875v0.7l4.453,3.046h0.469l1.641-2.109h17.578l-3.516,5.859-4.218,6.094-2.579-1.172-6.328-1.875-8.672-1.171v0.7l4.922,1.875,4.453,1.875,3.75,1.875,3.047,1.875,3.047,2.578,3.281,2.344,1.172,1.875h0.7l1.875-.469,0.469-1.875V321.4l-0.469-1.407-1.406-1.171L944.7,317.41l-3.047-1.875-0.937-.234,3.984-3.984,7.031-6.329,3.75-.7v-0.468l-5.156-5.157h-0.469l-1.875,1.875-0.234.7H929.226l2.344-6.8,0.469-1.406H965.32V291.16l-3.047-2.344-1.875-1.874h-0.7l-3.75,4.218h-23.2l2.109-5.625,1.407-3.749H959.7v-1.875l-4.219-3.751h-0.7l-3.047,3.751H936.961l2.109-6.094,2.578-2.579v-0.7l-5.625-2.343h-0.7Zm75.447-3.75v45H987.1l1.875,1.875h55.547v-1.875l-3.05-2.579-1.87-1.874h-0.7l-3.75,4.453h-10.08v-7.5l3.28-3.282,3.75-5.625,3.75-6.093,4.45-7.5,2.35-1.876v-0.7l-6.1-3.047h-0.7l-2.58,8.671-3.05,8.672-3.04,6.328-2.11,2.344V276.16l2.11-2.343v-0.7l-3.75-.7-3.75-.468,0.47,4.218v44.532h-7.5v-45l1.4-1.875v-0.7l-3.75-1.172-3.28-1.407Zm-13.825,15,1.875,4.921,1.406,6.329v6.093l0.469,3.282,1.406,0.468h1.169l1.18-.468,0.7-1.407,0.7-2.343v-3.282l-1.4-6.093-2.349-4.454-3.749-5.624-2.579-2.579h-0.7ZM1109.42,272.41v30.235l-7.5,1.64-15,3.282,1.18,1.171h0.7l1.17-.7,18.75-3.75h0.7v20.157h4.93V303.348l10.78-2.109v-0.7l-5.63-3.75h-0.7l-2.58,4.454-1.87.468v-29.3l1.4-1.875v-0.468l-3.75-1.406-3.28-1.173Zm-29.29,0-5.63,1.875-7.5,2.579h0.47l8.2-.7,3.05-.7v11.485H1066.3l1.87,1.874h0.71l0.47-.234h9.14l-2.82,6.329-1.87,5.156-2.58,4.218-3.75,5.625-1.41,2.813,0.24,0.469,4.92-5.157,3.75-4.921,3.75-6.329V323.27h4.22V294.442l0.94,0.469,1.87,2.578,1.17,2.578,1.88,2.343h0.7l1.17-1.171,0.71-1.875v-0.7l-1.41-1.875-1.87-1.172-3.05-1.171-2.11-.7v-5.156h11.48v-1.64l-3.75-3.282h-0.7l-2.34,3.282h-4.69V274.52l6.56-1.406h1.17l1.88,0.7v-0.7l-3.05-4.453h-0.7l-3.75,1.874Zm18.75,5.625,1.87,3.282,1.17,4.218h1.18l1.4-1.171,1.17-2.578v-0.469l-1.17-1.875-2.58-1.875-4.45-2.578H1097Zm-1.88,15,0.47,3.281,0.7,4.922h1.18l1.4-.7,1.17-1.171,0.71-1.172v-1.407l-0.71-1.874-3.75-3.751-1.87-1.171h-0.7Zm60.45-19.219v9.375H1145.5l1.87,1.875h0.71l0.47-.235h8.9V297.02l-6.33,3.047-5.62,1.875v0.468l2.58,3.751h0.47l4.45-3.047,4.45-2.813v18.516l-1.4.7h-2.35l-5.62-.7v0.7l2.34,1.172,2.58,1.171,1.17,1.876,0.7,1.875h0.71l2.34-1.172,3.75-2.579v-24.14l8.2-5.86v-0.7l-6.32,3.282-1.88.7V284.832h8.2v-1.64l-3.04-2.579h-0.71l-2.57,2.579h-1.88v-9.375l1.41-1.875v-0.7l-2.58-1.171-3.75-1.875Zm22.97-.7v8.2h-10.55l1.88,1.875h0.7l0.47-.235h7.5v10.781h-11.25l1.88,1.875h0.7l0.7-.234h1.17l1.18,5.156,1.4,3.75,1.17,3.282,3.05,4.218,0.7,0.7-1.87,1.875-3.75,2.578-5.63,3.75-5.62,2.578-3.05,1.172v0.7l3.75-.7,7.5-2.579,6.1-3.046,4.45-3.282,0.7-.7,2.35,2.11,3.28,2.578,3.04,1.875,5.63,2.344h0.7l1.17-1.876,1.88-1.875,1.87-.468v-0.7l-4.45-.7-4.92-1.874-4.92-1.875-3.28-2.344,1.4-1.406,3.05-4.922,3.05-7.032,1.4-2.343,2.35-1.875v-0.7l-4.93-3.046h-0.7l-1.17,1.875-0.24,1.171h-5.62V282.957h16.41v-1.64l-4.22-3.75h-0.71l-3.04,3.75h-8.44v-8.2l1.41-1.876v-0.7l-3.05-1.172-3.05-1.171Zm7.03,29.3-2.58,5.157-1.64,2.343-2.81-3.047-1.87-3.046-1.88-4.453-1.17-3.985h14.3l-0.47,2.813Z" transform="translate(-908.594 -267.5)"/>
</svg>
