<svg id="图层_1" data-name="图层 1" xmlns="http://www.w3.org/2000/svg" viewBox="0 0 391.98 162.35"><defs><style>.cls-1{fill:#231815;}</style></defs><title>180301波司登新logo</title><path class="cls-1" d="M32.06,81.59a134.37,134.37,0,0,0,3.88-25.94H20.5s-.75,13.33-4,24.68c-3.91,13.57-6.91,19.49-7.8,21.09a.31.31,0,0,0,.27.47H24.79S28,97.23,32.06,81.59Z" transform="translate(-8.51 -8.5)"/><path class="cls-1" d="M58.44,101.89a89.34,89.34,0,0,0,34.71-9.46,91.88,91.88,0,0,0,35.9,9.46V90.1a70.94,70.94,0,0,1-22.36-6.42c13.5-11,20-25.89,20-35.1V43.9H97v-19h14.91V35.77h7.37A9.81,9.81,0,0,0,129.05,26V13.69H97V8.5H79.78v5.19h-36v11.2h0V54c0,30.71-10.51,47.87-10.51,47.87H50.57S60.77,90.41,61,55.1h45.65c-.77,3.91-4.35,9.8-8.14,14.21a53.42,53.42,0,0,1-5.23,5.29,44.4,44.4,0,0,1-4.17-4.55,43.29,43.29,0,0,1-6.68-11.41H62.73C64.3,64.77,68.39,74,79.08,83.12l.64.52A66.41,66.41,0,0,1,58.44,90.1Zm21.34-77v19H61v-19Z" transform="translate(-8.51 -8.5)"/><path class="cls-1" d="M13.28,35.17c.37,2.25,2.43,10.66,12.61,10.66H37.36V34.63H13.73A.47.47,0,0,0,13.28,35.17Z" transform="translate(-8.51 -8.5)"/><path class="cls-1" d="M21.19,24.89l16.21,0V13.69H9a.47.47,0,0,0-.45.54C9,16.47,11,24.89,21.19,24.89Z" transform="translate(-8.51 -8.5)"/><polygon class="cls-1" points="372.94 75.22 354.99 75.22 350.72 83.01 313.53 83.01 309.26 75.22 291.3 75.22 295.73 83.01 276.27 83.01 276.27 93.32 388.99 93.32 388.99 83.01 368.6 83.01 372.94 75.22"/><path class="cls-1" d="M385.55,37.92c10.12,0,12.19-7.65,12.57-9.78a.46.46,0,0,0-.45-.54H367.12a37.51,37.51,0,0,1-2.82-6.32l23.61,0c10.12,0,12.19-7.64,12.57-9.78A.46.46,0,0,0,400,11h-50.9a4.07,4.07,0,0,0-3.93,4.79,51.72,51.72,0,0,0,6.94,19.08H329.88a51.47,51.47,0,0,0,7.17-19.06A4.07,4.07,0,0,0,333.12,11H282.19a.45.45,0,0,0-.44.54c.38,2.14,2.44,9.78,12.56,9.78l23.53,0A39.27,39.27,0,0,1,315,27.6H284.55a.45.45,0,0,0-.44.54c.38,2.13,2.44,9.78,12.56,9.78h9c-10.08,7.15-22.08,8-22.08,8V57.09a56.55,56.55,0,0,0,10.81-.6V80.56H379.1c6.14,0,8.76-4,8.76-8.86V56.53a55.23,55.23,0,0,0,10.81.56V45.88a48.32,48.32,0,0,1-22-8ZM369.78,70.57H312.64V61.85h57.14Zm-59.4-18.69c1.35-.63,2.71-1.34,4.05-2.13a47.86,47.86,0,0,0,6.44-4.58h40.18a45.53,45.53,0,0,0,6.63,4.66q2,1.14,4,2.05Z" transform="translate(-8.51 -8.5)"/><path class="cls-1" d="M232.87,51.47H151.32V96.25h69.91a11.82,11.82,0,0,0,11.64-12ZM215.36,82.34a3.85,3.85,0,0,1-3.8,3.91H168.84V62.66h46.52Z" transform="translate(-8.51 -8.5)"/><path class="cls-1" d="M151.32,23.17h91.62V84.61a23,23,0,0,1-7.25,17.21h20.47s5.09-4.92,5.09-17.35V12H151.32Z" transform="translate(-8.51 -8.5)"/><path class="cls-1" d="M235,32.26a.46.46,0,0,0-.45-.5H149.16V43h72.45C233.6,43,234.89,34.44,235,32.26Z" transform="translate(-8.51 -8.5)"/><path class="cls-1" d="M173.46,126h-7.74a35.52,35.52,0,0,1-20.17,14.87v4.74a47.57,47.57,0,0,0,8.54-2.6v4h11.83v6h-14v4.85h14v7.26H147.38V170h44.21v-4.78H173.05v-7.26h14.26v-4.85H173.05v-6H185.3v-4a49.41,49.41,0,0,0,8.33,2.52v-4.74A33.42,33.42,0,0,1,173.46,126Zm-17.59,16.23a46.61,46.61,0,0,0,13.72-9.89,44.76,44.76,0,0,0,13.72,9.89Z" transform="translate(-8.51 -8.5)"/><path class="cls-1" d="M390,153.18h-5.54v3.25c0,.62-.33,1-.85,1h-4.26v-8.3h10.13V144.3H379.31v-5.91H390v-4.81H362.38v4.81h10.69v5.91H363v4.82h10v8.3H362.38v4.82h24.93a2.69,2.69,0,0,0,2.68-2.7Z" transform="translate(-8.51 -8.5)"/><path class="cls-1" d="M353.81,133.31v36.58h38a6.7,6.7,0,0,0,6.05-3.1c.61-.92.91-2.53.91-4.84V125.79h-45Zm6.24-2.7h33.23v30.92a4,4,0,0,1-.73,2.68,3.14,3.14,0,0,1-2.56.86H360.05Z" transform="translate(-8.51 -8.5)"/><polygon class="cls-1" points="216.9 123.39 220.84 123.39 220.84 118.57 206.83 118.57 206.83 123.39 210.66 123.39 210.66 135.47 206.83 135.47 206.83 140.31 210.66 140.31 210.66 154.75 206.83 155.41 206.83 160.22 219.79 157.99 219.79 153.17 216.9 153.67 216.9 140.31 220.92 140.31 220.92 135.47 216.9 135.47 216.9 123.39"/><path class="cls-1" d="M256,129.59a.72.72,0,0,1-.81.75h-5.52v-4.5h-6.24v4.5H230.93v4.9h12.45v27.22a9.92,9.92,0,0,1-3.39,7.46h6.68s3-.45,3-7.77v-7.09c3,6.07,6.85,10.95,11.93,13.31V163c-3.77-3.29-7.12-8.95-9-13.22h4.83a37.05,37.05,0,0,0,3-10.66h-5.83a52.55,52.55,0,0,1-2.2,10.24c-.79-1.81-1.63-3.89-2.75-6.9v-7.26h9.23a2.79,2.79,0,0,0,2.78-2.81V127H256Z" transform="translate(-8.51 -8.5)"/><path class="cls-1" d="M242.08,150.52A48.84,48.84,0,0,1,231.71,161v7.38a35.58,35.58,0,0,0,10.37-10.47Z" transform="translate(-8.51 -8.5)"/><path class="cls-1" d="M238.66,139.16h-6a32.77,32.77,0,0,0,3.2,11.07h5.15A43.64,43.64,0,0,1,238.66,139.16Z" transform="translate(-8.51 -8.5)"/><path class="cls-1" d="M327.68,153.47c6.65-4.47,8.17-9.47,8-14.36-.27-6.66-4.51-10.67-12-10.93q-11.08,0-13.87,10.55l5.18,1.72c1-4.55,3.81-7,7.88-7,4.56.13,6.12,1.91,6.33,6,.17,3.2-1.82,6.81-8.11,11.41-5.3,4.22-9.75,9-11.83,13.81v3.26h26.53v-4.67H317.62C320,159.47,323.1,156.72,327.68,153.47Z" transform="translate(-8.51 -8.5)"/><path class="cls-1" d="M299.51,134.33H279v-5.15h28.05v5.17c-9.35,12-13.45,22.52-14.69,34h-6.28C287.1,157.24,290.72,146.36,299.51,134.33Z" transform="translate(-8.51 -8.5)"/><path class="cls-1" d="M89.87,163.49V140.66H83.76V165c0,4.55,2.58,5,2.58,5H93S89.87,168.73,89.87,163.49Z" transform="translate(-8.51 -8.5)"/><rect class="cls-1" x="99.34" y="117.5" width="6.11" height="15.83"/><rect class="cls-1" x="71.06" y="131.62" width="14.51" height="4.82"/><rect class="cls-1" x="75.91" y="121.94" width="11.12" height="4.82"/><rect class="cls-1" x="69.64" y="141.56" width="17.23" height="4.82"/><path class="cls-1" d="M116.5,136.41a31.15,31.15,0,0,0,2-9.25h5.43a31.44,31.44,0,0,1-2.48,9.25Z" transform="translate(-8.51 -8.5)"/><path class="cls-1" d="M100.31,136.41a31.46,31.46,0,0,1-2.47-9.25h5.39a30.79,30.79,0,0,0,2,9.25Z" transform="translate(-8.51 -8.5)"/><path class="cls-1" d="M83.76,125.81s-.39,7.32-6.29,10V140s11.63-1.79,12.25-14.15Z" transform="translate(-8.51 -8.5)"/><rect class="cls-1" x="93.78" y="129.68" width="16.6" height="4.82"/><rect class="cls-1" x="93.78" y="138.48" width="16.6" height="4.82"/><rect class="cls-1" x="94.19" y="147.28" width="16.6" height="4.82"/><rect class="cls-1" x="89.33" y="129.68" width="6.16" height="31.77"/><path class="cls-1" d="M123.91,165.54l0-27.37h-6.16v26a1,1,0,0,1-1,1.05h-2.21V170h5.06A4.39,4.39,0,0,0,123.91,165.54Z" transform="translate(-8.51 -8.5)"/><path class="cls-1" d="M40.34,141.42a54.23,54.23,0,0,0,12.84-9v-4.81H30.42v4.74H44c-3.11,3.51-10.11,6.83-14.39,8.92v0h0v4.82H32.2c0,7.92,0,16.59-4.85,19.25v5.29c8.29-2.81,10.73-13.76,10.75-24.54h2.43c-.14,8.43-.58,17.18-5.05,19.45v5.09c8.32-2.67,11.06-13.37,11-24.54h2.36v16.31a10,10,0,0,1-3.37,7.64h6.72s2.93-.72,2.93-7.53V141.42Z" transform="translate(-8.51 -8.5)"/><path class="cls-1" d="M28.31,149.32h0V144.5h0v-7.33h0v-4.7h-7v-6.66h-5.9v6.66h-7v29.62h7v8.75h5.9v-8.75h.42q6.75.19,6.53-6.27Zm-4.84-4.82H21.36v-7.33h2.11Zm-10.33-7.33h2.32v7.33H13.14Zm0,20.19v-8.19h2.32v8.19Zm8.22,0v-8.19h2.11v5.64C23.61,156.64,22.91,157.49,21.36,157.36Z" transform="translate(-8.51 -8.5)"/></svg>