<svg xmlns="http://www.w3.org/2000/svg" width="13" height="13" viewBox="0 0 13 13">
  <defs>
    <style>
      .cls-1 {
        fill: #1f2024;
        fill-rule: evenodd;
      }
    </style>
  </defs>
  <path id="Magnifier" class="cls-1" d="M465.874,57.877a0.4,0.4,0,0,1-.572,0l-4.077-4.118a0.407,0.407,0,0,1,0-.574,0.4,0.4,0,0,1,.572,0l4.077,4.118A0.408,0.408,0,0,1,465.874,57.877ZM458.058,45A5.078,5.078,0,1,1,453,50.078,5.069,5.069,0,0,1,458.058,45Zm0,0.806a4.272,4.272,0,1,1-4.255,4.273A4.264,4.264,0,0,1,458.058,45.806Z" transform="translate(-453 -45)"/>
</svg>
