<svg xmlns="http://www.w3.org/2000/svg" width="115.781" height="35.28" viewBox="0 0 115.781 35.28">
  <defs>
    <style>
      .cls-1 {
        fill: #fff;
        fill-rule: evenodd;
      }
    </style>
  </defs>
  <path id="旗舰店" class="cls-1" d="M794.664,3239.77l1.125,2.25v1.12l0.281,1.55h0.844l1.125-.42,0.7-1.13v-0.7l-0.7-1.12-1.547-1.55-1.828-1.13h-0.422Zm11.953,1.12-1.125,2.96-1.125,2.67-1.547,2.67-1.125,1.41h0.422l1.125-1.13,2.25-2.53,0.984-1.69h15.891v-0.98l-2.672-2.25h-0.281l-1.969,2.25H807.18l0.14-.42,1.547-2.25,1.828-.71v-0.42l-3.375-1.83h-0.281Zm-7.453,4.93H789.039l1.125,1.12h0.281l0.422-.14h3.375l-0.422,9.14-0.281,3.38-0.844,3.37-1.125,3.66-1.125,2.25-2.109,3.23,0.281,0.28,2.953-3.09,1.547-2.67,1.547-3.66,1.125-4.5,0.281-4.22,0.141-.7h3.656l-0.422,8.3-0.281,3.65-0.422,1.97-1.547.7h-0.7l-2.25-.42v0.42l1.547,0.43,1.406,1.12,0.422,1.55h0.422l1.406-.85,1.125-1.54,0.422-1.13,0.422-3.37,0.281-4.5,0.422-5.63,1.125-.7v-0.42l-2.25-1.83H800.57l-0.7,1.55h-3.656l0.281-5.77h6.75v-0.98l-2.25-1.97H800.57Zm16.031,3.37v1.83H809.57v-1.83l0.844-1.12v-0.43l-0.844-.42-2.25-.7v4.5h-4.078l1.125,1.12h0.422l0.281-.14h2.25v12.1h-4.5l1.125,1.12h4.922l-2.953,2.67-2.672,2.25-2.953,1.97-1.969,1.41h0.422l2.25-.7,2.953-1.55,3.8-2.25,1.828-1.13,1.547-.42v-0.28l-1.969-1.97H823.07v-1.12l-2.531-2.25h-0.422l-1.828,2.25h-0.844V3252h4.922v-0.98l-2.672-2.25h-0.281l-1.969,2.25v-1.83l0.844-1.12v-0.43l-1.969-.7-1.406-.84Zm-5.625,5.63V3252H815.2v2.82H809.57Zm0,4.5v-3.52H815.2v3.52H809.57Zm0,4.78v-3.8H815.2v3.8H809.57Zm4.922,2.67,1.828,1.12,1.969,1.55,1.828,2.25,1.125,1.55h0.422l0.7-.42,0.422-1.13v-1.12l-0.844-1.13-2.25-1.55-2.531-1.12-2.25-.7-1.125-.43h-0.422Zm21.9-25.45-0.281,2.95h-0.844v-0.42l-2.953-1.13,0.422,2.67v9.43H829.64l1.125,1.12h0.422l0.422-.14h1.125v1.55l-0.422,6.04-0.422,2.68-0.7,2.53-0.7,2.39-0.844,1.83-0.7,1.12h0.422l1.406-1.55,1.125-1.82,1.125-2.25,0.844-1.97,0.281-1.41,0.422-2.67,0.7-3.38v-3.09h5.625v13.22l-0.7.42h-0.422l-2.531-.42H836.39v0.42l1.969,0.7,1.125,0.85,0.7,1.83h0.422l0.7-.43,1.125-.7,1.125-1.12-0.422-24.05,1.125-1.13v-0.42l-2.531-2.25h-0.422l-1.125,1.55h-3.375l1.125-1.55,1.828-1.83v-0.42l-2.531-1.12h-0.422Zm21.375,2.25h-9.281l-1.969-1.13,0.422,2.53v1.55l-0.422,13.92v0.7h0.844l1.828-.7-0.141-13.92v-2.25h9.563v16.17h2.531l-0.281-14.62,1.125-1.13v-0.42l-2.672-2.25H858.89Zm-22.5,11.25v-9.85h5.625v9.85h-5.625Zm1.547-6.75,0.422,1.12v2.53l0.281,1.13h0.422l0.7-.28,0.422-.85,0.422-1.12v-0.28l-0.422-.85-1.547-2.25-0.7-.7H836.39Zm15.328,3.65-0.281,4.92-0.422,2.25-0.7,3.38-0.844,1.83-1.125,2.25-1.406,1.97-1.125,1.54-1.969,1.41-1.406,1.55-1.125.7v0.42l1.406-.42,1.969-1.13,1.828-1.4,1.828-1.97,1.969-2.25,1.406-2.95,0.844-2.25,0.281-1.55v10.97l0.422,1.12,1.125,0.71,1.547,0.42h4.078l2.25-.42,1.125-.71,0.422-.84v-0.7l-0.844-1.13-0.7-2.25v-2.67h-0.422l-0.281,3.37-0.422,1.55-0.422,1.13-0.281.42-1.125.28h-1.125l-1.969-.28-0.7-.42-0.141-.43v-8.57l0.844-1.13v-0.42l-1.406-.7-1.547-.85,0.7-4.78,0.422-3.37,0.7-.85v-0.28l-2.953-1.12H852.14v3.65Zm-15.328,7.6,0.422,1.4v0.42l-0.422,1.83v0.42l0.7,0.43h0.422l0.7-.85,0.422-.7v-1.13l-0.422-1.54-0.7-1.13-1.125-1.12H836.39Zm48.195-19.97,0.7,0.84,0.844,1.41,0.7,1.54,0.7,0.71H888.8l1.125-1.13v-1.4l-0.422-.85-0.7-.28-1.125-.42-1.547-.42-1.125-.28v0.28Zm13.5,5.34H877.554l0.281-.42v-0.42l-1.828-.71-1.547-.7v14.63l-0.281,3.65-0.422,2.67-0.7,3.38-0.844,1.83-1.125,1.97-1.406,1.82h0.281l1.125-.7,1.125-1.55,1.125-1.54,1.125-1.41,0.844-2.25,0.7-1.97,0.422-3.37,0.562-2.25v-11.67h27.141v-0.99l-1.828-1.55-1.125-1.12h-0.422Zm-11.25,15.75h-3.8v-0.42l-2.531-1.13v5.21l-0.422,8.72v1.12l1.125-.42,1.828-.7v-2.25h13.5v1.82h2.672l-0.422-10.12,1.547-1.13-1.828-1.82-0.844-.85H897.8l-1.547,1.97H890.21v-6.47h11.25v-1.12l-2.531-2.25h-0.422l-1.828,2.25H890.21v-4.5l0.422-.71v-0.42l-2.25-.7-1.125-.42v14.34Zm-3.8,9v-8.3h13.5v8.3h-13.5Z" transform="translate(-788.344 -3238.66)"/>
</svg>
